<mxfile host="65bd71144e">
    <diagram id="Z-xCxFi8J2B4nkM2y7AL" name="Page-1">
        <mxGraphModel dx="1439" dy="800" grid="0" gridSize="10" guides="1" tooltips="1" connect="1" arrows="1" fold="1" page="1" pageScale="1" pageWidth="2339" pageHeight="3300" math="0" shadow="0">
            <root>
                <mxCell id="0"/>
                <mxCell id="1" parent="0"/>
                <mxCell id="46" value="" style="rounded=0;whiteSpace=wrap;html=1;dashed=1;strokeColor=#FFB366;strokeWidth=2;" parent="1" vertex="1">
                    <mxGeometry x="504" y="138" width="471" height="459" as="geometry"/>
                </mxCell>
                <mxCell id="41" value="" style="rounded=0;whiteSpace=wrap;html=1;fontSize=14;strokeWidth=0;fillColor=#fff2cc;strokeColor=#d6b656;gradientColor=#ffd966;" parent="1" vertex="1">
                    <mxGeometry x="1072" y="224.5" width="140" height="266" as="geometry"/>
                </mxCell>
                <mxCell id="40" value="" style="rounded=0;whiteSpace=wrap;html=1;fontSize=14;strokeWidth=0;fillColor=default;strokeColor=#666666;gradientColor=#E0E0E0;gradientDirection=south;" parent="1" vertex="1">
                    <mxGeometry x="166" y="198.5" width="216" height="338" as="geometry"/>
                </mxCell>
                <mxCell id="2" value="dbt" style="shape=image;verticalLabelPosition=bottom;labelBackgroundColor=#ffffff;verticalAlign=top;imageAspect=0;image=data:image/png,iVBORw0KGgoAAAANSUhEUgAAAIEAAAB+CAIAAACMBuXLAAAAAXNSR0IArs4c6QAAAARnQU1BAACxjwv8YQUAAAAJcEhZcwAADsMAAA7DAcdvqGQAAAASdEVYdFNvZnR3YXJlAEdyZWVuc2hvdF5VCAUAADXiSURBVHhe5X0JgGRVeW7nmedL8qJJ9JnESNxAiAuIDDAzzNL7Vlvvy2w9013Lrb1ngIAomBAXjITnFg1K9JmoiaiQqE/iTozRRCXigrLLMuww9FZ193P/fN+5Nc1QM9Wmm2pgzJl/qm/dqrrnnH///7O1SKPi458E4gaB77kiritK7ID3cTcQ5QSuJwo3xFHiic1PPHwgsqTUkuuIF1TxM/2s47ko13c9RwWmqjqCHil2XvGv5ykgwxXfRcfx3ge28JHSWDF9WfL8wMVtPASfNy6NaSAm/gOtAeoLq/AXNZo1FXATf9gE3/JcfBXVBvgJqvd8XFn4q39/3BewlxIHF+ghukSsOqAC8QAs+BrHYEZfLJEKvuQF4R2iBi+aWo48ykc1KA1pwFrB2ypgvXiexzoW1FxFfE9cpaoBJCFEska/rpUv/Msf4NWWYJF3j+9SEcdhd8ha7C+5XEE/UAjI9EQBEG8B1bi0xJkXZQMLNX6t+CghdhqUhjQAqV0SYQk/VwJUuuLabIKHV+W7KgArKBC+CtKDYGyJVkq6obb+CArpuC/gPAEfQhVptiQyXQoB+8k3VWBAPDdA3yEWgQ2UUQCAAHcJGAiE5CDRGpfGusgCx+vfKjD+Y3gm5e6eh+XL11pXXBiUY5LtlIv2Bp+4Sm67Hd9EWy3lgFBoqa7VZNOPf3NAlUycE7nso6CPNrQTkfPjn8pHr5QL90qu0z1/wP3gW+QbX5D7oHbmIDgeMYBfmESCtpuNygr2AL8j41dhiiENP75Z3nKRNdHi7tou+URg9Pkz26XQ5u89Y27idHnjuH/LDaEQiA3WqDiQR1yvVPVxUnzyP7QqVYJfpbijmz/5nlw4trhvozlzhhhbJNMpmX7Z1+PvaZPEr8pl7wzufKgKdYVv015DaWu2bFAa0oAuEOwtrh64XS7OqMmXVwrtfgmVxSQVlWQ8SMb99KDKDahcp8pslsTzrHf+sRy8hwID3QjKgX7kouO7VMBTYGTg3faJ07vvWXp7XoZ/WzLnSK5LjAE/BYirNLARCYwYYbbTmvw/cvn5MveoBeT7S5CLFUpDGsCYwBGT6z/jJJ4ru+ILRkTKA5KMqGKbX+r2sj2Sj0g+KrmoFONBqk/l4mjWY0O/43zknVK1rAA+EkSXwnB8FygVcDQuHp93P/Sn1bGXSOpUsxDzMn1STkghqpEQUUYPSZJvkz1dfq7XKXfKrn5rxwnyo28egtVemQYUEtawEOC1eggqCLwPVibyPnelDL5AklsXijtUvhUVeGmYgf5jQlDslPywFCMytdUeeY588WMBTLe2DWyAdtFYD7xqbbO0soJHDYlRIJXnQvCg/VayXU0pFn0Y7VDqJoWXsKpoHC7gwLi4AsMr7e/AFwrQyAW55iNOX4vs3SrpATGiDnB9FAYOw6Dku6XQYxUnJNklg78hX/8s1YmjoNXp3zhw3oFzGBj4SywtsJyItnC1gP/EAL40X8Hfz310ceylKhMNMkNSjFZzCUl3sAX1VS5DtJodldJ2P5Oo5BOy+3Rz90vluzdQGanKQsDwhgxFFce+sS6wF7wsIkUHHCDX0yA2qBoV6TCT9bkV3QbeE99UFmJLZ4nIwls44p58/7uLo8+TqTP94qiL7pf6qoUh2dd1VPcPQ35Icu1BsVfSeNvpGhP2cIt849rHULGaQ60wEKjPgpIDLcjwWhehIbpOcCjbQnR89YsSe5EA79l+ZSQquVESwIDQDT6pviPAyfVKttubgTQMyGy3l+n2Ur0yfrq8ZVzuvAthNuIJ7U6oMLys4UKzIf6CDLhYUWSbU9B/1IK6ajIXVs+euwgDcBc3+AmcwFt/IudFZefrxei1jT7JtUlxFIbQz22TUkN9QDC67GyPW4Zyjkt+q50ekYFfl5u+ZwHhjBSWdFbBFN8Jea6lEmgNAN4EBI+ZQMaDP60mfg0qCEZGK/3+oKAvoPsyjWUwE5WZVkiDU+gN8oMCRsglrGS/7N3ij5zgXfXWYA7hu/ICeM2szpEFP4Cfx2ZQRyEaCWyHztz6FstGgAlGo/JhZBWSxLMYizLohaaA7ln033uJDJ7iptptIyaAYr/Mjvu5PjHiUugQsFdd95ehGLGKcXumVwr9h9LACSSjT2Y65/a+WJYeYvcCaBkFMQCxEXOjtDhoA6mBmAqNWaKsXJCW6cRiaacUOpdgaUnPdhe6Pg+0NqSBm0z4mXiQmZRsu8BE5/tNYxw/lELEMQZleou5+zVy/T+iq0CBxjSUE1w+FxE/vWcAuY8frG9hMIV6UBkZgPkVgDKhg9AqqsrPfzgYP0VSm9wDULxxSW+vFnd42V50SvJdfmYM3O3COTwKAyGoQpfKDAXZTgvfDKXBiJqFcZmKyhVv0U6qgqVkT+n0UwBbApAF9pGEYZ5NbrpJxl+xmG0Pst0mtEoaFwMqv5OUT/dIkdrpmOBk4+pAAr+SXKuXnZQc2KdbZjsl1S3FIXpNuLP71cH+NvPGf4cYhAxIw4zwW/OjdmM1Y6xrCXwQn8YJ6KZmpt8DgUAw5N/wzyq7TaY2uIW4k4xo89su+W3KgMMTVcYOxENesSPIxqv5+u4fAX1S7JL0OHgR1tTJ9tsIZvOdqtjqwsH5+Z1wSRg9owFUScwjtVAP+AHoHyAGgXBcehHxlR9h3IG6czHQQDIRyQL6FTzR+ipr4Gc30RDlhiA3TjHhFrsC8A74Bc3NdZqZLil2uIVOP7VF7T5NLvsTefQeoJ1sAFI40A4gBaJL8OY6F4dmj/IGNHj6Avzw4D32xfv9PWcF6U5B99MDbnYI7o1C5JWNWJlev7x9qRiTTK9XgG6JB+Vz6rq/DHYBJrMrKHZLJmHlY5JskxLQiBAqCnZUf/E2aBybgS+EkdoI9UMXoXimq/Oj9z7ijvyqGKBbB37jp/toA7JtUEGqFPGL/eb0CvZgGFoPsQJJOIMWRMSASA76cNRKA1KIw2lT6URQHndhLabeYA+/3L/m3VI1WS9FdIlSuP4kQCXgQjAc+I4OGVT/x99eTfyeTJ0N78PLD8D8KmjwXIT8ZPSZkP7sGATCxc3MoBS6ZSYm6dH67i9DsqcKz6UQUznIUK8UB7xMAlbESrZSE0R+Re6bAxNQ6fkeGoMCv4gpULSLdvJfrpGJVlUG83bXP7rpgL7t6aikN8u3voG60QayJJwmMqcSkwKL+4si8xptqy14Gmwbs700MzqpTgKb0Lj4yMQzIXtf+wdzxybZtVlBZOua12zwyu2SjsvObfLVf9AaV+sA3a8WKAAoR5gmG8J5xVuDFMQn4hS31z2i+ZDs9me7rOKYjJ8oF47LrQeV76IlLgI4Giu2klrbX+AbBiyrKyCh71LfQ9AD1zJ98P7h/C56fsttcv6I7Hyt7B+GfAfwHeqa12zwYCSScUl2yHv/1HbBGdC9FEqUljAghF2mx1acUHC8knEnBwGsf0pzwStGvEwP7IRbhgPXbkefKx9+mzX/CPADjiWm2D5FBRUs8u1qCx7kkt0BpCV1ndYAS0vBh9602P/bYmx2SwMKdq4QsXP1zWs6+EZvAB833e3uHxXXcjzwRK202JBWhGjoJSyC0eMXz5EkXJqG/k/TAKYFRiI/5mdjfg4Kt0MQ+8R/S677FBkEsQJwKIvMHZAYmmFWU3zoG8tfUpAjdo0kgZ677hPS/3yYN1gpqzBsZocRxMBoycwKuYcmgQFLGaWJzvaABuyPT3uEAhrQVYDcWlCal2QEBh0EYNB71FOaCnMQtZJmDfjdhTa7MCD5cxCRmnu2yHhb8MMfUwJYyB46nlhdoegwQeIw+DA998af+btO9VKbJdODIMsuRxhFGr1+NiHFvsX1768YcPR7VLlLDkwGUJDQjDorjaLzphyepq70rr4KYS08XL9IT3RdQZU7ZBrxS5skB+kRwnkAV4ISBzqCVJtMniL/9yJ5mARYtg+rKhzK8nx6u4896r7vIhn/3SpCnEyPDyctFZV0An6nm+ySDLydbpXrrGte8wHBVqa7ktwo/+/9AX0P2GVF3UgawG7pQXnyy90/Xxh/jeS2kzvqHtF8GPXPTUihN5gdcuEIFuOVLNPxsi/ilbqdfEQybWrgBXLdxxlIM6mxuhKApxYfkX+6ViZeMJ/ukuw4Yka/MGgZ3VXYgHy3m4r6qLq43SwOSG74qOY1G2aHJNsxv+M0uetuCgGaqMTRhq9FM4zt+zpZDeG4fK/MaIGte0TTAQwI18gYkgKc8XEmxVK4uVWmY1KYMA0wTrsN1bn3rCXg6EfXE6+rKeSzB26SgVcIhIwwtlRG3NPql9uY9UrFpZCQUoxiAUVkrHt/bdSy5xy5ZKDmIwQ6cxnKAb0FeB8crtSG6/7bgsRzvGLC2a/TszPdMFlOqpOBVWabpNddRwUMxaOBEQEgRGLCw4DjuH3hPZfIY/NU8xAJplsQUsNkMOMCZcXhbjTeZeYNfmwVfx0EFrLkPe4XhyTdVc0jchwI8j0ccoEmzPQCAqMvBFwf2YanBCmgqDXIxitpPDOmklEwtH0AyIz5oy+Un30HLQS7E/l0OTQNGBMFNvOFeIfoGS7qB/9M0mdIbpLxejrmGe0BIkawZG5Epdc/biDUyFCjQbaTZNjXZY69Qv3jxyo2TJfJNmu8w5HlkDv7VHECnf5kitwNlPY6oGUrj3slmMSomun0sj01dIMSBYSiHAIj4PpJDXgKAAcvE2cXigkb0UCqxy+MB8a4JDdU3vlmhJ9sNHGN/zpBR12ElnpsMtVTYNMAPvjA3PgLvVKvFLYwms1EqDFT7WIMyuy6y4Hk+p64Jg2gKCAK3W6hXcq7nJ2n+9k2ufFGC81GDEaJIDHwTg94Ib72dBoAZFggd6GL+M59D7j7TlOww8U2cH2I91AUlq+fqPQpQhnPH1SpbsQc5N10u+Q3q9nex4ZfIPc8YMNOBaG3rdum2wcaoA86LyCKrjQYybTU1e+VfW3BzJiURpQx4GS3cJCSXNNwDKdpABqEAL10WFcQcfl+P7ddUj1Wpr868iq5NOs8tEgSaCtGY8a0OHQSJYGWjtmgMBaFqnXl5rtk8uXgTS/VvYzxJx5+ZAOeIsD/gUdT7vKNVgdvC5MqNSxT7eqT70azPHsBTbLD5LX2mtFA+KYgAIXAVRXeoF5yxfa8sV9ZLPZLqcM50CtJPH3Ey0e9dEd9lU2HZRo8QQbaBiufYKx/YJjj5sUemdnoxV8if3c5KeBDGykTvQL+Q0HXWWlegRqK0yEQigZX/53s2iDnjoDxfWbiqJHw/Jo0HNmGpwB+ptPJxzgEmRp093cgCjGLfe5oCzSk4uBlhSyvKmR6sAun5EoLnT4ILodWqhAUeEmQZcuvynWflN1neqlet9gl+WFVHHAK8C6g6eprXS/I9QUEWmlmFIxWuje7oMfjUu6AR2+V+oK9m7zdJwX//u8WR+JpF2gLPKojTv1ER6thooKDI7jpzU5Smg+bZUqA1kXNFIVklO5MbhQsK4WoleuWyTPly5+0II1a97gMHOlcoLVhoNxCOxa20kfIQEGegzjAJRersuuVzGNnYkswzoUIXGmBWNVV2XzQBg0XR9IAztJMxCztrM7GfAac/U52KwILJvRzbbLzFfYbd8nBB8lNPqcFwhTT1wA9QBmOmpnaSJhy822HxjdCHUkJoUmsRoPQMj+pDU8B0iNWbrMUBmFEg2mEWdusPa/WI7j0eCidoIJngmE4jK+FFvEBI2R+4HAQB68+uUZ/+Qc3q4nXc+ZMBg1t1egYq6+y6QAUkwzLNOCwKGjgZzugGHENvAsczdwAY65sDPGdmYnJ1EY38vvyibcq61FmAKB9fLtKgljwXWkZ0O1w6uf5Y0B6zSpoCWimQc72ewz3ElLcLNMJ+hGjZwT/8SPyvwOdv0RDFU7acMOZqWxswzleYCB+6eIdjCzyMAnxIJ/w8+sf068SOKRVjHMIN9Uh06+f2/l6+cbVFrkMfYAogNdo8Nh5Lf3OTXf4e17sFfqDdLc726PScc/Qg1xHPXmNUOzHAxlIFdtkulv+dE+F9nel5HtDGmhaLcrP7wiGX+6B7wpDEAUpr79ftErw4IcYY2KM+rND1QJCoS57T3tQHld33+bpkWpYCXqqtBTaQuBesVvSUY7Rws6nh5UBH6Z5cTLzQm1SijrwYoZeKg/Mi7dAZDYuDWkQqiTYN/eqS+BaeeV2C9FHqKmfTeBw8hksITR73EaMWh7jFJv8Jnfy9+UDlwSmjkVhIiAIgVQdjuEG//8q2b1JjARniDJrqwe9j3ryGsEYUKWIlWuXmV7/Y3Db9DSuFdNdjWng0UyL56vFeWfnGQKnCADeqavymQYn1+Vn2uEmBfv7mIpIQcvHKwbMxqDae7q9+0T56jXa85sDJUJ1LA/eZk+erJLbgCz3QK+bxk+aFyenB6TYAaJau0+XSoA4smafGpfG9gBiy8hZT7v750/JzjNhDPzU0+ib/hehMMh5V2nYbXg78Me71UyP5CZAj2AGTsSITJxsnhu1b73ZgVFQLg0EnJSZrWZykx5C2A5nN2CS56gnrw3SUSqMHafJt7+I+rhW6RdNFlnBJttsLkXXZUBXiPozW6W0o77KZxxAAM7Fj8m0zrwWY1ahzz0Ax6mXCXCjmwo6fY4MvsS98u32HMMGMKb55+dLTudCMpy/o+eGNgf8QoIz4WYTwJyPkEtxFUIAndi4NKQB00mejhfEhTq1f/gdhGz20zGusErI99nZTq/UqydkDnNCyv5h2ljgItujydAbJLtNKP30Rhk+yfn8x8R/LPjsR2Vvl1dklEBnt3nxgWn0+hOvCX52s8vsOQqXgDAL17g0pAGTwnSqGOtwjoIsyDveJFNn1FX5zEOmlk0iR4MYRrufhGuIsKtfSsN057JxrhXIQEtA6Q/IzrPmz5uQd18mqa5qEYSJW0aXUzrqsWuGPafKZZcC8Yy6uL6Y7sAa/SKE+NBA+L1ejGPSsBy6e37sRXqxQ6+dhXvXuZTv8eAFJwf1RLyjWvPLDUyqj3jZbUzMZaJeMRJkO2W635l8hTxyL5wxT+CSukAg8Kij4IZlBXvgcm6+wyRfLcKESvr7K2RPp1OE8xelmBcQQg+45QjF+cj2/XcASB7CYDgpyb6gHDPTPW66S/a1yTUfIONC92inlCLgWbZe4dGoNKQBvSJ/QVQ4G91kwInnzjv21CaZnXDT3YxxsgjZtku534JhrGviLztwHjzIMLMpKCX83IQkI+bsgF3qkor2gD1PAocpORJjQf9pWBrLAZPAtXklnJTtcb0QZer6L8vOk/1S3EG8NtMtxqBC8Fxsagr+uIB8hxQiKjcAZyzIx5jIGjtRvv0lKgz8VxbUCPQ5LolIkqVhaUgDEBIYd0ELTsqGKNFN4uINZak375DpbXZxBMJYW2+TbzwH9pcV0gm/2D+X47x2rs+Z2iIXT/n+IpU/h8SYSAfWwMHE/4oRQmNdxE1C8DDIFEVKp8Dwn8lIufU+J/a/rGybFBNBJkGv3HjW5TDWH+CPwLUdsrM9HN4Y/B259z5giPP79CRXqh8fkRXRqPSslUZlBXvAXFeg9Rmwj2cwctYJSN784KVS3C6lbSqdcJlVXf+5MM82yCVUocNMD0qqXWU2ysev0HM8ahA6ploYqNFrg3sNSkMa0BRzTIFrh2ripGz9l2sovPnHgthvSqYnOHfIS8dUbkt9E3/ZwSttk/QQ3EJmqCb/MKjaIcY0+3M4EkgywyXGmjYrlBXkoEHhEgHU5coX/0Z2ny1Gu5nWTmpdK/UYYTPHpwz9TH0dDrwsD0DWveXX8OXw+qlDg44EuREGBJk+e+cG9a9ftqiwQydm1WX1NNC2OlBMzcvuNifZ5nKtzrF802M1fe1wePy9NhyvB4SlGNcDOLXoBB/ViKFHjJsDjXrBARVwRpt97gCVNLiSW9WEOFpdWT0NfERu2jZ4Fe8nN8mulwa5dq47q2tiCM2jQZDrV1xuFwd+Q6Qvo/6Jt0A9SJLlKHT4UROgURcKnUF6zJ34Xbn9NhXYjAeYql4pDmhUVk2DeaDf4doMaDrOCLusINlNnFFb18RmQ1CIPIFZzZvg92UI79S+mdMLqg//cL3gQET2bZG//TMYywp3RwkX062s+Y9dVi8HQL6ekcc9WRCSP/K4DP0aB7PqmthsYFxajFERAeOFGLieYjE7AMAFhaAQw0f8Ar6m5yatK3DgaOJUrjBR88C+haAAuoH+0KrLqmnAbLZnzqFaXHBRr8jVV8q+bWTGoxraRKjtFQBdpHEdMrtldANqIqJpo5VVZL3lgJ3dfba6/vPhBDk4QiYHSTnNbA1l1TRgIpYBw5y+4q6PYlXt6Y6aTjiquU2DcoI8znR/H9FdTjj5PrvYD8AFt7HBTXxU0LKCt3U/bx6EPX28ENeKR2/cCAlQFieTrUUVrYEGSjzl0zXitGEtfaj4U+8JW7Z+ZABmAyqifmeKa8esVOeje7fKX50HwAXe4iY/MvrxNZLhqCc0BZ7o5ueutoMKYgLutuB580CFWuP+favXRcsQZpIYShOWJk7RiaOYNo8JhO9eYU304OqPaKhqOLsL/l9Je5+5uG+0ct8IfCfZt7T79XLwRppBwMEb+TbJ6vAFfA1f5k/wQ/2EmrKC17SGuKEw6JeiyohJfpCilo4E2fjC5Glh95dLDTtrKmunAa+PoIH35klJbUfnOXaYjWskah1d16VfCOHct9C/RORRoCeqUt3VfKsYY1wol47L0MnewZ9BFzoacIG3uImP+AVjDF/GT7Sh5hPwKD4QjWnkaK4EUa/Q7zNC1OrOiHIboT+bCVEfFo2MtZc10iAstRaEZLj2I7LvDK6iyXSBBnqIA3y3Fhpo3yb+xAWNcL9kejzgd3rMHT/RfOBWRIrMDehsFi7wFjfxEb7Ar2WotUITzYcA9csXddX9QjA42zXIkrEkB2csIlOny5c+HfY9LCE21lxWTYO6UmsF2nHbLbL7ZB9NzHT4WWikLt3htaijJyELeEz3unv1OnojLqMnqTvv1ikYHagvA+c22vxo9CR+LdvPn6S1wxo+Z3m++2qBM4JjUuhhpzIdHuzN5Eny87tq3X7KBEB5qjQIC5riL1hq9x+RBtkesowB84jWr5oGWvUfXhgTYjAUplRERk50772FFsDT82aVLEgAoDTgLecxuPzCyIl6UdjhH+qHPOmxq4K83o6r0IWu+cl2vAa7X6sWvKZgPyyrp0HId0eU8IbjBl5S7ygDrsnHgkwrzdfq/fQn0KQ5l1ZhdsBMdlR3nib336b3d7Wg+aD9TEiDrpsXituR4SPuTXz/bfgyfoIf4udHStUaaADGlyRCkw7EfU6qizo217am1FzDslYaAJ78zg88dS5nxnPrATg22U5JxbxigzzSigCshciiIS1E4P7TDX3wh444TAWj/9xD110KuOMRABfcTBeioFPG3JnswR/iJ/ghnSutD/HAteki24igI8yJ5XENHdsrF+wI+96s0jQaMEq8OMs1/saItqhdkow5jff9agT0Xkr8FckwO2BnexCFMQ4IszHg9kDm9eaX9Mu1EsIF3uIm20EZ0ambvzqPEVy2h8mMkP1L3J54uaL/IriIxbJDgR49dnIDku6SN2f1Ir6mlebYAxZlu5fk/EynMgYgB9wRuMAdOeq69AthRRq4RP4yDaxwmEpw8QQNOBOHoxvNogHZKKldDHhWYC9IFVhNuPdiCLVS/34VpYk0CPwLdgS5vnAfWu7Bw42HV20PAMfWRQ/d4OiNv4l1N9RFOmnoKlxQFwHvetNKpnQfuqFZuojqFLqIe9JBwXL5BVQuFG89zuvfr6I0jQaeKyrXjhDJTXaR3YpwDTVTH9WrlaHGs4B6m/w6bZMd2/e0TQYZgHAGCNomUwnhIw6/0ia/rlk2mW4FnAu4GEwBkL3gesABOQbCn1kawFGDu6b2vNYF4pLtemOmLvqmqx/PIpoa+qavcu+5o6buIQ11vimVlccvjLyqmb4p3Gt0xGijw51FlBChC75gPaO+6ZMLmhIWueveYPJkj80NY7Ru4esaddETPwQGnxSjnazuOKjJoLOVy8ANUDx+NHpyk2M0qDI0Jof4gDEaA6DdJyMgrXX7GY/Raq3QRb5yjezZwD2h8r1sLtTI2pY8hshqlKvYN+GOvcq8n7uE6lwFtyzXuQoXN/ERvtDsXEUfky55+NwI1rqYjNl3BhMz0H1cTKz7HmJDwxpK02gQvD0j6W5uS4zm5hOSYo7MN9ZCAxLv6JxdYdtROTvX0YCL+pxdYVvTcnYGDLseH2Xwz/StpLYzQalpEJKBqHhGaKAR/0SZ2306/GhJ63HE4qCkdM+5Ec5RvVoZwL/HzF3nI76xjecu4DvMXZ8q932fNgBw3/f5tpa77sHX8GX+pCm5azyzAJ5gQp4kzMe8VO/SxClH0oDl6aQB/XHP4ZCFB/+M6xK4k80XPwMuC6GuA00D5s70WGaKKqWyZ/sjE2fLZWl5R+qhsTPNvW38AgxAGASsgd9XC9d8gH4Z04dQiVSMnjyythzG6uVAH9LFOWQMiZgmw8v87OD6EkA7Nnx+aGPxWoi56W4tJbwgbXCfyofD/cu/Wj9Ymtrga+eIO4F4FqeZcjUxWXS1ZfU0IKlN0/WUw1wBwlL/m18Idp65rgQA1GgckgFsDignnFQX82gIo5Zpox3Q9W4MYfoN3mc+xuF0DiN5XIePYPGwfV5VWYsccD8RsD9JvuTNB2ri1CCvN15bbwjH67WecWY6QzJA6QPj3AYEb2FIgP3m7sPSAOz8qB//TXng59xpiGjh/vFcKbP6smoa+AF3ZKqKt+CABQJOctq3RcrrLv7UMOG0Itpn4pqIhg0okgbhd0CJ2s0n/3Z9ICqpM/23TYMAeq6pI4Gqrskor14OqI0qevc7V+68wx17kUqNcsf/+iZq0DzbFAiRrt0b7eSETwbGQ8hHa+5s6BE9+bfrApk+G17f1Gu8H3yXiRq97Lm2N8kqy1powIwZp1eKPYuwpRXRvM9d9I5qJdDUVBpQ0QPLxRheqZR4X0+xrs3zjUAvIRo4cre09QNEo1UGbt0y+kpg3g03TubeSasuq6cBB6zoBwTf/oqzcwPcwSDTrjJDdU2sEaB5NOCevLC3WQQf0doULu6Q2iPpPrqkqKjIRWEkklZKyz9cJ/CL/ZLSPIGw+TN/Y4upN+iqIWlVpSENmA3mdvyqElS1GwpbzPXi4ut9japmMPYH+mieIUkNBweedfsarTvs74HMmbMdMpVQ/b/hPvo4cRbOeNNKAirb8njuC3x3KwwlGpSGNKDfoy0919mGaw50YoyrnhEVfPLdgbFJ0h22MewZrc3cg+l4AT3PhRuVJHvN9Ca5bHZB44bTO8JcFq7htWgUhv8blYY04K7kpKbiNo8qFDJXyRL3Tbj3oMSfz6lnZZ68oooDkl9bSvJ4htQwD7rJRPxswsx2OIMvkht/DNQH8NcDnoRGtNNUA2EhbRqWxvaAu/1A7YAChxeZ85iKwPGX5K1pmTqH62EzbUuFTu502cS9Z44XgB3KcMsRVUCQOKmMM7llt6sPr9ar9EkDqhLPAgOv6LM2poG2vXiiSXJq/xfxIJ51w/UydpJfiHHSRzbGM9HgG4Aj6pr4yw4q1WUyI4n4vNstjnLwfMer5UvX1iQADlLAqTfaOuhRt8alMQ1Q9GpPihEXh+tt4qveYq61un9AMjE3Nx6UEpKjbxp6I/+tgGvzz++RfREpDEAbc1yhOLq0Y4M88qBOooIOFRoDYC2AMKzkMDW2yXgKrQsuqdi4HxUI+w9/JdOtntFpZ3t4lDhMQpLToeva998BrOQW7pWUjtr5rZIZcY1ujiHOnCN/fYnYFY3ycKMV4I/LxHmjQWlsk/FfqzVPeJQ8t8J+7KC367WyD5qnm+vCU/1uLuIY2yU3yc2CjmrlLzlkOiU96HJ3a7Bgp8z0UDKybX7iJXL/LXpzYU69oVHmHqtAZcOyIg30DA7Ydeo4POeKt0hyc31T1goM9HMRHkaeb2d/PvwBxl97OsRAlNvPDZUBM4i/EjB9XGmT6oDSU8W4neIuNV6uS0ocI6t77DMPezZZb0x7YkOPUBrg2KxoDFBWsAd0SUFGO6jQzt96x9Lky/1i8/ZaNlqXEOjmJ9xCe7C3Xb76ZZH7D139l9wTNHO2N91LVVuMLh7o5X6SKXggE9wCmGOTvaoUkf0JHyTRc4eeVeAb/f7uTfK9r3DTZM60ASl+wUkyjWkQ7sHMn1dMXF0QDUqDx1iPv3bYxt3+ckPcFtPos9/7zkMQPt+U+x503/UnMnyiFDb7ByJ6u7q4ZDrMUj/nNMD9SEb0zk2A2LMwNtQzCvr89CaO6hD3dsDtq9eki7jauTZSZsl3/kUmXmUV9HyFo2pdI/BIYDyw3Sl0e+k27kYH8aXv5QaeKf/xI8+Iy+7XVYt9XhqhUFznhTTX6yypTtLxWNwnPfNZAC4PNY3K7g3y+ffRKBP5JrvVuDSkgarFxnNqwVvcs4EbIuQ6jr0nwtogE+dAudG+dC6w2a7iJ6iFe8g4aLTeKMZVpnzuw/7wy2RmCydMpEeddD/nP0N3FdqqhS6eI7XOa2DXAkCUAfuccMdOkccfRF9MWNW1xQcwKaSeU5VPfiTYe5Zd7OMODU3MCeeg1kfgXLv5bjG2Ozs3ONd/DjXq3fg8uti2duwemnMvL6npkyW3RSW3SXnQmellxjQczOG2jUc9+ZmFQr+dTfjgj73t7nvPAy/DqVlONRyzNKQBjYlry8MVd+QElR9XcEKMTU6meTa52EN7kB8WI8I9ksE+5+4F/j3fAuYD5aHpHlqODvi+ddMPrFynTMM495uFhFsakhnosQS3cat77DMNepozugavYSQYOUVu+bH4Syt7Ro1tslQWoRMuv4C8n9kSpDsBa5kv1AigWDLtkuzzMwlOp4XzM3iCe+etZBlfH67C+QKQhYooHnPL5O8XPr409EoxXsuoMD0uqahV3lT/2Gca/OkOJweM9ctsZzDT758breghrxVKi+3wQFVRPIKFkQX7uhRwuyhTbr4xmDxZCq2ybyLIn8Pjm5NN4zsOTIZjwnqch0M0MGVv3o36A5nzVRXt0VNHtFlSFEt4e/6hB/y/vNCKvlj2beIJMTmOmnGvezpInJHHIwfLcJygM3nnMNTXvn5gwchlYpLbLOnNzK3ueoP//e9w/S6jXW6Mhj+6jy4T29pYt1jCI61ELQSIhwNynMUxG7JhkO20pzq8/ECQ71AzMIAd3LnqqFrXDhr7VOvAfikBMjwycqbcfitTttA/IfvooQt9Vg9bzOk8aNpNt6rikIz/gTW7RVLdXnnQZtpqUPKjTim2iEiCvsMzQABCpp/HJxno3SSneua2L449l4vnlMyhM/A4OAg2p4+vF4falufG6iwrJ0swpAujigX/MfmXL8rYGVIcdpMJu9wGv9Avwzts2t77lABcaC+Tg8MgQz5qT3fIpVk0BR6BBWlAU3gCL2fzkVECcSzwkF0VhxHQN6/zR35fjE6zFGXuNtvKjQJSQ+SVwpba859+4Mb73XTYcn3wjhTi/KkN8qm/RXvBUBaxjO4toWfoUaikWritO7GPTxaZk8B9hAZWYI6e6uYm9fSp3tANB3l5wGtdlWuG5SOBipxiHd6R8oBMvk6+dJ0T0Ldm+l1vGIaGodVaKfEubsB5ZX4YevSqt/mRPxDjHO7vWm5nVmMm6pSHuKo71HVHVvo0QF6rIzDr9Db/gl2wc1YxWo22yKMPaB/DrKIPet4+Xhch36SBcn3FI5UD12JiztcDDp+9UqZe48+Owov34L/PAFmwnEN2s+dy1dAUzrWGUgIxzh2UsVequx4kXyh3Dk2Cr4RrpmB05kqbLTYYKgpNdW1178PB+TvV+KutYpz7iiCY39OlV9bX4Iga1101+czkj9AvynfTOOWGKJq7et0PXMC2u9D0PmM2bQlsxEBaDqiL2De9+w5N8+OPLo3/jiq28igmIAiaFw4vd7OHumiaLgqnPgDv4VQUqCMSowTPus2HQKS2ydzjWmzFAvuoCpopHjxWmCmgn5Nr6T04Fc44dhfJN//6bX9qs8xs9YwdMkvtpOFIGjwd5sGD3jYSkm6vzA7ybL8MnNT2IJOojp8gt9/p6FEdmriA42Oal6SFQhHoM1i5OxQz3daH/1z2bazmejiLZGY7RNsrD0uxl5PaU83rw/JsODDLkfNES30yDb3UKfsTUlli1pws44q9iBewC7TQYhj96yXi6AWkxBHbhLqqeHLV+7zRl/mZdjgUT5ChppGeDhqIMaiPyexBlKBmUV2fn9IjPMnTgj/ZD1QT65btcpiSyQiUFi0TnERBC43bB293R58rhUG7NC7TPdBrXq6LXoeB58YVtG1dlWuG0AZQWvX0UFzkozTOSdjnmJnvl+kti7NDlt7KUyOaOURe+9Cm3DqUdg2XPJsBnQldDo8D6PffWbk0o2kQkkFrJJLhaaEBtylo93KDTrq3dlRwqh06XEE4xk+SH3wdho5uDylAaUZpQbdgj9EHzhyGeF+2S6Y2eoWjHt10SEGquiwjrqC+c+NUeskeP3uOJOMWxDkJOWiXXV0ysVkO/pSoX2357tfmkxCps9xsp1XayudnJ9ziaFDsDY+koDI02mSmjYlxqO+65jUbbNAj2S3nxYH82kn6oWUGDVzXhp6tJQXuvuPx8VMksy1ciLu+YIy55aiU++XcUfqURtTJdQVGTBVGxehxswOm0S07XyRfuFYtPSJOyDGrKIjyOKHhur+vJF4gU92Sj6vsdpVsl9II6LGY6/dL8CDjNJv57e7TcM7PbEJSPfO7NsitP6XiYRPF0ps/hPaA+RloVe/TH5IpxJ9aoOoe0WxwEX5nBhCEe8mYMrqg6GC4/AODKtdZzcb8yRe7l1+oFh+nbDKI1I1eVeHaCEXhXvLk8lkZeYWbapdsB1dT5UYlFXFyQxzLg7dtIMDeWNe85gMcy1RvNXmOfPTd9O8gBMB4aA9AAD1lAv9tuXCflGBMBp+G8eHFHHgTHhGMFYxBK49T4pHZ3WZ6kzl1qvzoVqnSUeAcv3C22ioLBUdPkSIx8HrTzXBbH5/cwEMCs1tpftJ9aIBf0luO8WZ9C5sNg5LpU+UentIDVBP7mgKaBq7n6KOjYLFTXW5+E4cMEd3VP6LZkG7jNgT5USsfswrDLhyhUqvEnydf+gS3ZwHf613sOYGw6qw8X/PYxXPIZSYeVIHdxhMYHH3zWhn6PZnZ5B4YCPbHGEnld3C1ZRNz8o1ALyl0M/oQTXSKVrnGWpQDsMwSrASMQmHEne3idJXazPJ1BDvHiAyGUU9gbjOj/1M+eGkwf4iNQvv0key+j9AeDV3SKa3VFf5UED3g5wy59dxbxt0u/PBP/oXqf77se4MLFz7bZRuRpfW3yb7Ry/gR0n/ebuFuS06Y/0KhX6R5zDThGb33bX46IjMRO7et7hFNB2X0OMV2VZyQnSd7F4zIrfcASRbVDjhXLQLrjg9tzmgm8H/RSXvHKHS/8WOfkSc0ElUT1JLnaPUUyP0Py5/nueOXEXfS/c6s3gdgPQHuH9dvpdvtK9+lWwAJhRVmUzl+oAd60FzlfPsaGW8LChG/uP6yCQ2wp9PZt1G+8RWwakVveiM8xkcnD3lwwBIIQkZ2acFWW/ALWx8KZIlbZejAPpIoiO/Qc6XJ8qN/WzxvkG7I9LrP3VdlvcHf5Nnyra+jET5dBTYDpYV/dNyM9sn98xL9H5Id8Kc7OJsxHedpezm47Vz9W8kO8BCio55eg+SggM5luDoDksTPcXMkyA96xS4pQe0mYGb8VCwojiB+kakzneE/dD71rmBJ41frDUoAG7HOhWt7IQwMS1EzdwT79qeDPe0ytdk+MIrOigH/tY/n4EN7ZBLcPSo/LFNRHoIKi0rT1S+N98YyuZC/jRsIZdosrmiHg7PDTEWlGGGYNvJ8b+F+ijrqJubZIsgB51ZDcvWCD9u/4h3clYERTQdn8ibbOLM1k+DsYqjOQsO4gYM8aDqc2mLUzg9bxXa23hjmDha5NtPYJrPtCLMV6LTzdHnHBfIYlI/mBTTIRuyLMBh4Wb3tXW0hDWyema7YY6CCLuLSg/LZq2THmQHCqOIozKafH2LcXmj1UwPouFne6hmdQZonlzPUSjX23RH3FQZUrtsrDOk163E3zW3+4HpI+ix5/1sR4M8D+dwvmRvQoUWIDx5HU3CJ946YwT13msMvZB640IWgyWFqE/W1S2ZCENQ09lmdbNTfH9dT5LaD2QUAMSpv5nSg0gCDYYQdu14n5V7rB99TUgWyyfScfKMTc1QaT0thbeixWxUbl9BLUAKaFWzr0H1y5Zv8yVfZM636lOIejt2m+8i/sxFuCcZZ1lAJA06hsT5Id/mlATelJ0BCgPKDECmv2Gbme72h58gD9+ptD1HjnLYKLC3MO6IJcKLxSh9JybvfJPu6LVjLbMxDdJfrtY1xbiYG3dLYj1apYT8T50ZqmVboJVgUfUwol4+52SGZ3lrd+Rr5+rVwvmBj2WfyP4GZElRLg8RmrHuBBtD9hegzb0OaaMBNbg1VkTtuVhfNeGOncm0Lh4Zi1dkIT1LPDTH7lu2uQlk13vcC1tTk/Aegay/8Dr+8tQrlnB6XHdvlyvcxIaG1EPnPh6Fjh1us8D0DBJBnjjZw4ZHF3S+TJESB20rOGXHoMifZ50DXlxvLICRgBt7UiFMA2fUelMYOC03Zs1ENn+D/9TtkwYbCUbLIbDnUQFBBvx3ujAn8h7P1XWfFOSBNKbDJNPtAvlbHvmc6gQU1CB8MVgkoAIrIEN/9Nx58uvtsgeuc6wxSET+zQWa3e9lJMBY3pqnr/mFgXijVt5Tf6WW3gh7MXaeAxm3zM1vFOUQ/TenDR8kHOocKGsAH19MXoCJhqRgcefClf/IdGfh1JzMqhW2SibvlOOcKAKGw7EfVGoLJkKKbA23FIVhmx2hz0ttk/Cx580658+ec3xGYXNUMwacF5n/dDqIfTBm6j2jHehfUAhSgIuCZGRrgAbe4wEVRPHmehzcf2iU1J1/6rJr8XW9qi1XotTIjKt+qcu00DKXG+TQYEo6QA116G5NC3ITQRH5D7nkA9g8SD68b9Fb2IrGtfRCOo4E7q7KAlulRBHxtgZHS16+xh1uczLgYHUGqjwodqhAuTV2Vy5CPWrkxKbZ76fgiCLb7Deaek+SG77Ez/tJiEHCSjefRA0VXiQDcR7etQGMf79gg3aZ1LS48j1AhwCr6iARxdVhB8YMFXrBB2krAWjvV4OoPzEdbOFhf6uFp1/kYj2is6/4ypAYlD0PSvgiXMt3qGmPS2hLcc7sl86ilwprgCwrPpA4ZkTSAr4r6IA1AgwNfQS0SWXqQ7WufkcSvyXSHWQjtQSdPBayr8jAExU5oTO71vmeLPfZc+ae/VRz1Yi2oTfc5xDxMIHgPYudqyav130cJXcZ1L+w8FDBqZ8N0wbVuG/OzWjGyVXjhQU9agcpjd8n7L1WD/1v2QRtv8jPcTfeYEBijnDtb6FHZYUn1BInnyMG7+CwwHC2QfrgPqSMzhA1oOMcLVXN4+V8/7ww+T/b0Hyr02qUEF+GU26DueYqyAWWnNzqbTUBTMfuWPmd++IXexy6Hx1HL8OgFisd10cba9ZReCnbwHvWugjl6smQQNIRTmOJwOhkxQPTheZciCg56KsL9+XecMffHe+ThB/AIWqDGpSENiELP5ezrh++Wt2Rk6GWe0W/zVDYO9MMo+cUhDtEhIICR2LtZRn7LvOKN8uB9pDNqBL1peilOx3VBbxBma3k1hVMMlPzsh/7Fe2XsdJgHTsOdjsreQciHzdgCCnmX7Hu1GnmZfO1qnY8GJrQL0Lg0nuuobPos8Bx5HHxFbrpdLrogGH2u7NpIlx8+w0xrUO6vpjbOTb5aLp7wfvo91EUdW1mQoAJhO+5FICyKaVfyIngKzpsbetZKfvAt8+KUlzhRdv3RktHpIp6Y3uoPv4gT1P/pE7J4CGEAc+YMfsOXhqUhDZixATsDp8oy5RDXM8B3vu/h4Mufd99zgcWzw7ukPCR//T65k7xPhc+cB8+EQYU68azHeI/3go5xNgT1uO4SWMvUSgL9dayDt6gvfFo+9Bfux99nf+sLctdPffg3juPAzwCpPFkExXhODvV6o9KQBvwp/9KSW3glQRZot0GSqsesn1uBc60jC26BrJvlo7loM3x/sRdg5/H1471os8n9QKrAuVZN5KwAOEVAww/Bc/zD3AP+0swCI9RdcHB5aBETuERe49JYF8Ev00l3VgQ/TTEF78Kgs8aK5WtegIzp+aBskHZ7NDH0kgfKkCXBIj88nst8yP3oNBgMKAZnondUTfyUw0SH36oAXhX3Iud7+H2hBvNdO/ARFzQsIv8JAoQ6B6z4xqAAAAAASUVORK5CYII=;fontSize=16;fontStyle=1" parent="1" vertex="1">
                    <mxGeometry x="669" y="271.5" width="150" height="150" as="geometry"/>
                </mxCell>
                <mxCell id="5" value="&lt;font style=&quot;font-size: 12px&quot;&gt;Redshift&lt;/font&gt;" style="outlineConnect=0;dashed=0;verticalLabelPosition=bottom;verticalAlign=top;align=center;html=1;shape=mxgraph.aws3.redshift;fillColor=#2E73B8;gradientColor=none;strokeWidth=0;gradientDirection=radial;" parent="1" vertex="1">
                    <mxGeometry x="524" y="469" width="80" height="80" as="geometry"/>
                </mxCell>
                <mxCell id="6" value="EMR" style="outlineConnect=0;dashed=0;verticalLabelPosition=bottom;verticalAlign=top;align=center;html=1;shape=mxgraph.aws3.emr;fillColor=#F58534;gradientColor=none;" parent="1" vertex="1">
                    <mxGeometry x="737" y="469" width="80" height="80" as="geometry"/>
                </mxCell>
                <mxCell id="7" value="Glue" style="outlineConnect=0;dashed=0;verticalLabelPosition=bottom;verticalAlign=top;align=center;html=1;shape=mxgraph.aws3.glue;fillColor=#F58534;gradientColor=none;" parent="1" vertex="1">
                    <mxGeometry x="627" y="472" width="80" height="80" as="geometry"/>
                </mxCell>
                <mxCell id="8" value="&lt;font style=&quot;font-size: 14px&quot;&gt;&lt;b&gt;Athena&lt;/b&gt;&lt;/font&gt;" style="outlineConnect=0;dashed=0;verticalLabelPosition=bottom;verticalAlign=top;align=center;html=1;shape=mxgraph.aws3.athena;fillColor=#F58534;gradientColor=none;" parent="1" vertex="1">
                    <mxGeometry x="836.5" y="449" width="120" height="120" as="geometry"/>
                </mxCell>
                <mxCell id="10" value="Hudi" style="shape=image;verticalLabelPosition=bottom;labelBackgroundColor=#ffffff;verticalAlign=top;imageAspect=0;image=data:image/png,iVBORw0KGgoAAAANSUhEUgAAAPMAAAClCAIAAAAGQ1yCAAAAAXNSR0IArs4c6QAAAARnQU1BAACxjwv8YQUAAAAJcEhZcwAADsMAAA7DAcdvqGQAAAASdEVYdFNvZnR3YXJlAEdyZWVuc2hvdF5VCAUAANNoSURBVHhe7L0HfFRV+v9/594pCaGJbe2QkIT0AOrudxUSQGo6oCC9g4BKCSE9IHaUDkmmJQEsa1ldu2LvCEjvvZNeps+dmfP/POdOQkCx7Bf3t//vy+vjcKfklnPe5zmf57QrsKu1+VpZqw3v3F6PyyO7fB4388mMuZjX4ZXxiv0Ww1v6gdfjYT4v87XemJfMv//n9uf227b/BNmAVfZ5PZxgwG2TXfU2S4PTZpGdLXwrZKMA/En2n9tV2f4AsumF6CRAm81LfANfZmes2mk/brHsabTvd/hO+NgFxmoYq2OskTEb/w1AB98K4s1I0w4/4G/Y/Ffi/4dbq4+54XpgfN9/hcpv/tz+z2xXiWyAAXI5LODPDQfMPC7mlqFEmOz1wrwur6+JQ3zYbtt0oa7gq4M5m8+UnvW8ZWefONl2HzvG2Dkvq/OyJo+33mmzepwWt93lk2WPB1hjx+l1O2WXLMPvXyw10C84OBWAliuhYoTroKqCCgi/LP/HzeLHzQ1fy/Q7r5fqhV/b8IuL5/j1n/+5/b/drirZMHrxAWsnk53M5WYuH3P7vBAjIJu8cjVjB1yud2qd95R+HLr2yz5vHBz/TXX2Hpv+AvvIwbZ52CEfO+Fl5xirZQwlwUEI4u89MiPzUDnBB6CRG1UGdHL8Q3sX34Bs0K/8AHaR7Ba4m7Hmx6Si8GsbfuH/0cW9P7f/2u0PJNvFXDLEBTw4mPT6gI+V83pU9nzQyAa/eaTTyh/br9rZbsX2G1ft6FlxZOymhuzNjtWH2Cvn2Tcy28fYKcbOe11NPpQQ2S5bXV671+fkWOIkOBkhi/9bMIXr9X/VTHyrDe/wIf+B8hfktaF9FMP+n7D+n9quHtkKNpwsrkZAttuj1PlENrlRu481MHba4/vSwaZ9bwvZcPq6iuq2ZXUBJVVBK0/etuZ4+JoDg96oGfVRbd5uV+lZ9rGT/egllXKGsSrma2ReyHQuxBGSwtd6cFQcHedCQeIFiFQIXQ0pczoj/UuihRQ7FycwiBkYilxr+5Ps/2vbH0U2OHOTyAZDqO0BIf0G0sTCWKWP7fCwxXsc3TccDlhxWFhbI5TYhXW2Nmsb2qw4H7jiVNCKQ38p2RdVsTvt3SNzNletOsH+UcO+BOUyO4SCwcU6hIqdTiFDynPDDjWzKJ6cXw/HvsWIacWdc49O5lfqfvtz+7+1XVWyOR74lztG0AQBgl28QBPTF3gP3Qy3fYQx4ylvytunO6w+ojbYBDMT9Ey11iEsq5WMLpXJIpoqxbUHOq3bHlGxb/CHjVO3eJ86zdZVsldt7DMf2wlJwx15JfNC4TiY10m1BM5I51E8OQea2hKplPmxVhpamknml9Rs9NHv2vht/7n9925XiWxsyGvgwTnhHhLBmexrIZv7UtrlQSECxPcsbPYPjTeWHNWZ7YLRK6yTpVKXVGJXlXuFCrdQYREqanWmU+2NJzqUnOyw7thN5cfD/nEi8f2qCZsdTxxlL9axz1xsu5cKyVnG6pkPfOOMpJhlp89lV2QGLsBHqOPMpFRIrHDzA42rwkd0eRSP8qbFyzeltfGi0Sf8CH9u/93bVSW72XfzKp+TTc7yos+GgQnQhzjyOw/L32u/qeRAgNkqmDyC3qM1ODV6m1jhFTZ4hDKLUN4glJ5RGy9IpbVqY6Ngqhf0FzTrTt5oPPnX16rGfOUs3M/WnWIfutm3MtvLVUodQ5DqdXhdTo8dEl+RQUobCjGM8yviu/liONkoiH74FYz9RPPtMqxbH+fP7b98u3pk862FbM4wx6fVrkI/vCQEyTbGlp1m4RuPC+vOgWZVuU+rtwQaLVKZXSi3CxVWoaJBMldqjFUaQ5NKbxdgZrfW7NKVNGhXnG637HCI4cTfXzk74tP6eT9al5/wvFrPvvUS4sd522Ij8zhIiJMo8YJvn0v2ONwuG1UnuCACnqoYoNrcPo5NcducZy5YWgzvXR6PU0ZRaX0rf27/vdvVJ5v7xNZk44NWZPN3iCMPMvaild33YV1AyUnB2CSUubTGJq2hUYI4Ibit8NlqU7XWWKM2WFV6p6CH/vaoTV6NwR1gcLczuzqYmjqWXoALj3jpVOLbZ0Z/WVVwwF58nr1uZV97qEXlAke8nsJNr83ndvmcCGK91L5CLTY+r6xcosvDHCgBfrL9hgttZpp2lMtHmYApcOPDP7f/5u0qkq2QQAZgLrKMdxe/4eaFJiap/QVjD+2Ub6k4odKfV5XbJJNVNFpVZTJ8s1DmUJVZ1MZ6jaFBbXCIeofGYA0w2gJNjgCjM9DsCSzzakwuobRJWFspll7QlZxoX3Lw9rLDPV87nfa59ZEfXeVn2b/Oe75qYgc44hAqTcznZG7AzRgQd7o9DpfHzYU5c6Ig4j8f5FML3NTTg4v10A7dCYCmX1JvKO3jqz+3/+bt6pKtMMCBvmiXbWDeC0RquCB58iSLf+10gPGMqhxuG95aFsp8gtkrmF2SyQas4cXVBruot6tNVo2pSWuy6cxOtdEFFw51Lm1gAviucKkqEIbWqYrPa9ae7qA/F2w+3f+1E6PfOpq7pXFDNfuakUqBFz/PW2asPNzk7SYIM4l0h1f20KgtNy6tNdkwKCv6wudTyoTDS54f5eGnN/bn9l+1/RFkXwK08qaV3yZaEFeCsP2MGarZfe9dCNIfVZXVC+UujjVgZZLRrTHatPoGnb5BY7AIBogTJwgWKtyq9R6pwqMC0OAb3t3kFMxOiBnNellXIQeaXdoSq251VZuVRzss33tHyYF7Xzs37ktb4V5WVsU2udgWD9vvo97NSuarZx4bkx3M5SJiXQrZXjDcTDYPGGh4gJOMigHKJHy2C9/57+/P7b90+4PI9m8tH3H/p0gUcoLYd/LWurdsbNw3DdcU70GwqFoPHUJkiwYGMa0z2LX6JoSPkCiCySasdwsveMkq4NddotmlMjqEEqtYLgvYMTrJeRvdEOJao1cqcQjF9cKqs8Kyo+plB9qv2NuldH/vV06M+vD8qjPs1Ub2pcx2MXaSe/ELzFPndcqkvF3gG2R7vZAlfrJJj/MuSofXC/yxQ5oE5Ptv8c/tv3T7A8lW3kOS8sALlIAVpU2Z5Cx+0MjYZh97/AgLNu8ONJ7UrHcI5UwyMbXep9ODbKdksAsmB5QJeeUKp7BRlja4xTKnYLCJBodkdKoANLA2OaX1Xu1GJprdcPY6k0cD9WJs1JobAissbSqadIZqcdUJ1dK9uqe33rZ6599fODRu0/kn9zlfrmXv1rMvbYQ44srWZHu9HihskO1wI8KEvPbWWa3VjU1NTjfKJNz2n2T/l29XjexWoaJ/42/87SRguhlrIpua3mioEw17Wt/I7v7HwQ6GowHrrRrQCbINTEvN2y7RAE8MpeEmuKHCTeS8NeUubTl8swumKfeo8C3ghgvHjsEB1rVmWW20q8ssKlO9YIA1qkwOdZlbjfKwtjpw3dmglQc6rdgWv35fxjvHJr6958lvT37TQMXM43UAbj4y0QOywTfEt9XpsPF4d0e9a8t5y6FGuZ4LbrpP/w0rd00fKHfdXLj5h8o3/P2f239yuzpkI+MU96x4aLyS96aGYeUDqsBRmYMbfIkPZY/D5a6rZ46dPvaShaV/UnOd4UhAWaNQ5oHIFoxMMvjUBpnIJmoVIz2t4sblh2Ic/damOHKTXSi3CeUWldkqmhwi9IkBVQFEjqw2NAWubxRNZ8W1e65Z/n3nJ95JXfneR6ft9XSVFj62iveU4gbost0Q3Sdl6g96bFftgk+OvXjUvaNePlHTCH+O3zhll8vncnscqJO8brh4fqv8nkl6tUiwZtj/3P5j21X02f4cVNwyMtRHTtzjRa6Tj+N93UQ25bfTbXczRzXz7GTsdZlN2Oa9uewUyBbXM4ogYSafaJRJSYNRM0whG7KE22U0/4zZhQqYTTDbRHh3g08DrPWoDXwUepobhYpadfmZ6/V7287b8PBrO7+t9DaQmLZSfyVHlreMOLzMZeWR7jOnWMJr++JWfz3hjf1lW49vP13TZCFkuRaHayeYQTb+CnfIx5RzsulovI3wT7L/49vV09ktaLc2CrQAuSx7nG4ZMRh3hjwmq2M0cO9bxja62eS97JYNFzSmBqHcI5QxMmr4gwhx8F4bvML+PbIdIFuLeFQvw9QGN4mWsibBcKat4eDNz38Wu+QV0876Ex64azhYFD+6EaBIjdY+p53JcNhfuNikb+pDSrbd8tzXf1vz1cwNn5Z/svXgyVqHHXdF7eI+akWEFPfgVnkhpiPQnSqRhT8peCr9uf2ntqtENrINmdlircgGxmDaJTv9LQwIHL3UIgFH+CVjG6ws9zgb+KX3hg3V2gqrsMFHcJd7SVsTyrw/Eju038oQVv6K8S56mNkpmVw6gyNA79DpHWpUAmVOsaxBV3q87TNf9Fj+QcGnh7daqJHbrnhXXtvAA/OKRoZE2YOyV8sSXzv9l3UHbio5EL76h6RV7y+s+GDz4cp6q9vhdHpk/NbJoLV8Mv6eFAylBy/oIPtPrP8fbVePbD6wT8lIwAFMFDVC7cWU3dTMBz99hlHU+DUCRyt78gJ78NvaHq+f6GQ8oi49I8Bnr3cL5WAa8SLkB0JGOxfTStM1mG7W3Pj8Vw2evhx/4paMINsWYLBojRa1yUqdnaUXrlu7L3Tpx7mfHvmuiXrg7dSQJ1MxhHT20ERjmJX5cLUfe1j2XhZiONG++Fw7w9lOK3fctezT0avfefnbA0cu1MNjkzT3olxAtuCNB2nAHTbunetspIxif27/2e1qkQ2WefsH93mK3yJ/5XP7PMBGRgVdxdhhxrYw9qaPLatjIzbX9Np09rb1e9vr90nFxzRldXx8H3DkCqTMpoJENtokg1PSu0WoCGgMEtzcTLZfM5DtokJikkWjW2u0aY1NalOTZG7QVTS2KznZ+fnvZn5w8pMqGnXonzAPtcwHB9o52U38ghEGrDzDBr5Xd82as0EGq668Qbf6YMjz3//Pkn9mv7Dpo+0HmxwyjaiSrcwD3Y16CXDTCBRKEJLq3Hfzd39u/+HtaulsZB28lUwsc1DwCgdGEZizweJzXuCUvOVhz9ezCfvZPZ83dizbo9HvEYsPqA2n1WbEcxbB1CToG8C0UGZVmS2i2SoZ7Gq9U1MqqwE3NIaZIkIyav77ZQPZ8P0elckDsiWTQ8KHZSC7Tld6+sbVu/qUfv92FTvuItXh4KVRGQ6CqgZ1C5ww9AnCgA/cbOpWR+eyMwGr68QSiCKrxnD+5jUHwx77YGzpuyUffnumzs7FhpP5rDKzuZkL5ZuLEF5zcaLx/5965D+/XS2ykY3IVBfY4HMMCW7kto0iRd9J7qpfbGJz9jv//sH56144IZpPCsbTgul8wMYmdVmjaGhU6Zs0ZQ7JbAfTZGVNKrNVZbSLBpek94gGmfvs30N2GYJRr4r7bN4egk+atOZK7dJttyz5YMF7hw/7WCM4dqE0wmHTXGSUTfDHS6YMX/4DY+V2lvBuTcCqk9pSl1CMiNauLmvopL9w27ObB65+b8GGd787dN7qQHHGX9qdPguOQpqMmkQUsv1Y/0n2f377N8lGhctVqX/zUPDk5BrVJdM++UK4veOM7YZUZeyJE9b73t573brvgyCpy2sFYyPEhmSyI6TTGpw6vTNA70ScB9mgNsFbN3FlAi8LZQKevILZw3V2sxppbZfrEMXwhx5IEY2ZN4rrqdFQu9EhrTrUZc3WWZ+c/aSSVfkLIvU1km/FRbvhs73QFg7mPuqT3/awqdsbbtQf1pU2COucQgkqAZDdFKivv2HVofil79+/8lXzJzt2H69yydDoDqQAbp93QnFZQ9oMQpsOrATVOMlPjY8l9Lk9MuySr66w+TPgz+3Xtn+HbH8atyKbN+eRs4PHcjNvo893zku1+dc+9oKd5R73JLx/4nrjTmHVXpWhihMJ7Lyi0ac2eLV6T0CpHFjqDiS47RojyLag3uddLU5FVJBRe19zBNnalHjxcnMCa1W5L7DCoy61qs3OgAqntvTCtav3jP+kasMJ70mUQvhoXDJvlHO5vRThQkzITmBt4WHuskpv4qZz7fVnpVK7UKKMLrTi2iSDrf3aMyHPfdHrmddyX/7y3W1Ha2xURuCwXQglQTZNq1fIBrWEtRJaXwJuK1Pgps58vqPYlTZ/Hvy5/dr2u8n2JzDf/FR7vT6aQu6CuETeNPho4tYuxv5pY/kHbIn/Ohz6wpE2xQfF4tOqkmoNgkK9TSx1qowMJhmYRu/TlQJuN3fbIBu+nMJH7rBdfFwrsJY52XDbP7GLLX2tzaXeyMQyr85ol9ZWBxoa2qw7F/D09jtNe8zn2E6Zpj5QEAAny8lzun0uh8cr++yyo5F5Khn70svGbam+eePhAH0t4lfBSH34oqlJNDapjM42pbW3rtoR9eTbI4s/WPXhjwdrbaijoK9dMsjGvwrZHiBK4P4a2S7ZjVfQLCP9mt/6k/gnm5ILf26/uv37ZPuhpqFDYIICJ7gaGx/mv5WxFyzs0b227q8caLtmp670jGhokIBmqYMG8ekdAXCoRp/SkS4avWqDB59rDE6N0QGDRBFNThWJY0gRMK0YHz3yUyP3/FOjcX9CiTXQaLm+vOlGY9W1z+0KX/b9rE1nt3ioNR2i2uORIbKp1Q7OGnUNdnw+O/NUc4dtqGQ9/nlYZzgq6RtVBlk0u1WIARAPGJoEaka03FB8tOvzX/db9dG8l7/85PD58zYnhIiHpqcp4SMMKUKNnyAbdiWynW4aEosdYN2yQ19dYfNnw5/br23/Jtl+qDnW2Ehle1itl51g7DvGnj3uGfze0c7r90lr9mpNNZpylwTtofdCrWoN7gCjQ0fuVpEZcMlAlqhVmZ0AWjK61GRutVHmr27JiCgQEaRb+D2mXu/TlDkDSmvarTp27dNb41Z8n/NlzWbZ33rNUfO4fT6nxwclAbLxCbDGV+cYjRKZuc12rWGfZKxUGWyiSZbK3WKZQ2W0CgYbyozWZG+37swtq3Z1X/n5sJL3DV/t3nmmysbHCBLCZEAaoBLVzXt+mXGZtchrv6vmhs+vtPmz4c/t17Z/h2w/1M1YY7P7aI7MMT4B7PlTrN+/jndctU1cd0Qw1QlGm4DavMStMnhFg6w1yWqDXdBbSUiUQUbDeJcKjPef89YMj2QgR642ENyS0S2a3Jxs+Tca/dhgg7Zua6xt99zu6FVbZ7538rMaukjIBnADrYBIEfrJ6aMRfVxmQ157mnij+5rzrNfb56XVh0XIfaNTRBha7lJBHUHnGFGZ0ETjgJLa64uPha7+rteKtwre+OLDnYfqbYgdFazJ9yKdSHNTkQHc8MN8WOxPTGEaO63Jps+vsPmz4Seb/+vfvPn/7P/u9rvJ9kPNNz/XHk8dbyP7h4tl77Mmvn70+tV71StPqhEplnmFch9vpuD4muxwfnCoxIoJkgNiGmEizC5UOGgENr7lwSW0CpmJ2jeaVQeQxdvfZIBPNDt1ZdY2pReCnvg+/R+HXjjqrSKGeNjo4QsFwnxuJ02fQT57LcwKhX3ex751smk/2G5df0IovqAqoxZDeqVCCNEPxe+RzPDZCAms1+gv3LHux+7Pvz3F9Jbxg69OXWhQBDUdjv79TWTX1tdt3vJDTV0t9oGboklo/wqbPxt+svm//s2b/8/+725XIptyhxu5kJYN+3xNX6Q8rR3s9pK3rucrNr0ks5n77TEb97RfuTNg3Xmt2a15gQk0T5HrDROcNKpyiwpBIRfNyrxGNQWLfIAHyF4PuPGtR0WDTn1w2/DfXLQAKYKbPDH+1gSX7IFfh0DHLwWTMm/Sr2fwGxUKBv5Q36AqPnuD8UzXZZsLv6naYSdtzVx2vmQUBXdw2A7EkF6a3QtrZBZ49O1O9lI9u+ftGi1iAyOuzUuF0Awpwsd/o6CWebCvNjvUBlsbfc31pYeCl30ycPnreRve3XbgtNOG8JHSjnAm2Pi/nHOQLfugf0iJt8y/dPrYjn2H15SaDxw9pfyOxvj6ALfHi6pRYfDSTcmIVpuSRVzPc8mD3+B/5aZ4t7BynJYc9X+FDy7+7c9Yc+3jN/oQ/19yxp+3lu1nP/y57de+//e2nycbKcBbe2FICP+GRKEx+eT5nHiBBkHeIF7c7mOvO9mQDy/cZDrStvhkhw0OoCDo3UIFEyq8BGs53DNNgSFdQf0mFI1JpjqtqT7Q5GpTzqT1PnLYG+zCRqdQag8weNoZfNq1Noom18s0CJsmtIMzK1csEDYuSS+rS6HdfYKBUXscHH9Fk2CoVUMzlIBFn1Ber9UfiTQfnPNF3TY36RAXLp8GUtMN4X+Xz+1idpm6xCGvZQtznWTsTTd7+CALKj2j3SAL6ywIDyRII6PMDaLIqTKj8uG9pAZLoNkaZKy+btWemKUfjlz9Ztl7Xx85dpqe40AJRe4aZ6Eue6QnBD2NCfO4mMfmkxFnQ9DXuNjWQ+dynlw3aNjU0oq3T12wQ464aKkIt4cG0PK2FQVVJe8v5YQ+pi+pGNCABuoHdXvcUFv0VyhhTkSnvMmelzX6O7oeaqjx8IXpiHMPzdzzVywer8tNf05D15BQlFY4hg9HdlNdgr+ic9Ff8cNzNUf9ckqJ8l8snYqu0H82PoCISpFyAfSNsrW8h+GHF7+4atsVyeZYN89k5VcAN+KiybnUpuVyWxzMjWhsP2Pv0uIK3tvKT2pLKzVGiwY0Q1hDFWxkwnoPRAiqctHkAhnNohnK1SqW1amMdZoSp84IsuHdZeEFh/CCU2V0aEsc7fRykB5xpF2qcNPQP96JyMmmoX8qFBK9W1PqlUr5YG4jHHaTsKFJRYvvWES9R2uWJdOZjsXbx39W/9JpdsTFrJQhiHTtLdkse90ur83NHLgjG/PVMM9uxpbXsr994FTp66keoBZ3aP0Ww/Wj0EI7WclQ55jtoqEpaO3pLss291v27uP/+Pir7XubLOAW+czHweIsoI8aRWWXx+VibifNKfZZ+CooR+vlFz/YMnRK3l39xz2at/qdj3eAIDfCWdnu8dqVVkPi5adk87d+sglcxKBu2WX10bL5Mt5QbUARBWCnEfFkXoqScXx8jguw0TLQRDSvN+hqaR+1MNXFNJNIKQIemdYe8vLfytSyi0viZPOSQFdH45GVy/RfLE9d5VrpN79ONg6m2MXvrs52JbJxc7wlT7kL7n+QZA4a2Aan5Lb4nJCtRxh7n7HRX5y7w7hLu/aEqG/QlTs08JqlFkFvo+obRFIDCG+QhvYF3yaH2miTwGgFdceoDB7JBDqhxV20LtR6q3aDR613Bhhk+HKS1/hcWXqB9Aact4PM5OBu2yPpvWozoyVKTBb8ubTBIZXZNAZnwLrqoOU776zYbThHnaCVPLNBMF+IDWlNyQhF6/K4+drEzMoHIX7PWOZBdrP5lFDaIJQ4xTKmMsBVN5NNJZOTTaWLuj9VRoTCtjYlNbev2n/nM5uml7674ePNRy/UuLzIZGos4slGueqhBhBgQctWNfo8VbL3rJN9d7i6YNVLdw6a3L3fhCGjMgueKauzM+rIlSFSqDUSqe+HRcFFuW7F6LDK5pcc+AznamaXRnQ1MFbrY5VO7zmL53St91SN91S973ST75TNfcrqOlnvPtPgPdPgqbSyRg+VfIuXj3lEfcLXg6ZixnNe2SEKfF6n7Ha6nSinNMYeJ/T7aW7+e1UuEC+cfrLWn7faWj66/Iurs12JbNwST066Ib8hc+xUn7qbmKuSe+t/Odm8PZ6/rPmuneGIrqxJKnOry+xqs1VtbJT0tGSZirzpJTMJEDVCW8Nnk/CAvC51giGh1EZjocrrtBvq1foqXWmdVNyoMcuq9QhAZWGDl8g24RUlxMF71O3UZAHs9LLGKGup5OBzikR1FQ71msqg5/aHrfhhzpfVXzvZCR9lMyJFFEvOMe6D0ppqX5nGQSHb4EFRAF6xs6QPa6/RnxZKIGw8ggFiHZUM1IhiNLJKxKlxLogimlHvEAyuQL315nVnuz37fcrKDxa98vmne49V2SA8+JBW5Uxk8IUUtkKK4GJqfOy8h73x3aFphSUx/Sf/NWV2r4yH75+a/8Pe040uFEKqFblm8JMNt63kS2sI/FzD6GdURVQ1eStt7IyVnbCy/XW+vbWuHResn+09894PR179eO/Gd7dXvPtjxftbyz/8vuyD7zZ88GPFO1vN/9r80kc7P91xdtdpx/EGdsHJqt30QBWUCqRJPXb4UnVNPmZDkaMFK5qTj1+Dl5w4zq9cI+3hgrkbx09gfqz5b1tfe/OmfPQzX1yF7YpkK8WULkwhGz6EyjSiLrmaefcx9paDjfuy9qa127VrD0imGjUoRIBlskrmxoCyJq2xiXxnGc3Y5RPA8C0cMBSFjTeJOIQNpL8Fo01nsAaW1ASuPRW4Zn/btXuuWbvvlorz7Qw1akOTCD1Tzqmlzhdah0RFSlcZMQK2aHSrzkhdPDy4dIG2oHKLbtmBzsu3zf2s9pMGapxu9F8+yiSggWYk94lbRPIDPrhHOOzTjH3gYAv32G9duzNIXykYUOoYyFbpIaJIZIsmmDJm0KGiCsTFl0BBXeHT6t0dixtuWXag5/NfjCz+wPjljr0X6nAuSjlkNSUmwPR4IIIp9aj787SDbTtrf/TZDd1TH+6eOufujPl/y3j0nrQZK8rfPHKhAX/r8FFlglhTqewBzk+zHh+RMuCGzDp0uuGVD7as3vjJ46XvZi5/dVx+ydC5S1NmPT5o2qLEMbl3pc2NHTg7asDMqEEPRSZNjRw8NXbw7JgBsyP6TY8f8nDfMQVDZz07av7KSbnrnjK/v/qVLzZs+vHtLUe+P15/xMLOyOyciy6bJyBzeMiQpLg15ez8SpQChgsmQ2or33P7GWwVmFvbVd9+iWxcPe3xy8OFQ6tZfb465j3Lpw5k7bZHbjyqWX1EbazlQzWoRUxVhvq6SWNq1Bgsar1LAw1tBI4gG5oEWoI38/lbslGnWwKMdR3Wnu60bO9Nz23ptu6Huyu2D/u0euQPvrvfd3Uoq+VN3aAHrx7C2ohy4uJek5ONSBRkm2RViR2+UyqDC28MWnf61jW7Ml4/+k4lO+lhDbhs/4RiSGqa1MVVFgEDZHgtREOjdnrZuvNs0Pun2yzfHWBoJHVEpcijMZOr9ke9dGqnRH1J2OeLnJR7VGYmlsqatdb2K87cvnTrXU+/k/vPb97ffbQOigTFiQsFtwdhocvtceJKoBNQkI40sbe3nUl/9PmIIQ/3vD8vPmNBz/S5cYMmj5v3+KYte+EgrfS8TBTCi0t//zT7W5MN4N77as/U7JV/TXk44r4Zt/eecs2dowJjM9rEDe3Qc0Tb2PsDIobrwu8PjBzRJmZEQOzQwNhhum7D20aNahc9qn3MqI7xo9pGDw8IT9WFJXXuPSFy0Iz/GZmZOvvJR59/sfidre/uqvzmWNPxBl+1g3RLk4dZEHc3E6IYQMZFAmhu1J/bzPRPL5w25dMW9pWfXt3tF8hGsvJqhp8YV+rgFdNxDw1Jfe4Ui6nYHVR8tM16u6rUFlCBME4Wypp7NAw2oRSfe1SlPjXgJrLd5KdBM3XKgHKK+dQl5zquOnD7sm09Vn43dOP2vK9Olx5zvGJhG1zs4cMs9B/VQkk19/QwWUVzfn1KAHqx/xwnxasB+7La7AwqqWz71JYBrxxZfcB9DHwgy0lFo3q3+7xwNAQKfDaNWPUi/KdACdrgiJd97GbTt9Z3e/lEW8N5Ccia4bCpNV1T5ieb+jWp2RFYO9UkvlE7UfujaPYhYBWKXQHrmq5deazLE5+NKP1w9QffHThf44KbJn8G9+t0uiFccUoqSEjDz/dXZ6/7110jciPSsmLvL4zJyI0fmhWXPLP3A7OWml87UtNUL9MALQ43GeBW8r519l9G9gffHU6dsrhdeJLYeYgQnKbq9oAQNlSMGqGOHilFPih1G62OGKeOgo0Ro0fgcylilC56AkwTOVYTNVrqNkIKH66LGiGGpWsiMrQRaerwpMCo1M79pvSf8fS0J9Yvf+mTVz/b9f2h2iM1vgt2GgCMIgppzq9ToVwhG1UTxaucGuVCW65b2SPD/wpXvEiQ+X9y9bZfiCDpKRn8Wkk84epRH13g8wJfd7Lhn9ffZD6uLq0SSiyB5QzBnJpaMHgnIqgl5jzQITBgDeMt0wBU8dagxKYrPttp5d6wVVsGlm2f994R067ab2q9h3lUupWxNfXs3rcqtWtPSWYHde6UWEkM8KYVcpkGvxHZpU4VypXZrS2tu2Ht0esL3p372dmvbSQTeWK5fT44SqgAF58wr0htN+J9r5faDaoZLS/4spvd8/bxdoajWmODUGwTUM9QWXVTIwyRTeEv3Rr1/7s0BgSUcOpeqihoVSoocp/W5O2gb7j5uZ33Ln13wQubvjp4vMkJV0A56PO6CW7ZbfPQpdR42ctfHEye/VzM0Oyeo5/sllEQPbwodlh2fMac6EHjx2c9+cXe4xcc1M/fAg3gVmp3goJnELYWrBWy9551jstc1T4iTQpOE8NGBvWcro6bqO0xWYgao4oaJ0ZOFCMmqSInClHjVTFjYRKYjpkkRU1URYyTosZLUeOkyDHamHFafNtthNjtAV3MqIDYUZqoBwLiHrz27rF3Dps3cv7yxfr31n+059M9NQeq2XkXq+d8K5fK4YYrdJMgpytqxap/l1JDMaRMC9mKy2/166uz/TzZ/NwI7m2odtx8tonVS218CLP+6WSjP69tv+xH1eoTGr7mQUA5HDNynYdWIIBCPdLEfjN6JWhWeNwyH7VMG6xihb2Nqfq6ZTvu0u+Y+NaxdXts30PMcfeJNAKRJyDiZTZpsyto2d4gikcdgt6mRWxqtIkGFzXqGX0BZqY1eUSIHCpF0NmWNmuOBy/fPPvT8184SDfjUF4fIjky3tZLHhDqgJMN1uDCfZDgRxn7iLEFR+zXGXZqzJU0c0e5bDOVFjhpgCtRv6bSFcrJ1ns1enLqKFcao10D5W32wsFr9fYb1pyKX/rFg2veLv9s8/7TJ60uq0e2e6n5n06PerzOw7afts9YYo5JnRuWkhWanh+aURgxvChiaHbs0PkRgyZ1Tx6/dP2/Dtc6GjkdMPyxw+uBkoGL4UC0hGz0XjH87EwTM7+9PSxhqnBbkiZirBA+ThUzSYieKMbAJknRU8SoKSpY9CQhZoIQM06MHidGjRejJnAbD9DVl9h4mMZv47TRo4Wb+ghdB9/wtzF33b9wbK7hmY1fvPXDmW2nHKetrJ43reAaOKZul9uCd1DesoeWYiH/zDfeF6LATKG1Igf+82TjXFZZRs2JoojrkAEKIPicodZuinv9fEDJWaGkQTQ41NSW5xCpMU4hmwbx8RGq3KuBPLNXqmDQo2ozCzA5Aw317Yznr1+z568lW+d9cvbVs2ynm2Yc8uEcSAWnXbYpg0gfP8G6mo+101eJ6xokvVVrblSbGqmxz+DTGVggXuG/zS71i/CvDmntqRtWbB/33umXTtFqlEDWTRWO3ckoFKNuE9JWVLHz+ofkoNVLw/p2MFZcz/ptOhZkPiKUNXKNoZCNiycnDawlKqtKbyiECnw2kS3CDLLWaNHSDCB4dJr402FtdejzW/sufXvRq5s+2bOnxtEEH+ajVQKpHQ1XdcrK3vz2SMpDT0cmz+uWntdt+GNhwxaHDyuKHJ4XPWxB+OCp4f3HTlu85uNdJ2rcpGib3BBSzObxOKmXRMFaUe9+MlrIrnayd74/cc+whcItg8SwUUI4fPMUIXIC+FbIlqKncrInC9FEtip6rEgGxMdLMRP8Fj1REzuF21SYFhYzjSx2siZuvBT7oCpiuBgx9Nq/jv+fUYUPPfXyspe//mjH+YNVXlwt4LaTu5ZdMs2/UyhWjFOrOGzCmhuu+v8R2R5XPXM30KhraFW3F670e8b0dtalYqfOdEoLuWyQxVKHlkZTNAnr+SwBalemfm8ayWTggtjsovaNCiaWsaByFrSuus2ze+5Ytyth/a6V++WvuKuuBYjIG9wZ6TS3S3bjXFAIFU0s4V+VHYtPaNbW6Ex2jblWMtdJtLIZC9CzQL1XZ3BojFahtFZrON/u+a13G7a8XMn2ulkl6hoaTupwMzvvraBUJBKopQHho1+5gjNUDiirj+y33rZxt6bsHG8pp2LJy6TCsZN34/MRLC2fQHqVEtmSXiG7iQo2vjV62hQ33rp8f/QT748uflP/2bcHa2vsNNqKxoI0wGEztuVE41MVH94J95ycGZqSG5ySFz5scUhaXrehuVHDsmKHzo1Nm5k4Lutx4xvnHdTW1sRnsdm4/24O0SgCvgxuuJ9aF9tytGH03BW6kJSgmIm62GnaHg+JcVNV5LOBLOCeLEZNUkVPVEWTIBGjIbhH89exUgzg5nz7yQbW0zSx0zUxMxRTx05XxU0S4yeKceOFyAeFsGFC11QxNDkgfEjazKeXvfDptwdqTjX66t10neDa4UEiU55Soyo1FFL75E/JVmD/j/tsD19mGv7aQxUi5O8bMpt52Ktet10wVUrrqaVCrXfpKtzCBouw3kKPTaJWPwq5tAan1mDnEwjs1LJhcmrN7nYl9Z2e2x/83Pcj3z6x6pB7O191BHhBqBF8uDVqr/AgBfDJfsbekdnory036w+3KakBwVJZrVjeINKAEwafHUAr41gD9LUdyqu0z3x/+1PvT3trzy4+iAWJSw+xJrKdODLecrKReArgRDY+B2dw2BWNrPd7J9uVHVbR5HlIap9k4FGBv/UGZPNPUAWZZWqrMTuod4n7bEQXGqNNY7aIVF85IU60pdZOq07e8cw3/Va8k/P65x8fOnHWYqX5c1xlnfOyik3bxueti02dEzs0LzwtPyQlP3xoUUhqTmhaVkTGgrjhC+4aubDH0DkZs5YgCK1zU58LLrW53wRXTs0Ol8EN4vEtfnmi0Zez7B/XxY9oHzcxIG6aOm6qGDdFFTtBjBkPTSJxw44qGkIFUpvIliC4Y8b5sSbzkw2U1bEAGvYQTIqdIfWYLsROEqLGCXDzMePVsWM10SM13dJvvHv03UPnzX687PUv959s4k3gzT0+SuI3g4vE9yjdmc2fXXTb/0myATSUIXWmWWSq3z+XWeY+a8wbR1SGw8IGK/fNPo1RppVRX3BQ9yEiSDMUiCxBm/LpjJLJSv3h+kbR0NC2tKrD0t3d1+6Y9t7Jl89SGHqKdwdAhCBXlBZQZJtyr3BROOM3jOUc9HQt29+m+LzKYCGpUGEhss1MY2RaA0LGhqDi0+2XbQ1+7uPMz0985yBVY5EpsRwuB5wdRYoticeTFrsAAroEmh6n+MjF5u10Xbt2p9pwTjBbECSoAWupLBpBqpXmYlJHI038EeHIIeip99EB36zSMzKDl5pKEOOWQWrTAFdRbw1cV3nDyv3dV341quxz/Vd7d5yts3LXgGvbcr5p2uPFdw1/NDLp0diMvIi0gihIkfT88IzcsLQF4WnzQwbNikqbG5eR+bfh81auf+fA6XqomUaZWfgRHNTvh0ICsiG06FmbSpeq0uaDlLzgYss2ftTl3gnqsAfU0RPVcVPE+MmquAlwtBxuIE6Uq2LHqWLHirEAlBht/nyCFDtJip0M6SLGTIaSUcXA3/tNgLCJnQyyVXGTxfgpIvx3zARV1GgxYoQm8n6hy6CgiOQeqbML1r7x6hcHdpx1XXAT4rh4lDfkb3PyA2heQv1wNzsbZc8P3lXbrkQ2Z5u36UD1bvaxDQ7219f2BRZvFwyn1RscggH4ejVmLz0YaT3cG6QIX9Sdzz2hYSE0BZ1etWUWcdXJjiv2Ra7Z9vAn518/R+4f/tLCb5FujHolHE5mc9AkWSg0QlKJVpedYz3+cSBg3UkJx6/gQwIhrM1eTRmDvleX1rRdc/CO5V9Mef/AW2fsqAGg8zzw+kg2goAcG48RKGmRhEqi4kOIb1zAbg/bUMeGvFulXXZQNDRRjz1qmxJZV+KSIHLMjQJ/DAORTR6a4kVOth1kU/hIhsCRBgNKFFmidrIJRouor2+37kzwyh19Vn+Z+/oPH+45AwWMcPCow7fx650JEzJDB0yKScuMTF4YlpQdmV5Iajs9Jyx1fmT6guCBs7sMmBWVuiBq0ENTFz73wde7ap2s3kVkA1y7F7EvCRLusGkYCO5Ncd4gu9HrqvGyVz7bnTi6QOiSpoubous5g8iOH6+KH0dwx4FpwlqIGysQ3JDgE6HCSYgDaL9NQdDJDYFma1MaVSaKsfRj5TcoCdr4SeqYsbqY0epuQ4UuA7skTs54ZNm6t7ZvPeOuRpCAXKa2eRQ8JLvXiwBHmW3qh9vvqfH/Vcca2xXJBgoNLvI0qLJfsLMpOxvbrfpGWLVXXXpOZ7JAbGgQzEF9Ir8NoFlpDwHczd0xZIS4prQqYNneuIoDUz49/88aevASmMZt8YE4UF9woA4IENQNLiQCZAKxSMs5HGOsrJElfXpWu+YojY3ewHvaTU4JbruCSeUuSV/ZdsX2+FUflh21oAZwKbLT67G7XDzxuLuGX+M1Ipw3wUG7TkBf6fN9a2U52xxx608Hra2DdlcZ3JLBFVjsCiyhtbeFsnqhAq8ow0ziqpr7bD6aHDsG3LhXUCa8mRkuCdKL1ksxNQpmm1Zf+5fVx+Kf3zy25DPDx7sPVVvP2txfHD2XVfrSXSMfic145K4RBbHp+RHJuVFp+VEZ1KrdLXV+VEZWVMbC8OT5ESkLuw2YOWRs5krz68ernQ0yBWfUuU0Xj0QjrHFXiojlZFNTppXJkHbfH2986MkXheB0TcxEdfwUIWa8ED9O6D4WcKsgkYG1Qjb2YyYL5IzJH6tipwpxivl9M7eJzTZBiB0vUEM4KXLy1rw8qMi1T0I8CseviR0bEDtGCE1XdU2OTc+at+K1rw+ePWNxIFSwcLKpe1IZP0hiEMZvBZD9QVwT2fzQyvHxb8upkGDUi8EbxZ53sNCX96pW7NYZawMMDTpDUwAyWN8kmtxwn0IJamSONQVeCCj5oCUyu85Y327lkSjD/tnf1G444znAH0+D+8Qp3LJHlmWP2+6jdcMgeRqcHmSNizmpoxC1Ldz22w42c5c1aPVeYW2laj2fWma0I1xTr5d15ZagkhN/WfpV/uaqzRailvyBC7GBG2lmo2HQvGWpmWzcGP7Fz5zMiSryMGNvWdiAV47esOZ44Dq7sM5Lg58MroASZ0CpXTI2cZ8NCQSyfdQMQj67RY0oZOMTpXEQZHskk11lssBnoxDizzuVnA9e9mPf5z7Mf/W7b47XHaxzGTb9MOjhxdHpD8UNmx83NCcmPQ9YR2cURA3Ni0L4ODQ7LGV+/IjCmOEFkRl58elZf0ue8Uj+ym2HqhEaolpHKNns6HBXvPQ3G8hGybUyD2LxXZWuRcYPhc6DxW4j1XGT1D2mCvETuE0ki4NNIKzxSgSD4ynNTDeTTTZZiIPwmAglQxYPfz8OWKujx6m5WBeiJghRcNuTqUhE8SIUPgrBqABxEvOgGDH82rtGzn7S8K9vd52yeOu47MbF47L5HXCylVvhpPmBu9qbQMdHDUenQtlC6eetVKj4fNQo9gNjGxnr902dpvSgtK5OXOdQ6+0iPeSuXihrkAw2td7J1293UYBV4YM3pUEXtIK1Q2O26pYfCVm27eFNle9Xs8MeEtZ25rO43dAbJH9JXoE3kAa44aZ5UaZEwIdOaknw0BOpY185qSs+oSmuaVMBsq2qCgSmtW2NZ25btWPqpuqdjJ2HP4PylIE1eTcAbudimu4PWa9Ibi7lcJtIZeiWTTLL2tt4S/Fu7eqzoFkq8VDXD42ygkGW8EFXMGopp5kQZNQ8IvNBi7yCIuXN2wfxVunToYc08AZvoyWw5MyNq3f1WPF52sp3jF8dfX931YTHTD1HLogeOjcqfX631AXAN2RIVtSworC03LB0WE4ry4Yg+Xta5l8HTF2zYdPJeorJALdSrStEUPzADXeF26LCzMPxw43sk/11AWEDxdDUDndP04A5IniqEDtNiJvGUYa0ANbw3PDl44XucMnjERSSbyagIc2nUDMIsIYQJzk+Roobo44dR8I9ajJvF5+sioJogUGWTOaIw6NTM6IqZrQY86AUM1ITPVwbPvieBxese/P7PVXeKjePKb2IfxTIkb94Jd3IwSO76nALSlLhBKjRwIQbdRyfLwMxeoY77CebWMi/zkhlVWKJS6NHOOXiQ0brhfJ6yWDVAnSDgxpAQEO5rKE2E5dYLiOCVK04fv3zO8e9c6H8gPuQg9Kdj1R32fmz6uiUMIVsUh9O3teJLHN5fbh/Ozg94GH/aGD93j7dofhgm9IatZ6WjxJMVeqSox2Xb3nwwyrzMXoQRxMuHRfutvq88P0gW1YeHcbzHTcGt8371D00VA0FBg7b1MhSvzjftviQsLZGZ5B11AD/k2nwKKJUaN28kds/D41ba7J5Uzd+Y3RLej72EGGA2RZgqrpm3YEuz31xz9L3Frz0Q9H6L++d8BiYjn8gN2Z4bmRGTsz9RWGpuQgfqbPGb3ncckPTcyJTF3YfNC82Yeoji0ybtp6ohlDjTQ1+spv7OTjZ2CjhkGSVMjvjYj+csvV+cEFAeFJQ3GhtLOJCiA1gPV2InyF0nyZ0n6LqMVnVc6LQnVSKED9WiBlDcHefrO45XXMnpPlUFQpD5DghaixCTDUcfPRoVdQY3m44BaaK4kCTcQkePYHIJqyJbFXMKII7eqQUMTQweuhd9y94vOzD/TU0fhDVDmU4Z41XpjI8KO5Iuak/gGzCiQ5NeHCygbXs8zUw737GXpXZxD2Wdsa92vX1NF4UopM45o+OLmuEz9boHfzJBE7e7GWXymiCo9psCSg512HZrsQXj5afZT+6qNGaZ4zXTf2CAIwiRe5V8TGwVh6T7vXRXCmXh2YC2OzMe5wvhTrum8abTPREBFWZU7O+SV18pOPqLVHrvtSfY9tkPlkGLstJKoNGyhPWXHXgWPwOebML1UMejxcBDUrCd4xlH3JGvHRQU3JcKKkPMPt0ZgZlRVKqNdnKGrA/QzaHm9QIx9qMH9AvoWdUpFI8gt6mNtZ2LD1x6/Pf3/XcpxnPvZ+cZQpPzYxIy+RYZ4enZUcOLQhLywtLU5gu4HYR7oi07O5JWTF9Hxo4Om+p+d0T9R4EJy1k+x22n2z871HIrpKpbfFoEytY98at//Og1DVZHfGAFDlaFQmHCnHMG0nixqrjx6i7j5V6TFB1h00Uu08mo1YUeHfywZoeM6T4aRLECfwxLHKCpvs03n6CIHIC78KETfTvAGuo+RjeksjbyKXoUeroB9v2HKeNHArPHT142rPrP/hy75mzTTI18vh8Lq/s8rhpcDyfeUTe+48gW1FtYM5FvTJ8fhF/TME5hCM+tqKG3fPu0cDSA5qyeq3ZLZa6qEUMZJuhRC3Yhwvn9bhLCxFMPtWuKbdKJWfar977Py8cWrxb3sZbVxpRE5E+ALwU+nDIATeyxsmHCVFgQa35KNEQyvSYXTvCjbO8y6bwEIt//Zyw7qxqvU0qORnw3LdRJV/N+PggAD3qIWdGdYALpRIpBobp6HQCKj1UdijggkPHBXCVv4uvhZL6WVUnw0HJeEEw2eBlRQNNCiayW+BGWb0y2aRMlMFYYNpfEvBjEt+qCqYqh2pvbFty5uYVOyOf/jxidlmXYYu6pmV3S8sKTc4MScoMT8sNTYXlhacXhqYVkF0Kd7e03DuHFvVIzuox5OExc5d+xRtYcP3ksBWyuV9oJpt8doPshl+84GTHGpn+zW/uSp2luj2xDdjqNlwT8QAQV0eOUEcN10QP00ZnaGOGC92GC5EjwSK8sjp+vBQ3Th0/QdMDnhj7eKXmEXX8dBHOPopCTN6oMoa3q1DTCrl5xQhrTjbv1JRixqpjxmhiRkNwB/UY3SZmWEC3Qd1TZixcvmHLsZoGH6t3UzRsR72MQEu5HX5HV30TQAAZKWxllIXb7fVCORxi7H0Pm769sfP6fW0MpyVjg4aWkrGJNGsLStfGJ5+7RJMy31amx3kZrFKZNaC8VrNiV+d1P8z/oe4D3ssI+KwQOkprCNU/ANdG2eHFHbmAHF7xHUcdwljmD8dwuH3uSi89gddczYZ+aRWLj0MRBa3eEbzys9mfH/3QSmUPMa4TRVKGcUXFwyslsKL6miecf7lB3iZzii8yuPCgM/zl01rDeYQKQoVLKvMJer6Qg0I2wQ11wbG+ItmommhQK9VUfsOf83bPMiZuYEKpJbD4wl9WH7q56FNNxlJN4vw7gHJK1h0D54YkZUUMLQwDzakF4RmLQtMAN+e7FdzhaXkx6UU9MgojB8y+M/mh4lc+PVxps/AGEXJvSpH1E4F3RDYEGJK1VvZVy+ztb/YNGZ8lXBsv3HJvYOjggLAkmC5siDZ0oC6svy6snzZsgKprkiosQwwfKoRnCGFpqm4Z6pj7A3pAeIyQYsZo4ydKsRO1PaZTFz1UddQkwjr+QSF+lBAHg4BR+OaI+8kexzt9oMgRaI7VxY8LiB+jjblfE5kqdOnzl7szHnqs5M1v9p2xUUZQTY1s9vKb8NIiCH4er94m4Bx8GieqdKfsdbi9bpwPvm0LY8Ym9j9vHO5kPKwtvaA2WkRDo0TLWltpsUmjQ0L9S7mOnPaJRi9kSWCZXVtWr1l35LqV3w98Zecr1VQ8EDUiP1BuyOFANqBi8PF4EYjTWAgXKihSXTRdkGoP3kCHXzvhvOtk6gD/wMEW7GU3mPYLz2+5fdVXSRu/feWcE5+j+DlwzT47Pf6GioU/v+HPkNXENS+09LAZOh8NVES4WdLABn1yoZ3hFK95rEK5S1XuE2lIU4vPVmhuhttP9iVw48c0UNuEQs5Hy7Qmu1SmWQullralNTevOdYpe5Mw5GlVn+ybk/JC03KDkxcGJ2WHpuZ3TckPSYG3LuqaWsitwG9p+V3T8rqm5ock5ccMXRwxeF5wr3GzFpd8sfMEDRnFrflhpgZiMnpDHgNJgIqv3k1zdrYdPv9wwfLgu5K6/s+wv6XNujt11l9TZ/419aG7U6bfnTL17uRJdyZP7ZH6cPe0eVFDZt+RMOG6O4cHxSRJ4f2FkL5CcD+h6yAhLJWGiESNEsErtXMjvhx9CdnUdHgJ2dAqSi89J3ucNn5CQM8JYvQIbeyIgNhh6m6Du/abMC535Sd7zh1vIrihTKygjSaJ0nqdfh6v3iZQxU+UgTCHx+t0ez02Hz2D9F2ZzT/kvsm4q13ZBXVJvdpgU+nrRXOjUAbJYdMYXGoDz28zhVMqo09X5g2gptxzAcu23vPi7sVbK/f4SF7TUGhIXzAL2nD9bg8ff49cAOLwtChRfH41d9jKr0j2wwf53Ki2gOMWma05wf728s4bnn0349Ufl/14fh8fg2GlcbYUGFCnDOeY/piXH+7ZCHEaLMz1CQoY3P8HjE3d0XjHi0dFYw1BXA6UnUKZB3CrzB4VtXtwpn/GFLj9plImdJpofhCHWyGb98Lq3epyn85g7Vhc1emp3dL014QhzwiJudcPzr19SHbn5NzOSTldkoB4PiwsfVFoaiGsNdwhafkhaYVdUhaFpT8WgShzwMwB43JWbnjvXCOf90t3ysuuYpxsFGeEZw7mapKdFq+v0uL+ZPPestc+3vj2t69u2vHqpp2vbdrx2qbtr3287bWPt7z+8Wa8vvHl/je+OfLip7vWvv75E+Y3s1aun7RoRdqjRZHJ42+6d6gmop8mYrAQPCAgboQudpQqcgQBHQ+4wXSLw24WJLETeB/+BE42+WxoEk33iYF3T9UiVI0eGXjnuIDuI7TRaZ3uHPrI0o1vfHf4lI3BbSH0hwOTZZn6oK72JnD/6SEp4rV7PdCq5AuPMVZuZWlf1waV7G+z3qI1OKQSm0jPVqwWaGVru4aW4eMOzE82Q3aqimvarDvyl2Vfz/zs9NuVtHKN1QMv43I4G2W3kwYjgWxkB43q5I2a1PZMzRaKLmkh2wNXS/QDS5qHd9DD/nHamfbCZ92f2Vj0+b7vmki4Wyn4QHqgCkB59yJhyH8pTOMo/HDUq4Fj8boPF/Odl1U42N/fO60pPUzPaVfmWZKi4DMbwPcvkX2JKWRLF8l2KNMjqE2Qj5lpV1J3zbIT2vmfCPeXCoOeEnpnByXOv6b3IzcNyLo9KS8ktTA8YzFo7jb0sVZk+y0krSA4rSg444k7AHdaQfyw3OhB0yYueG77keoGB90ixcbkplH+FbKpolJKuIt5rLLbIvvgFGodZNU2VmNntXZW56DuzEY3WRNiTZnSttLJjtTa912o//HUhU279r/w6VeLDBsefmbtgCmZMckThZvvFG7rJdzRV90tXYp90O+qY2DjuHFvTf04l5CtiR1HrYTdJwlhI3R3T5V6IEhFMXhQih0hhA7uOnBakfHdH886ERI0IvuR49RwgJu4ypvQyNxWir9AElwbKVxIkR2MPXaG/X1Tjar4qGi2qvVuqdghGhpU5jrqcyayIax5E6/SBGbyIeTSmesCl25O2Liz/Lj7CG+fB2VwmtxkGu3FsaV8oLxBxiAzaJQpfaZUsM0+2weN4bHjdwibTrnYDxa2YsuBJz7f+nml9ZSbYinIDJQV3lJJi3jgWKSr6e9xFnJptIgAtI2L3BrqvuOohdxs3kH5WuN+qbyG99XLktlF62iWu6l3E073JwRfyUC2ymhXGW0wf8s3aRIHdlQlDQFrqq5Zfrrjoh+FiS8LQ5YKfQqE3gt09z7aMXHuDQMW3jI4t3NKYWj64rD0xSHY+RmyC7ukLQoe/nTwsKdCMxaHJWWF95/Rc8hUw6ufHjrdQGRTwiI5kUq4OcIC9SAggZ5EqIzUQEZSTcXDc2W/OZryl328Kt8iJWE87vFZmA9K5ozDvut81aadBzdu2jz3GeOIOU/dnfrQ9T2GqyOGQz1T8x9ojhpHXTOxEwG0EDkGr1LcRGo5iRojRI6SEJXGjhfjJ6oAd/fJZNRPNAGlgopHyKA7Esfnrv3nxztP13mojDlwH0oB5Rut1EReigZKKJ/8exvIdllpoQUiG2mktIt96mMz93vC36oUik+pylzqUo+2VOYD7ppoZBJ0NupcvUcFQUINAl5qKCh3aopPdVm3deYnJ7+zEEzADM6UOxIgSO2XBC8Fkfwr8jrAmjwu0Uw/ptvj3yPlHUS21wtHX+1ih6zyB8dOfnjs5BmZmlnwIX6Ju+d/TgdXhr/xY/LvkO/UV0MdTsjaSubdxVhxNUv6vD7IfJaeplfuUJU5tSanBj4bmqQCWgLIXiI5LqO5tRHZJiciSBh2/FjT8kDWgNK6a4ur/rL0cLs5m4ThJUL/JULfPClxga7XnPaJ867rv/Avg3JuTy7omg6fXdQlKZ+TTdFkKzVSALI7D33ytrQloUOXIJqMTJ4b0W/S/CdNX24/DteD1JGpGYknGeecbpfchGLUTuzvnOQNX/ipYjxhaKM/oA1FgppDuX9xO5kbVQJAb/T5Kp3ekw3uL3edeGXTtsUrXxox+5nOvaa1iRkjhT0QCA0dPVYdNVYXN1ENVx1NLd9C5GhVNMAlHSJGj9HETRDjJ6kI6ylCPMjmr3ETScZEDoOOTxiX97jp7S1Ha2pdvGkM+cbLKO6FRv7wnf/lJjSRz3a6qT2U1Gq9j+31sVdsbOhmy43/OCsYLkjlbqnEoyn2qEttKgN0Nny2VVnLRtTLvAUXZLsEfY12+a6Brx0yHnGe46mP6IDWIuBegTdecNXAmy/gVXlKE9akUJQ8IsDpP+QIeRwv3LEH1Fs9rMrlPWmznXe7cCgcGfTS7+mKoZ6U1hUEijCcxd91ix+BaxxSaef52Mse3uXosuG4pqwBHlpV5lCb7bQqrJEP56JV14CyP0Dk9rNw8xCTJkT6TVR2SGc7EH5ojY3tSqpvK7lwy5IduvEvCQOfFvrki32zNYnzAxLmtU2c36HfAsB965C8kPRFIalFnYfkKlhfhDuNk51eeHv6Y7ekLArJeAyCJDYjN7Tv1AFjc1Zv/OCClVBAqqIEy9Snpjg2MIoIxiXTqwxeUcXDwC5hrCQXGQCnCo0MHpEb75hDIIc/dFOjP/kL3hbrpTEP8KknLshf7aha8cIP0xa9+vcHHrv5b1OEO1ICIke2jRunixmjxWv3iZq48Zr4Cbqek0SwGzVKHc/JpvFYYBqm9NtPhm4RY0cLXZN13YZED5qybOOHe87a4LlRXHF1VOb8RY7n7v9uQwQJSctbGFB/w0HyPu3iWva39861KTuhMlZrQHaxm8gudgglFhrtWUZLbYgIIqFS9HDbsmi0wmH/ZfW2zO9rv2hEbIdUhxvFP3TRyAl4VhrSQxE8NYjgDeVMcxcUEtxfR1Ikie+p25AqT0p6+jGRy5HFr6hUKCUByUAVr3IGZATiKxQVeo9XfI1cx/55pZ2nnvV593yb4uM0H8zsg6/VGG06vUNj4ENcAPflZCtwX0o2x9pv5LkRSlJzoQI3yNYZGzoWX7h15YnrF3whDi0V+jwmJpLDlnrP1SXMD0yY37ZP5jX3LbglKb9rxuLQjEUhKfkAlxt28pW2v67pBcEZhbenFd2RvhjOG+FmdEZBxOA5sYMeGjPv2c2HqhB78ST1OSG2aI1FlH/yzkgsRYopiGBDEnGaW6wZ68uM6jqq7uhPeOrCoGwo7EEOyqzGwvafZR9urVta/tWIR1d37TX5xp6jNKGpqpBUTeQDurgx6pjRqqhRUhzE9xgheowUP0GKnwi4hTiYQjaHm/r2xwb1HC91S9GG3pc+c0nZuz+ctpNggCZR5AewbtEhCC6Vnd++KTeOTYBjRExNIQciOw8qbvaFhz1xht2+Yb+w7pBkrNSZbZoSV0CpL6DUC5RpwRoauGwTjHZNqUtTSq1jGkP9dSWHer2wp/yk7xDqNpyB0ovwA1swjjnghMGjkE/mqqHZv+J3+IdyB/8grERikjTnmeHHWFmkVPbQ4lz4BN6c5xN+r9QKqNDwV5Ag9J6OyfMKDvsIY+8xNu+Q79ayY5rSGtHooXjX4EZYrDHQKgt83jFg/WWyWzFNWMOoIV+Fo9GOWyE7wFh/bfGF657YHTDpn8LA5ULCY+re+VJClth7njYhMyAxMzBhXod+mTeD7KGPdRv+WHhGEWc6T7HQ9Lyu6fkhGfnBGQWdMwqChy7qnJIPssNT86PTcqIGP3xX6qzyd78/Vu+C2GuS3Qi0kTbUbOai9kCFU56utP0Ea8WUdGv5efMf+b+FKPFQd5fi6ZtfkTMWD7VmHKlmn+288KTh3dTpj1/XPUPXLUkbkR4YN1IT86Aq6kExbqwYT4OoILIBt0gDqvhwFGXoFYx6LscJESN0MfeLXQe2ix48aHLel4frzzpoyq3b7aZ2ElzM/2Lz3zzIhk5wMqfHS2SjOqf2Pgebs8/WybBLKD6qM1XBD2lLndpiT5tSpi6B9gDZXJMYrdoSh7bYKRjsAbTe7o7JH534yk6tEKgl4WHBHwWPnGOOGbBGoOJqRTaVAaJQcdiklskHI0SkOWrEM0GNv8bmRixAf4G/9blQdyr3T/mHP6boiItFIh3Hx8G9SCbe/fkjFHYTG/yFRbf2uJpmf9FMAq3eq6XFFbgbpmYNsHsZ1rBWZLfGGkZO2iOavbSkJQ3R9qpovVZHoKnx2nXndVlfC+kmIeFpVa/HNL0Lxd456j4QJAu0CfMDEue17TPvxkE5wRmLwoctDs8oBNBQ0sq4KE52XkhGXjBsKPHdJRWOvKhrSn63lNyo5Mzw+6Y8+rTpk13HGvytQ0gP7g5Q/fGE4KT7t2ZYLzPuJ+h7ng94JVNUi/KV3+hw8NkuGVJFduNc5DIsIMTi+2rP6ecq3kl4cO4Nd6arQwdqItMC4x8M6Dle3X08DQfvDh0ySYyjfk3AzcfBcrhp3OzEgLumC91GaGNHBsYOE+7o3T5m8OPrP9p5nnIXm8uFWojnLL9GZed3bSRl+CZAJ4BsL6kRr81Da4W9WMse/Ppsu5JdatOZNuYLgfqaAL1DvdYdWMzEtc1klzcKpiZdsT2g2KEy2IJKz8SVbl2ypco//Jq6513AjZSvP8mRASAbOgWagRL1Itm4foITf4HgB/4dWNscxDfdGX6GP6WNXDZ9gh/aeMs+3Tf9gn9Jn1M7IhUEHB0/dlFiHWXsfZnN2iMHv3xOVVqtKqepXxo906KU6hlf38fNFz8BxF5uv5dsH0xl9lGjYZkzwNTUZtkJ4aEPhYFrhd7PSglPqXstViUWSn3zpcQsbZ9MXcLcNglzrumXecuQ7OBU6rsB1uF45aP8QtNzu6bnKmR3HZrXOTW7a0ZhaPqirimFYcmIIxeG9Z8+YFLO8xvfOmmhUXOgDf6I0pcUNSUCDDtEKZLlIs3NQCN1FKMfU5MrXuFOuIzhmhw/RB3gdlMDs3JkRTB6QQiqBWpvQomqcnj3nm8qf/+7qYuLb/qf+wNjUqXIDHXcKCFmtBA9Vug+WewxWYwbJ8WNlWi6A+BWpi/AJlK4GTVajBoRGD9CF50qdE7oMXzO8pc/Pt+AG6IcVqQIXmnxTbqN37f5uQbZqMFBNnhCajQifPSytRdY3w+Oa9fsUZsqA0zVqMEDTS5I7TZGYoLIpv6aJsFkVZc6dMU00P76dQcGb9hqPlB3kmtenpAkkZAqxCUZkg46G186uYfgqQyngR9gH/dCv1Z8NoqEw0mYK9BSwqPC5IekqNnt89op9PTnIjblADwH6KhccOJvqBjBYZsaWL9NdQGlp6Ryh1gOoGVdiUdbQvMJ+FQJubnB7jI1greKtZANLe43FbVny2qTV22CZPcJZSBb1pjt7fX1bRbvFsa+Jty3Uuj7nKbvM+qEx1QJRWIika3pk6lNnKfr/WhQwpzr+y+4dXD2HUMWQo2Qz/aTndM1IyckA3Dnhg7LvyNlYfj9ixFQwm13SysMS8oKGzS7e/rsqYtWbz5WCbfN7xd3TO1PSJkWjJGwlMJkfM+fBf53IBsZgLRWJB9PLEovfM8zRklR/AEKjJKoLtS3Xq/V4+VrEzGv1ettgBNslN/6fv/Yhc9FDZ4SEJUkRqQLkSOoM7L7NDhpeGtlIo/SlcMbv5WhVOPVcYg4x/GR3BlC10Ha6OT0h5/4ZtdRC4QQ+JARNEBzNreQ+G+EX5d/l27C/97/XctbXsYJbA+pEdweDogrvuBlX8ts+ramyNdPBxnOagyNktEqGuy0yofBLRpkesqW3iKWQWRbBRotLWtKm3TL9t2w5L2Cr45+VetWxnLg+qi08+F1SGi85b0qdCJKUp5oSkIrOcHTHXtIcnLocNP86i/d/D/DjuJJYJxffpv4ku6BvzKvyyO77Hz65gceNmc/a7/ugGioo2fNGN2BetQwdh4z8NHVZYwaASuaONyAmNMMldJiCtwXyabWPQpDVzfqDAQ3zScq92o2eAOK665Zelw14S0hqVRIeErs96S6/xNCQoFwT542sVDoNV8C2X0X6BLn63rNaXPvo9f0mX/DfQuCqQ27ICwDltc1LTskLSs4bUFI+kISJJDaGSS7aTBJWk5Y6sJuqZldBz3UY9gjK1/7/FCtuwk1E0UmvGcdLpbDyfmkxMP/irXaWj6jVGtVCvgfXLK1/FJJdOQIdCVJS1I/EIS8LRy+4/v9p4pWbwzvM7JjXKo2criOqJ2h6TGbhoPDQ0ONxI+nnsvYUQK8eA8SJEI0TaGXYiZoYseKUQ8I4SlCSN+speYtB8+Q50O173LjlP6rACqcFtqnf6lMovbgX+MzhSCCSHnPL5lWLxKc1KUBThwom6f5kPyRm203v3gmUF9FPeo0dkLJaWWEkFM0WGhmlAGahJYP1hobOq3cGbf8o9LdZ/c5fLzTm65EwRnsISGU/hQnsUh+xf8VkX3FTbnOSza6YuUmKUuUZnK8coVJ3yLtFbIpCvLJF2R6RFhZE0v/xqUpPikYwC7Kp6ONvqltaVMAPfGaD7A2g2yLUNFA82VIZnAPTXeKVyq6l5JNWFNzvgnRsx3hB41zpKnNzjYbPR3XVnco2KEe8ZI0cJWQ8LjYd7FqwGIhMV+8N18LvnvNF/tkavos0CZmanvNC+w1t0Ni5nX9su5ILgxOVcZCKWQvCEnLDEnPAtNdMgo52RDfufgqNA0OPqvL4IfDk2bNfLri073nIPwgEbhb5amrhIM/IZve+Lef++w3bTgkEpgckyLK4RUVviutzk+27pv3VMlfh87Whaeou41UR00RIqeK8Q+puk8X4ifx+Q1jVD3HiXdOVN/JZ0LwWcNSLGyCCAETMUzoOrDvmAXmf3152sofrMzzmdjBZfpB4rlPL7hDVO64Zdo407iwy8mGdxPsNATK5XZbUQRPMPaWnSV/VtvOcDjAUCXx52hxH0ZMK680WAIOm8ayOoVyT4Cx7sY1uwZs2PrPMzZIEVSRNiXZ6NLoHJxsyGeFbH4J/q9+J9k4KiGtHMJ/WGoep8/paLhjSHYkAnBvZL5DPvaph2XudUe+clIynqOnhZQ5Bb01wNDURm/R6d0SrWAGsn18pfdGjuxvJVs02QPKZFHP56uXox5ramu2tl96XJy5SUgxCPc9L/RZIvZdJPQrEvoUiL0L1L3zhd6ZCtmahEzNvXMD753XPmH+tX0X3DYkv3Nyfldq7/OTHZyWGZyxEBFkl4wCOOyuGTRiG191TVsYmpYVmjo/eOCMe0YvWPbSR9XQE3T/fNwxNAmv8VrI5knmt//1hkO2jjVpQ30MskEhMv37w5WLSt+ITZrdPm6UJmKMLm6aKnYayBZ7TlX1mMSHTymjTcZT81/sNDFuhkTrRkwSY8cIUQ+owpOvi08eMXvxF3tOn7ORoKXxnwgEcOnIYe6uyOhe4Mku89k/R7bPLdCsS6/bJTvgaw8x9kI9S3jvvK7kkNZQw4diI6chOpHlyhBkGixBz0SkCa30QIKA0gu3rd0x5t3DH9XIZ/hyH008hRV2sYeLuBpk0/XSTeHvYfQDnISMuOZf4ph4gzu2M/k8n+dWUsP6v3eyo2GfUFYtvOgW1uMurFpjU4DBojHQEjlcZ6PmUdoxQe1vJZtGzvDOecFEz4qXSuqCVp1TZ30v3L9R6L9c6PeU0Gex0LdQ6FtAZCcUSgkgewHIlhIz1b3na+6dF9BrXtve865JzLx5UC6NJElrFiQZiBoXhgzNDh4KNcIdNjS3QnY6wR2WntUtbW7XAZPGZD+/5VgN3DZUsNtDw4A51grZnAK+IW1+mpr/1kZH8ucOzwJslNo+8mU1XvbtkdrcNW/cOTRLG5ah7jYKeoMaQ+ImUx87BIkyiCoO+9NVcQ/Bo0vx09W0wMM4VcyDCECDIobc0jOl+LXPjzf66niJ9d9DC0v+O8HpgTI+ou2KZDMZOpvCBJePZj7v9LLic+zON89o9cfVxjpaSJfytYVsmJ2w1jfQ2jEmq6bCoVt7IrRk+6NfnvmmyXeeLyRuc/Ml/+l0AJHcKFcOHhr0h5PSif8dsnE4+jPSHpxs+hG9wUf0PU5HrTB0L3XMfYCxNxl7+KAzeON+nem4YK6lgSIVNlWFXW1q0hot/GGq4JWQhQPm83MB7s+RTTvK7dOwEF6krfRa5hTpGToWydDQobS209KjwpR3hCFrhT5P+LHukwdTgew+i1SJBULiQrHPAuq1SchU95qnvXdum17z2iXM/8ug3NuS8kPSC8OGFoYPLwgblhc2DOFjbvBQspAMiilDgXt6dgi3LsmZsSPyug6Zcdf9D5e++YXStk0Ji6T1u1XyrDyHr+aGwylHpMzxk02eBQoTLhZuEU5t6yn7Iv27kf1n6LoN1cVN0nSfLnWfQk3a8RNpiloPeOspAqmUWRLZQ1L3qbxDZ6w6doSuW4rwl78Nm/X4F3vPVzmZjYt6pwvU4M4uZjqnhxu/ml8iG4mCkocigiv7XmbPHGdRr57Smc+JpgbKTmo6ANzknPxZS8+0bVSX22ktEXNTwMqD3ct2Pbajdi8fJIjiSy3NdDrFpVJbHGQCpHZLY7P/2pTEucKmXGfLxiHGn/Lyi92WI+Di4aL83+MrSuXTTP6WsZVW1v/rmiDDPrG8kjfA8yYdUwPI1iAspqHV5INVZno0lBqi4neRTd1VdlrcvrRWW1J9w7rz1y3aoRr5AvXOJC4S+uQLfXOFvjlCn1yQreqzSEgsVPXJEftkiQkLxN6Z0r3zFLcd1Hv+df2zbx6S1yW9MHRYUdjwwrBh+c1k54TAyIVnc7IXhqTnBKfndE5ZED0iPzTlkc79xs94vGTTzuPwl8qgAyWJFLibM/nntit8/MvbJYfDHqU6BVFOrxMVsoU/WKKGsc/3Vs5eYooY8JDQdZgmfkqbu2aou08WYidKPaaJPWbQIhDxs1Txs1Xxs8TuD6nip4J7sft4TfyYwOj723RLCe41+rkNH52108pvvLjiXKDI37JJpmQ8jF/NL5GtSCWUOaX3seiIN+SlExpzpYpWz0AVrJCt5KufbNHYpKmAn2vSGevaLN/T79WDxcecSnsfihgN9YC5aZdfkxvu1ENtI5xsnJpfHi+BV9yU62zZKBWJXA43QcwPxO/RTYIHH9LN489QPvf5vG972cyj7tC3zwilxwQjX2GeRoY00sPHTBb+qD6OJk2ksNMjg2kVQvzgt5NtpSEGEOiGmjbF5zs+sSdo5ntC0lqx/zOkrYF1n2yQLfbJE/tAkCwS+hZxsheKCVkqhJL3QpDM1/WaH3jv3A59Flw/YOFtKfnBGYVdhxaEDoX8IKCDh2ZDkyhYw+CtgXVwei6MnHfqvM4DpvabnPfMxvcONdCqi/BNSB8kBfFNZDcT0HrjH/zk09+0XfwrZY8MCU7jIOC5UPMj91F7VLrZh1uPzn3mBaFLkhD+IC3oGjdJiptMEyu7zwTTQuwsIQ5kz4bz5l3uk8T4iZru47XRo9rFjmzTLfnOlJlvfXvorJWKK9FCOcvdL+20OG9+AfRyZbKdHp+dVITvLGMf+9jCw95bNx5XGS/Q+BASl3wpAn+m8ldDk2SywmerTY0Bhur2y3dmvHPsxQs+SFvyz/DQENW4U5fSDkVw4+KQ3Jx3DqRybWRX3JTrbNnwW15KWpHtLyXU7IWU5RUyda1f4CtaveBh/b+qvual04KxSihu4KrDqSqnJ42oTVZq2yGyaX0zIE6PVjJ4mmf4/mayUU7M9Tpz7TXrTuvmfiKk64WEJ9R9Fkv9i4R+2UKfBULfbKlPngSyEUqC7L6gPFvonSX0ylTdO1/icCtu+5p+C24akntHWn6X9HyA2yUtu0saIsifkp3bJT2vc1ru7clZ8OuRw7Ki0maNzl3x3ckmOEvutim5eeWtYP0TuPm7Sz/6rdvFv1L2yJAXKFBOl9fqpoHQvkaZlv0+a/Gtf39rcJ+pbRA1dh0mRozWxk0WaWWSqULMTCEGZD8sdOdkU5c7yJ6k6TE5sPskqdsDbaKGC7pumUs3HKn1opwgjuRuC2eBgS+e+y0XQC9XJhtC2MmFBDWMuNmMXdZOxoOCqZpnXmuykaN4pR0Vke3QmBoDSy8EPPHNlK+q3m6goVQ0mpT6Abl3prY+LkBgVG0h0cmTKFfRDPcVN+U6Wzb8Vjkov0/eCAKKCWblvcct0zNG6318PWwfKzjpuab4B1F/EjUMPcKPRne4USC1ZovGSG123Ola+FhzG38SDf3gItlkSoChdNnwr1pFkNxhN0kVDdri022f2i2MXC8MeF6TuETdC/IjW+iXRdZ3oZiYKyJ27APNDZ2dIyRmqxJgC1WIJntBbWdCk2jvebRt4rzrBi68JTn3jtS8zqnkmEMycoOpvwYi2082d+TUwo0CQK8pC0MzsroMnN5j+KNr3/r+QJ0X1bfT53N6PC4aBkotuv7K0Z/b/nSkpLz4/ndsF/9K2aM3ODjyAFW+w8PXB3X4PDYvLY5c42FLX/wqKmU+PLcuepQudqIYNUnoNlnTcw5hHQesZxHZiCYhSOInA24pdmJA3ER1t+HCTQnJUxZ/s78a8gY4y4DHp6yADlPc9sWr+SWyAYvLS5X4EcZed7NJO5raGw4KxhaylSH5iq9SyKZ9sQxkN7UpPR/05Nczv77wQQNN3wLWtNiLAuFFo3IGWCmlm7GGKQRfaVOus2XDe14b4ZIvJ5vWQOYdxY0+GQ57K2PGOjb0y6q2JftU+kqh1KYq9Yh6r5rWurZrjVaNkceLCtlkKKgyPQ7495Ctwh8aa3XmmjYrj2oXfimklwp9nmzT5zFd7xxVn4XNZGc3k00tJEJiLoc7B3DDczfDPV/Ta25Q4vxOA7JuSsq5LSW3c1pelzSSHJzsXAof07O54S0pls7phXekFeBn5MWHPBKd9sjspS9+uPMMRTiEmH9QDU9BJDpqMwVu/4Y9xX7vdvGvLh4C/+P4IJsaSGRmd/lcDq/H5vE1eNlXhxrnr/xXpx4jhOCUgOixqojx2viZQuR0wprInknrn/jJpuV7hIhxqqhxgXHjhM6Db//bg6tf/AxkW/i4I+4uFbKx85vJhlhwycTlAcZecrEHt9S0Ld0vGKo4yshRP9l88ghqZF4vI94qc2lMlqCSC+2f/Hrud1WfNlGjpheqA0lJVQaXHn7DpdDG26KajX/yC5tynS0b3isCBPdAhKM44g0Mp6KSTQKoknmVtdrm7ZEjNx4JLD2l0jdIpbT+k6bUqymVdXoXje+jhssWsvGKsgp2vX58/Vj/CtmInkV9dTsU7Cd2CpNfFwYtV/Ve3KbPIm1v6BCONQQJdDbITsyjgLJPXgvZQsIlcGt6zw9InN++X+b1g8htd4YmSYMgyQnOoKFRvMlP6XjP65peEJJeFDJsSZeMxaHDHwtOze2aktl18Oz/GZ3zRNl7NfCZiJf4cwBdNBiYkq2ZbD/c+B928f3v25r/QjmKYpQtcKxQDagz7W6f0+WTHV6vxcsqvWzT3toh0x5vG5WhoyVbx7W96xE1Ysc4qBHFYStkTxPjp8K0dz4kRE/URI/TRTwg3HDv4HH5O441KWRzt80FCQluXHvL2fFyZbIRA7hlXx3z7WFsvYOlf3s2sGSPoG9Ftsk/M4qTjZqdmwna1ErB05Pf5Gyt/8pKesaLYM5LTU5+hnECMn5ezmtruH95U66zZcN7UjL8Tlp8t0I2NrxvYvJpKGzGyqys31sXrl13RKevURlsIBtMa2hOkEerl2lislGZc65EgcAUvEJxwX4H2WpTU5CxttOaU9r5nwvDy4S+z4i9inSJBeqEhRAhQj+88oaRxDxONgJKmAI3Nw63Iks0CTQGMChx3jX9obZzbk+FzyZNAkkdnJ4XkpbbNS03lNYnoTbv4LSi21OKbk8tCk5fHJyaD+K7pWaGDZo5OmvF1sOV9U7+1C8e1vEUpExuZZSsF9/QD377pvxp81FbjP4nQcInKtAyc27EWF56TgNCyf11vpWvfNkj9RHhjsG6yDHqqMm6Hg+rYiGvETvCeU9TFhPki5nQ6G1ayid81DV3TtZ0Tup818jiFz+rc9Khec+nmzcD4hUc843/84tkk5+lZ+HtZsxkY4M/PxawdhfI5hNX4bApy5XnIPIM9tD0MFohyaM22NusPX/t098W7bB8zxc3o3Eo0Hd+ki9NyEvg5rz/4qZcZ8vWciR6UcQW3iiwo6ZgvkrmpCevelnmIXZr8SHd6vMoeMpae2q9S62X1fyBvzT0hYbpgezWc85/N9laU+P15rrrlh4Uxr8mJK0TEp/UJC5W9YIUyYEIIaz7+l21itx2jooMZOeTJXDEOdxiwkJ1Yha57YS57fvOv2Hgwlu52r4jFcFiQTCcNF+kAViHpuaHpBYGpy26PWVRl/QlwemPhaTRCNi4+wsik+fcO2K++Z+fnay0wrMRCpxsiG2eXLwK5YmFPFCSEXZ5Ev/K1pwDdNxLjQ5LDWx4RU2KOprGePKpTAi9tp62PvL0hqBuqUFRo3XRkwJ7zBJjpguxl2Atxk5DfAlNEvjXmWL0uLZxE7TB6UFdBo17eOmuo40oMdS45kPwgOOjzPLGXeWK6OUXyWYebz3z7GLMYPP2+/iAbs1OVLV8QWhkKg2rp+efGx3QozRTnaasM8EI5eoIXHP++qe/f3Kfa6ub7gRY8xDPn4oK3/6EJFOgJaz/PbL5p0Q2LyD8I5zJTTN8LzAvFHZJAxvySXXblce1JXblUXe03I9RGdHlEQx02ZxRTjY9sxTIynwADG4Nn/9WsnXGhuuKz7fP/0FIMwkDV0qJT+r6PSZAihDTuc1YQ17nqfqAbAjubE421DYMfLdo7oViwgJ17/na3lDbczvBbQ/Ovp3Udn6X9MIuaTSPvSufSMbnkhUFpy3uOvTJ8AeeDR32ZNjQJSA+dlhB92E5kfdNnrt4zTc/HoYg4U6OZzGS2Y+1It3wMYXy+LQ5MX/7hp/zjKXjKrnJdyiLkc8U97Rgh9+hgDXy+cLHrcz07pbQxMlil9QAerDTFCmGOt5bYT0Vn+BV3YO3bUePaxM7ITD0/o5h6UmjCzbvrYXKoeGzpKsQTbk9fDQ6TqFsv0g2wehrYJ6djOmtcsIHuwPW7JAMCtmUwSoTanAb4CayTXxFdJBNa++C7As3PLN56UHvdlkhm4qJPxV5SlwGt+KyqST9TrKxKddMh+NtiHQrOCalNnw2O8d8X0Jh762OevlQUAmth82Xa3KTkobqoEEvqGfosvmHLWTzSglY0xDt30F2gKEh6OmD6lkfCgPWqPo+r+v7lLbvIpIc/WB5Ql+ONSAmvnOkxCwpceFFsv2ym2tufN47U0qYr+k9t03inA59510/YMFtyXDYiBQX0Qz2NBoJyMnGTlFI6uLOKY+FZDwJvsMyHg9PL4xKz7vrgcKYgTOSRs9ZW/bPc3U0fQSp4k9B6vZF8uCVdrg398P9M0n8Sxt+znOV0t+fm0qW8OyiPFVcmfINTmZlHpB9wcO+PdowIddwbfcx7eInaaInSzFEs4rW0Zwixk6RYDHT8CEtiBwxSooZ36775DbhI6WbB9walfF8yTsgG3dEi01ysnmjG+W4sv0a2dSBRDrbZPEkvLuLfLaxhlfWyFF6kBI9jcUIFJDftNA/J9sLsgPWXLjx2R+eP8x28i4oKiM8WXkakLV4btwxvfod9u8mm66Wv/I96omgv8dHPA9tjO1l7E0fG/DB4U6Gg0Emtwru2cxorQUaE2LlEQJ8Nl9jksh2kCChaeeXkK2izhq6ZcVwv2LzHEeFafwVPTfeaO1QWheQ85009h9C32VC76d0fZ+UEouE+wqF+/IFPlZESCxshhg+eyHscrJRDDjZQu/5qt7zNInzdAlz4LavHZB1S3I+YsQ7Uos6pxZ1gQJJLQhJIQtOKexCHy7ukrYEPjt86OPdMhaFJWXHZeTHJc25c+DEhxYu3XawElEXwKKZS5RYyAQ/1kpuNPvsf4Ns8iK0oxy42Xi28hd+TBhhRS0m3jqPs56xk1ZW8sbmHilzg6JHit0eVMfwtm247Vhy3pAiRHbsFFr5MpaGbmtjxrWLGxfYNb3NHfc9UqCnR4LwibC8FZnGwCk3o2y/SDZHBlweQQRZ50v9+IR2zR6VMvaNWkJcgpEe4aU1WvlyZx56yH45DZFTGx2B687fvnrn0iO+rTL1YvIU48g1n1BJDBj/pBlvbsqV/JaNM6yIa17v0eEog7zIQi81OJ1l7AvGFh6XryndrTPXS3oPf0QBfC2Axl2giCrIgmNFdTj5tEWaQMA/x6sL6sU/koTQJ5TVZic969Fgoa6Z9XZaKN7U1Kbc0d5g7fjMceH+cmHQ80LCE0LCEk2/JzT9lqj6Lhb6FlHrtYI1QUwEQ5BAbXMRwj/EjkI2fZUt9qXxJCLcduK8gD7zOwzIvnZw3k3JBbcl5XdJKeiaXkTtIenQIYVw5MEZizqnF3VJhy+H/y6CIw9LKYhILYhOyY4fNLvP/XP1r31xlk9ut9F6GC4PrfXHSSDqeKY32+/IAP+Gv/hNf6SchTfU0ZUArYNVrukFa6TOiZqIoZq4iVL3mdQTGf8IvUaRzqal5mNo6RK+WvEYdcwosVuaqkuf/xk688u9Z+G5rFwLuGiVDWQ7bgwvdCqFssvJpjHrbnrmAfYtPnaMsRdqWNqHJ9Wr97Qaie9GVd5MNndy/md3eCSDTbv69G2rdjx7xLNFIdvf5Of3xwR3M9n0KTd+6n+DbByaPL2/uPCCghekXQ132OV2NviLmkDTGcFgoye9l/JHFBDZ3Di7v2BAnD+rVyGbP7bBTI8w1Zrs2jK7VG4XNtiFCoum3NKhwt5pXX2nRXvF9FLNfU8JCY+pEpdI/R4X+z6m6rOYDxEpaiZbIbjZ/GTzILKZbKFPtqpPlioxU0ycLyXM0/VdEHTfwo6D8m4Ykn/rkLzONAawEFiT5iZ9Utglo4hegThJcFqCJyylMDy1KDIl766M3HuGLZi1uPSzXScbeCOzm0IvKF6Q3ayP+cu/S/bv2HBw5BKFkvScGnbO6jG88Wl43zHqsCRN7DiReh9nC3GPCrEPC9HTRUST0ROk7vzZIzTMdazurvGauPuF4MSb/5a+9rWPq/1z9XFAkKDg5D/PL5JNvFCP/1HGNlazlA9PSKv28Mlg0KZwezInm9QIjRmit9xMsqS3aFaevHXlj0uPerfy1X6VeIWQ9pN98ToUrJvJ/n3J6j8YOWocXNmlz/GCkx7nz3Sct88evGF/gLkSZItGn1DCe8V/D9mIMmmaBd7SVHa4eerQQXShLXepK/jzn8osurKmTmZLh+dPt5n3tZCyFmQDa5jYd4mCtQi3/bNkJ+apEvNhrT70ky0kLgDZqoR5ImmS+YF9s9oPyOk0MPeWwXl3JOUFU3sIkU29M5xshfKfkJ1/Z0bunalzEkfMfb7irVNNNEvS4R+hj2xGvvidyb+R/v/GhuM7ZdlFzVbUTlIrs++PVCXPKBI696P1G6BGYmYKcY9Ql03MDDEObnsSPWiBFt+ZKMSM1vQcq+3+gCp8QJvIvrMeW33K4q96AJISPvL8p/P8Etn02A4fkQ2fvaGaJX9wXFwJsi086lI4RgRJeczrbl6h8ycBqA0W7cqTd6za8fxRtoMfQYGZG//HTzNdx/+ebKWM0PQcWvqFjombrOUzHSssrN+7JzvqD+rMtSpwaXALxXyexO8hm88e4n8Ch00hJsh2SDTYVRHZNsHY2MZY33HNeV3ejzTTcdBydb8nxT6PqxIfExIB9CJONg3r+0Wymz+5SHaWkJApJMwH2eqE+QF9FrTpt7B9v6y/DMq5DW47pbBzKrC+lOw0P9ldUwtDOdkRqfk9h+X3SJ13V+rMcZlPf73vRLXLA7d9sdcWCYjcp+qSpyal5x+4IX9BNviCodZo8LEjDfL8ZRvax6Wro0fSVF9q0p4t8HFRUvxUdTxfZCd+kthjkhA9Suo+Roq7XxudLIXcO+LRxUdqnXBh/HYYQkknTbbxn+cXyeZ91RBD5LNr4LNPSqv2CuYmFbSHf3EzesQjX4AGNTWCLZDtEM1u6JM2a84Gr9mNCHIXl1OtaL6iKaf2X8dv25AT/E+JbAc9jYaWwcS125jnJF9eNeuo87by/QHGc9ryJno+Jby1vhnTn5Ld8uHlxoMKuk0+fIAGbdNKyoIen+APIU6a2hVXtn1qn/DQ+0JKidD/GS5C4K0fExLgp4lsVR/sgGnFfgvZCCIVsjNVvSFIoLYzdYmZbRIzbxiYfcvg3NuTC+5IK+JkQ40UdclYdDnZcNtphd1S86JTsyMHPxI1aNqdKZOfq/jnnjPV8HMWt4vc9SU5wFOSEvN3ZcLv3viZ4Ghp7WOQfc7Fyj/aGpf2sDbmAQoW42bwnshZKhqlPUXdnRw2TQSmx0SNV/ecoI4fqYlOFW7966CJC7YdrwHZCKgIWBobQ4Ps+El+kWx8Bj/fyH32S/UsfdMZUiOmBv4sImVlM4+yxhfHmrckGB1SmawzWduuO99l9e4n98o/8jFVhB7ZJal4mSmn9l/Hb9v8ZFPkQPMpLYye6406rorJOxhb18AGfHYmSH9UZazTQEXorepyr8qMK29F7W8lG78krBEyqrj6ophSj1hThiZpa2rqsPKkduHXNP6p/3NCH7+2pgHZCUUca8Vh/16yFwJuVSKCyEyJbL4mIVOXMO9aWgEw+9bk/NtSCxWjdsCfkE2zg9MKwtPyY4cWRKdmxqQ8HD140qTcpV/tPYFaFBoXmUvJTmmvOG9UddRuRo775zZ/ov+vNxwIp3R6XVavG1xWe9mn+84NeejxgNj7xdixqvhpQhzc9gxV9xnQISCbJijQg6CUR5+NVcWO0MZmaML7dR8y4fXPf6Rxf1ROmhn7LWRjB/8i5oBgfaWRDf/0nHbNPsFQT0/K0nuojY9GC0GEwGEDaw81pZW71RX0yPG26y7csmxH7g+Wb2x0BBwHdjnc/hRr3prP/ts3+iMciS7XCx9g88l2/lSGo8z3iY9N21lz+4sH1MYLggExrkNVatNWMCU8uEjtbyKbD/aC6iCsiWzUWuT4DW6pzNOmzN2hpK7dE3uFKW8Ig1cIfZ8UEiCsuaruXSAkFNJ8XpDdG+z+TrIpiFyIOLJlxg1M23veNf0Xwm3fnJR/a0rhrSkFIPuOn5JN/Ti0fhrI7paWG5maFZ06N3LwtMRRc9a9+uGxOkeDh8QAJZyfbMgTYK3YH0s28o3nmRty3wrd6GU7zlvnLX8pKH64Om6M1ANkk6loCQdaU4pix2hlouR4IepBVdyDuvj7O3RPu/XulCdL/1HtIrJpdBQVGOahdj06xa+QjV8DlBOMvW5hIz4/F7B2D43Q19vVtCCl8pwh3v9c5lXIFtfLGpihKWhd5fXP/vjol7Wb6mlMlRKHXwK3P7kubi1n/+0b/RX+J9lGd+Xweqw+TxVX2K/62L3vHtcW71OZGgSDS9Q7dPR4bA8c7b9JNnfYohFGj8wjsvVOtckVZLBes+p8UM53wv1mIQHCmvw0YZ1QyGkulPqB7CKhFyBuTXYz3M1kU6v2pWSr+sKo7U+iUa9Z1K2TsEDda17H/tnXD8r5y5D8W1IKb+E++3aEkkR2UTPZBdRDSYun0bKAoSk53dKyozOyQu6bEn7f2KkFK344UgWJqLg65AVNR/A7bD606I8nm1aXIso8TbKzzstOOdiGz/a07zFMGz9K09O/2B+RHTNeFTdB3QNSG1hPoHmTsWM1d04Qo4dpIwZfGzvooYLlJ+pcyvwxAEDmv87fQHa97IPOfs/NZu60Bq7eIZRe0KBa17u5z1YeYdpMdplLRfNTHEEb3W31tW2WfD/iX0dfPeOr5ImoeAiHTO2NHkXMccLpGpoTTjn7r27857R5+YZPPG6aLY3woYl5oJ3ecbHsI54bDXsCzFVqCvhkev4drQHiEc0ekk+tgf5VK/c3Y8NbU6uI2QnFBWGjKfdIxY1Bqys7PnVImPS6MAQOe4mYWKQi4cHhvkSBXGaAnsNNZF+01mQrblsgt00dOlIizbtR984M6rug431Z1w3KvTml8La0RXekL+6csbgLjMim5m2FbD6wJB+eu9tQeO6cLgMfCR046/Zeo/9n2KyNH/xwsoFaFawyJR+XqSAbWPNcupRsJc2v6oaDyh4fLUNl99FkzfMy++GsI7j/ZCEkSRU7ltb7i56oAt/cZ/MnZ/M1d2jBNOyMUUXfr41KDQhNfGD2oh+PVlmU7m0fjojAsOUUv0A2LwdWZdlsxubvd3ZYt12tP6fVN6kpDuNS28xNIZtiLFp8OugFT5CpMeCpbUmvHio77j6LkM7HJ2YijCVZp5CtVIJQydxr/O/Ipj9Dddq8dn1JHRv8aXVH42mt2aoxObVGd4BBDjB41Ea+0B51u/wE3ysaX0W7jHff0CN44KdJhABrjcnRprShw/Mng3K+Fx4oEwY8Qx66dy6ftKs0g/wC2TDuuTnQIjcim+DmZNOQQD/c1GvDsYbBbQf2yWzbbwE89w1w26lFtxPZjyld7peRrcAdPrQwLD03PHVheNK88IEP/XXooznLX/x429EqB2ty+5w+L81vh/sG1l4nPUnuP0A2H32KkzqZy4a4yMu2V7rufGCeEJYCvSHSitpT1D1nEM3RENbjmslWnoc9VhUzUhOVrg5JTJ6c+83eM028CdNNI1SAcvMpfoFsOEJ87+SPyfuWscUnfH8p3RFgOKMjqe3gTdeXkm2wQ9GCbN0Gd4C5Sfvc7l4v7lt10A4xg3Jp4YcC3IrP5jWgYuS5lQRUzv6rm5Li2C4h20sHRyHc5GNzDsi3mA4EIXA0ubQmh87oCDC4dUS2TzT9u2Tzhm3JSIs/SWVebRmKiqVTaW2Hx/eI0/4lDF4u9HtCTCgQe2Vz0XwZxFcy8txXJLsZbpqMk7hQlZAFExMW8EUA54HvjgNy/pJMy2nDbd9BWP8M2bDQDCiT3IiMvIiUrNi0zDsz5g6ZlP98+VtHq+2NfrUNItw+1Hq0pvnFbgdl40l+tTcAQOei8R6oz6FX99V771+wvF3Pker4sZqe8NaT+SRfhI+0VBp/MN9EIQ5qBHCPU8WM0kQPk4L73Dts1nvf7W+QOVpeBL/gWLngXybbhVsm/QU5sYWx5y+wkLLdASXHdIZakcZku/0iW4EbOyBbbxEQYJU5JLNFvfJgXMXuRdtrD/N+EyWGVcimFtQWsvkUhP8V2bh83kBZyx12mYX1/7hau/oA7xyVtQa7zmDTGpwag0zrCPPHf/0E318wvj58GTWGiPQAdp9kYiBbV+bqYGq6fu3ZwKwvhPuNQt8npH5LpIR8sVcOJ/tn7TKsFfsp2RxuhWwF7kQiWzFVAkLJ+dK9j6p7zYEsuW5w/q2pi29PW3x7KqQIda23kB2clk+Wntd1aH5IanZoak5YUlZMWlaP9Pk9kmZMy1ux+eC5KrvSto3Uk70ENwnvP5xs+CLkGp0LalvGBVD7m50VGN7t3P+hgJ7jtXdOo6dOxkwS46eAciKbWkU42XwNeeqyib5f6Nwnqt/Ylz74oZ4/xcVJS36QBuDn+BWy+Xxz5kEVv42x4joW99L+NsUHdcYqekQ+qVU+bEghm4hx0dJnCgpmq7Tu+O2lWyd9cGC7nbAG3Dg9TJHYHGuUHPIXdJ/8/MrZf3XzJzknG//j4l1uLyo1KOz3PCznOLut4pBYfJqPsAXZDsDNF1cA0C3jQ3674XZIZYlGWaRh3EwyMrXZG1jmuNZU1+m5fcLUV4WkZUKfJVoiuwBwE6D+WLC1XQnunyU7r3nxBuhsYN3KelMjiereR1V/fxie+5oBOTcnF92Wuuj2FDD9E7JpXnAeTZ1MWxicnBWWnB2VvLB76oLuQ2YOHpu18d1v9p6u5vkCOUJj/fgqp/Rc2dabP9Gv4kZkI/OpTQFkw9nhGs7KrOS9H7slPyJGjRQBcQwgnkKrjnSf4iebFpMnlUKvMWPV0SOEzv06/2248fXPfzfZtBYIyGPuOubbzh8p1vf9Mx1K4QvP8+nZvIOGyIbCJrLVZrdkdooVsrjRK1Q4VKWn26/4upd+03snG6r56BGcXmlU/xmymzXFb0lIf5IrZKPoudwuj1dx2KurWcqX9dLK3YK+GtGeREvTOzX+/kKICtjvctgwp8pPNo2maibb18Zsu6b4bGDh18KIEmHAE2LfxYFEdqG6DyLIVo16re3nPLfSKvIzZJM1k63AnbCQrDcESaaq1xzhnoc1vea075d1/eC8W6BJONkhaUUh1DwCrAuANZ/xnhecnh02NDckJTsiLT8qJScueUHPlEd7Dpo87/F1H3y3E3EkvKaDnjtO839dLlq7tfXmT/SrtRFeHG4ZaoDIhrQHG1WMrf9sX1TaXCHifnrQdSwghhqZAs19kex4YE1TbBBHStEjhS79b+qRtubFj+qayea3wPn6dbKp3d7exHw7GXtFZg983/SXiqNa01nBXM9HgSLjOdwkXj3AiFb9AtkvMmG9U1VWGbD869AnXy79dt+xehyEBq9YPVRWwDWNF78aZNOIdrsDfgZq/hPGZu6ydn3pmLDmqMrUKJqtosmhxlXReCb+AAMoZtgl4P6qISa2q4hsL8hWGZjIyW5rtgY8t1+Y846Q8pzQb5GUWBjQZ5Gqd4G6Hy1F2YrOy+xyuEG2gvXPkJ2otJBwshWsybKkPgvE3nNV9z4CstskZnaC204quJzs9AJgrZAdkp4dPjQvLDU3IjUvJi0/NjmrZ8rcyD5jUyfOL37pX7Vur8XrsXtlp1fm1enF5FU2f6JfrQ3H4z5bmWQDfY9CBbKhC17ffOLOB3I0MQ9KsRNVIJjGkEzmi0VNUMWNu4TsuAnqmFGqkEE39khdueH9ekVnUwQpyyRy+E38EtncrXq9dhB5gLH3vWzWblvoS4cDDaepkZhWHQHcIAbcwGd7VXqHiMjS4KSHKZY7pfX12jXbb1jyWvY7P2ypsuLSIRhsbj4zgE5Bxaa5d4CPZ+IXgE25huZdpEGrd3xXEekUeJIa8bjsNiTNVsZe9LH7Pq3VrjukLW+Qyu2iqUmC1Mb1GPgQKBr1wQ2UX47vFU2FWqgMLp/IFvgarfDZASb5WkNjQMEPqikv0zMd+xaqEnLVwPTXyW7x3H5rIRtYE9mX/FKZHAmdnSMkAG7FsqS+WWLiPKn3HEjtwMT5He9beNOQ/NZkN8PdrEbSc8MyiOyuQxbGpufHpGTFJ8+N6Duh9/CZWc+W7jpdfabJZqXpil7+VAHkhCK1/WqbJ/0VNyVPWuyKn/HN/wb/kBqhSTCoJBxuB8CoZ+zTQw29Jz2ujRujipmojp8uxc8Qoqdwtz2RPwmEP/1DsdiJUsxoMTT5xp4ZKza+30APOqLedRc9hwHqhs77S2TDkZJLRAXFH1a02ctWXJAT3zkcsOpIG7OzbYVNV9YkVtiEjR5hIyO4jW4+s9ClNsliORx5k1h6suOK7waUfabfffo0l1O0KUVWOTtpExyeGtq5RCHBrXxPP6B6i091U97itzBUYKhHqKyjlOAK6a6OMvaGi80+xG56qYoemW6kJ4pojE06A38WK/lsPqwFuuL3kk2Pz8Md8QV0eMQsGpwdSps6PXVEPf4NKaVYSFyiAtn9C4V+QDNf04+rkZ+11tS2MoXpy7G+xJQWbjJqJ0mYK/WZq+k7T5MwR3PvI4G9Hr2mb+aNA7K7ZjwWmrE4NH0RPf83Y1HX9MLg1LwuKbkh6YXYD/N3Ri6MSVsQmzYvPu3Ru4c+cnf69JI3vzhY56p0sSZl/B3SlRJYUQyU8PTS2vjW/A4Zxhu7LuYqPlZ2Wz6mv1F+3/xGEaIKX9TU6Gb05Owvj1v7z35eiH5QFTNJ1/0hbfxDqhiEkgQ3DfeLmQBTRY8Xosjo8ZPhGZ3i0p82/avGRY9qR0Hx0LI21GoJ+yWyobLd2OWVFKLXg4y9ZGWjvznTdvkBXXFjoL5WY6wVDPXCRlnYwIRyn2CUgbWm1K01eiSzTFNv9FUBq3eHrf4k97sTO/nSJbTcBcUq/C7pXHjPGyL5RVxONiU1oMcfKJflJxs/cjDZTnEjxR9Q2AgD1taxId+wgArIJIdQ4abGR2NToAFwI3xsbsahGsb+u8gWTS4aTWDk46honU67zkSdjh1ztqozKtT9lgm9F6v6FAoDQHauAM/dp5CTfVFvNNsvOvLfYdDcc1V95qj7zJV6PyrdMzvg3kc69pl//X1Z8Nld04D1YiKbP7Y9JDU/ODWfHsOXXhRKPe25kWlZ0WkLYtLmx6TN7TF0XuTgqXOe3/jVkZpzLlbt8lg89BhOIltJaEp0JSNaGd+a3/nJxq+bKcbHLZ+1fOz/ffMR6Su4NfJstKYSPUjfwtg3p+0DHlkhRI+CyNbFT9fFz1BFTxMANy1MPEWKmaCOHi9FjRMjx3Gyx4rhw66Jy3ja9BbItsPJ0ZX/NrJdFLe63R4Xrg7u9iQXJPMPWG8sPiitOq8prVEZ64XSemGDRyinJm1U+mp6zKlbbZCbya7WrD1044pvxn547P0GdoZzyh8bTTIb98lvHaUNp8c7XBClDN/DdeCndB0K2XR9+Kc5odz8KMo6sdSR5GFZ+3xRr1xQGWpIeKz3gmy+anCTliYcuJobKMH07/XZLkFvp4EieKu3CgZLB7Ol7ZMHpRkfCANWC72fFHoViP0KBfjsvnlCQp5E0vkyphW7WmTnCL3nCglzpMS5Yq9HpHse1t3zcPuEudf2zbw9KT84pYiTTc+3polkafDWNO9G8dlEdurC6LSsmLTMmLR5USmPdBs0Le3hJ1e9/vmBWtcFh7fJq4wBJF/K3Talup+JFuNbyzslT5Rs4V+2fEb4tvry4u+Rw8hp+ppKBqJWFCeaGbn5gjxo3mohZrQQM1EbNw2mipmizPm96mS7nczplh1urw9FClx+4WPPnPVGvXBCu/qU1lRHS3OY4CB91FNjQjXtlvhjIKUWn22sV5ec6rBm799fPLB0j2W7i0oIhDGviei+4XEh+HHrzWWdtlZppKQOft2cNsoe9SHRQ5kcjB7hvoOxDfUs7aML19OwvgZSHWZ6Vh3I1hkb+cQIP9nAFOoCX7Vm95dNhVcaZ8LLg75Jp2+4tqRGm71ZePAloe9zQu8lQmKhqh8Zgj9V73yJetcvY1qxq0d2LyJblTBH7AWf/bD2noeDetHzrf8yIBtwd03zk90lOR9kc1niJ5urkezoNII7Oi0zImVOt6RZ94xZ+GDWc5/sOXOiyYPcqXPSY4C4UCCprfiaS4xvLe+UDIE1f6l8pgANU3JQgZu+x/9cizRnPTVuERDwUFuq2ZDMtarYMUL0BE3sFA1NX59C02r+CLIdzO6WbW7ZbfGQ1N7GWFkD6/vO+bbrjmhNtTSwcz0TKiBFaHIhPbCm1KUqlVXcZ0s0m7BJ1NdIa09du2Ln/W8eefUsgejy3zD8Lg9p+X3z0+Lm/RcAa5VA/iqP/wx/ikjYxjwO6CqUt+OMfehhBYd9URUHgtYdp4mJZT4B2rrcraH1sBvpSQwK2SavSOv0cTd8Kb6/bGK5zAdF2bTw1sXVnZ47rpr2npCmF/o/K/RdInCsVX0LhIR8Ve8iKXExHzdyGdawq+iz5wm9QfZcVa850r2Pau4hqd2295xr+9Fi8l1Si6BJKIikp1kXhg1dDLJDFbJTieyoNMUWRqVnhSc9EpP+aM+hs4vf/Hr3BTvkIpIU+UJoEB08grwMbr61/kCx5g27yK6WHFPIbm1Qw62ynmoH6tAH2VtrmsmOGq+OmQy4aQZ79z/KZ9s8XrvHQ2EFbvsQf3DR2G/rbzIfEkvOCgYrKewyJpYxDS2gI4ulbkEvC3z9UglMkNtuUhkapWWHYvS7F21r2M2Ha8Pd4gU3ptwe3tDV0MxzuqLmZOKpQ1dJe0qqYIdiDpAtO2XmQzmBwi6h1foaOq3ZrS05R/2gZUwwuLTrvWqTBXCLtHAwnC4cNi3hd3HV4N9qTlU5VLtDMDa2NTe2X36qXd4W4YGNwqAVwqBnhIFLaF56P2rikBIKpd6LpcTH/nCy+UQbZRaZutdcTa85Ab3mAO4OifOu7591W1IBNZJAW3Mpovjs0LRCGs6amheZmhOVlhMJ552eE5qUGZG2oFvKoyH9J01eVPLJ3srzMk0TQaZABROenGxshIeSMc15o+z6zV8K/MXhUuNiEz6aWsDAHMxNrX38LNxno3bAWy/Ou6XKOwRqBDq7Fdn0OLI/gGwX/oQ6WOix2yQkzvHGtUXHfT3fOCWtPUYDO+GtTUxl8OoMHo1BhsMWYAbqwSayy6jVTL3eq9XXXrdqX/qbJ1+rYseoYRvX4VRqJRyZTk61n5/s5k0hmxJUIRtpgfeURqhLPG5c2RE4bJnN2u2MeOW0ds0RjalRKIVsQEnzacplvh52E62HTWRT17qGX+TvJRtRo7TeqTLUdjTWtF+yWzv9XWHwGqHf08LAx4UBRcJ9eVDYUkKBJmGROmEJBZR/LNm51MfePB2BL7UzT9drbmCvOW17z+3Ub8FNg3M7p4LsxdROokiRtItkR8Btp+VFwNLzgocsiByaH56aGTLwoXtG56x9c/P+elbJhztTCKnAfAWysSnv6AM/vjAgRT9v+QtueAfCLsLNAyfKenxKHW307GUSQpvPOgc9ulyIGilEjZNiJqt50zU9q+mqkw2C3EQ2LXQpez12H6v2sf2MlTex1M8r26w9oCm38eF+TCh2BRhkcMPJ9nCyZalMFqkfxy2WewLKHKrnDnUt2btkr/s7N7l/uG1cCpGM85F/QEkmjumt/0LoU+WCUKuhfKOE4Ufk5anvig7yo49ttLMBn9YG6Y9K+krNerdQChaZbgOjcXm0HraFJFML2fp/i+zSBu16h7qk8tp1Z9vnfKcZ/ZLQ5xmh9yLy1v3z+JLYOerEQl3CY0R2r8umz7TYVSQ7m1aSp3GtWWp6/i9NRwjoNbdN77kd+mTeMDDn9tSikIzHQoc+1jWDS5G0orBLyM6PSCvoll4QMXRR15Sc0JSFkemIKefOfvalr485TvGVG5SmVqKOw+1H1Z81F7fmvJKpx43I9gOlFAwy7pIIYspL5UvkJNXTdDzkIs1fdSGIxEm/P20fOPt5enJkxFgpdrKaJtdMFf4Yn40a3+H1OSCEUKpQ1lCw6BnVblZ4mt1m2q/TV4rQ0xUMuOj0brxKNGibHhMKsmngEX8VjXZVSYOwtkrz7J7Elw6bz9LjGHEnsg/egctsXAq0CW6SXxO/BMJaSUu6Hj/ZNDOTeR0e2YW/JIXtZtmHHNfr92jMVSrqOUJB4nUIwlkTPWVGJIfdiuzf6bNVZW6xzKnd4FIb69usOxv0xE5ReWp64hLqkemXK9yXLdxHy5qRz+61SOr9mIomH/zBZNPovxxl5TQJfCcs0Cie+9457fpkXjcg+6Yhebcl5XdOKQyGt86gRsDw9CJCOS0fWEcCa4AOX85nlEUMXxQ8JDMqdX6vsQUlb+/Ye8FHDy3lbbFIdoWH5n+b3zVv/jdwNDJlCt5u277ny2+3X6h3wQ82KM/JRV57GS0Q72MOOEjKX+Q1IiUqCbxh2cG8Lvzm8wPVCZMfF6FGIscLUROF6MlC/HShxwzl8dUtZEv+9uyxqrChIHvZhg/qZC5sfG6Q7XTbfp1s/J5WTvPBUBQ8cLC42zrGvvOy4lqW+PaZjiXHdCYLwjK13qkzcrKNXhVNRwDZ5LY52S6dyRoAwkos6rWVt6zdP+qdk1+7SNjwUJLklo8mMVJPJC7I6wbrfqxbGMfv6IrIieAWIPo91YzRmmw1LO3zC+2Mx2mtCJoc4GkhG+elRcwIa96swclWG3gw8PvIdmjKrUHG2vYrj+sWfknjsPs+LSYUafoUkLf2k01qRN27SIQUSVj8B5MN4102fMFL4psGbdOSxHy97cxr+i+8cVDOrckFneG5oUlgfp9d0C01PyIVnrsgnCb/LgrLWNIluRDcd03ODhsyLy513tznXt9ynGaDg0K7Egz5PTUcN3e7fkD8W/MeMs7t8UBUsJdee2dBwTNry954+/Nd3+w+f6SK5vDigHBkMKuHVoqnp3DQU5v58WQ3bw+gBpl/fn2w+7AsIfwBIXICPRISWMdN4w8/+HmyhdCMG+58YPXLn7SQjUrCJdt/nWxlmXX82uOTQR9JBxQ+HkfCbc/aZru9ZE/bknMag0VjdGggrI2gh8iGASPutmXJ5Ag0NgSVWcCW2uRqs+pU15XbVhxw7fKQnOArtztlD6oFXBt32Dg3RxpJirRsMUoEatKHOnfXerwHfDRKZP4+Z8TLR3SmSo41HLYyNotmZ6KuUNEoKMWAKd6i4MFo1bLW+P6CgWy12a411F5jqOz49B5hKhz2MqHXYnXvAnViLq2tCrLhufvkiQkFEshOKFLRVLHLmFbsKpLtP5R/NVe+tiVp7l7zdAnz2vbJvLb/wpvhsxW13UJ2KshWjFZrCEtdHJbxRJfkopCUotCUvLAhmWH9Z/WfsOTlj/fV8gV8gSAooE4U6l1TMFRMYcRPC98oizz88etLlq67JfyvN4TeE9V7xIMPP7Pg2ZfK39nx2a7qfRd8Z62sDpkO/0S5ywU28twp+2x2t80Op/7Cpl3RqfNVkaNUfI0/bY+HfoXsrul39Bpveuu7el4ISdwyGZD8OtmgDHSBZ/wD8UKjG/ly3FWM/eBjy477/rp+b9vle9oY63RlTsgSoAOgaeQQN8VtSyZ7oKFOZ6hX0+xaX5DJef3Kw8kvH3y1kuREHfNZ4IOJVzoR1VCUjJR8+B9JQC6a7/Drwy6NGacLYGyDg5ZXva7smJoGHsJbK1UEMe1fwoqr/BbjrCt2OcFXMpCtMdva6KuuW3cqKOdrYbhRSHxC6FWoTshT94GrBtYkRYCaKpEe7qiCXQ50i109slsdEHDz9bZpAKA6Yb4aoSTUdr8FNw7KVUaSdE1fHJJKwiMspQAWzl/DiObFoamPh6QuCU4u6pqUF5G0MHLwnJiBsx55zHzwrIUWc+dkw7GBbKiNVmRT7nBY/P9Qe7RPBlYOH1tpevX2mL6am+5q17X/NVFp18UNj0+a8+C8dc9t+Oqt789tP8P2n/c2QOOiTvBRGwJlLRD3kDtf/tKXXQc+oomZQEuwRk3Wxs8gshFBXonskLToIbNf+WxPa7KpVv9VsukXfCUxvINogErAdShu+zBjr9eySZ+e7fTcd21Kz6jNVqIH6tbokQywFrLdIDvA1CSW1EvUzOzVGH3t19be8syWaR+d+9JNcNfSgiRIG0owfm5cFl0F3uK8+Jwrcf6dDM0GGeU9ydhbDjbvgO8vxr3CmuO04An301xbNw9YJdDhwhXDPuC+hNrfYiBba7J20J/v+MxO9fQ3aWo6wkTusNXUJJLNsQZtLd3pLaNElLet7WqRrRxcETz8mLQCd4vbnqu9d07bxPnX9V94yxBy28Fpi0PAd/NKf9ywsyg05bGuKY93y3iadobkRSbT6Nbo/rMShj76zufbqxpJ+NpkBTzwQvU2zwflAz8tzRsBhK+RPS9/sPlvydMCQ/oHhKZoQtOFzqlicIZwy2Dh1gHXxo9ImbEsZ9VbGz7Y9umO0werWaWdagb8sUNmZ5vYqAVr2/UYK0VP1MTPlKKnamKnCTHcYV/ZZ987Kv/DH083AOrfSTbdCL4BWxBJCtk4ADwnvOZmN1t5whdl2hFUfEQw1PGJCB6VX8uCbEht0EZhHNyeZLCqqCGZCatcAcWOa1eeiF7947KDrm+44IYsaeIOmc5I6UYXo5CNxOKNffiQ5oOi5rDxufTmRpb2dYNm3QHB2CBSXeGl54Dx5wjTIsjEpUyPlzbRHGTuyPEJH8hKukVB/9cNZCOQaLv6mDb7M2GEWbjvGSlxsS6xQOqTK4FsuG1qqeCokUKAkQL+Y8mmgwPrZilPn9CkGxVNbl8Atw21TW67z/wbB2bflgS1vahLalFwSmHXlILQZMUKQ5OhreGznwDZYalLQocURAzOjhmS2WPInO79JhY8U7pl9xEku8Xls/MpwNyhKVhfSjb/l8bMeVzIPkCy+XD9lPzSDtHDxK5DxbAHhdBRmqiJ2qgJUthIVcjQa7qPD+k7M3Fc4cRCw3Mvf//Gt+e3H3FeaGT1LnaqicWlzFWFPyBGT9F2n62JniZFT1HFTOarRl1RZyc9tPS7I42NnGzZ64Kk+G1k83vCW9wkeMKr8gl+YuFu+x03G/FVw7WmI/RgRRrUDyd9GdlOxHCqMprsrdK7NCB7tUddyq4x2K57blfKy3vWHazb4SW4EZhaPbQScku64V8lsQA3P6fM7E2Au95H63kXHrLHvn5cbb6g2kD1g8bg0RqcWqNNjYiWKhCw2xJNcrIJaweN9aP5Pr+DbFQ40lM7hRmvC0mrhD5PahIWaRPyxL454n0cYtIDnLC++XwWjDJRoEUwtLarTjaHm1y4fzqZus9CdSJCyXkBvea0TZjTiXdJ3pFSdCWyQ5KXhKY8Hpb8WHhSYfiABbGDM+8cMvfuQdPSRz9seuGNWqsHggRkQ43walTJ+58hGwC5aYAauaejDWzZy5tvuHuiEHy/0HW0EDFFFTVdGztTEz1Vihgvho3SRj0oBA+RItNvSZz5txGLRj68Ysnqt154d/tLHx+6tdc0MXKsOu4hTfzDmujpUuQkNU0yANng+2fIFsOHjVhQvPsC9fIQsB6n20vPmfptZOM33FsrvtN/dxy4M7zX5onTLHzj4UBzFV9CiftOA5mK2v7IZ6to5L5bKvepDB6hmIY4iwamWtPUbtXxW5d+PvH9/S+dbtznodV2cHyZRuP40wv/4ipwarzy9xRxOH3yUT4w68Fva641HdJutAkbGG/OkzX0CCWbZLLyrhlwCbJppfqLZJs52eSzXaTFWxNMdQu9wvgnKJBQNTatydZBXyvlfC6MNgv9n+FShES2SBBzHUIDrDm4F8mGI1f4+4m10Pm/MhwKZ2xNtjKGO1vqkw24NQmZSq9kh76ZUNu3JRPZIZzsrs1kd4W2Tl58x6DC4CGLwpIXd0sqDBuQ1T0lN37wvL+nzr1n8OQFRSsPnqxDHNnCMl/jkdNBsb1/l97hKy91KyL7QMUFN3v9m1O3/n2yEDyctHKPR8S4mWLcQ2LstIDuMzQxkwPip2i6jxe6PaCKGhMYN65DzMjI+2YlTXn6/rklHe8CvpAis9RxszQx06WoSdrufEIk+ewpYswkCBUxarxIA1nHiVGjpG4Z4wqMB+v8Fb7L43R54B5RxCg65eod1gyUcsE8aKVVGaiocp2tGPZhKBcAHRICqoCeE7nV3nH5nralDao1VmGNUzL4NDSMxEvjN2j1YRc9FIZENiOsy5lUxlQGW4D+fNuVP3YsfOWh93d/2kALTBLBKFIUr3pk2WWXnTyM5peH6/Gg3qCVT95hbM5RS8d1W4PKa6h7n6+MozI6/EaLugNNgOvX2UpMSQObyG07VWUumtFo5BEnzZlwCiYnTUrXu0R6PCSiBadQ2iiVA+v6gLXn2z65C1ir05ap+j8u8ACRnr1LpLbgy8n2q5HLKPyDTDnvJWfkS3FTO4mq9wKp13xtwvy2/bKuGZh7w6C825PyQ5Lzeet1YUhyQXBSfnAydgD3otDkorCkwojkwsikgujk/NjkvO5JC3sOnJM2rujltzefqXIiggQZTg89YgZo0xuY3xs2kw0ZLrvJ8aDuldmWY/V/y5gn3J6kiZ4gRE5QxU/R/vUhWiY4cowUO0UTN12ImqCKnaiOn6rtPhVuWAgbIdyeKtyUpI6bLMVNFeOm82Xhp3Kbwldnnc6Ny+7oiTREO3qUFH3/dX8bvWD1P0/zx8WgUHGdbffQ08toHChvSObEIwgGU7haXKzX4fM1CeTTf2LgzyrTxDULo0ZluO3ic6z3q2fbLT/a3ugKNFN/JHUEAhFaRYkWUtKUewQDPiRtoJhY5gwwV3co2d+24J8PfbB/U5WMckKphItxU1ejl08sQB1HkQk1DNKXp31emkJvYfd9e15cu1dlahQM/LEbFEGixsArMFUaRqidpNmUdhLuiakNxy3xBhxONsfdhNLoUuvdGpo146I13ExWdVljkKmmU/GZTot/UA9b02bIU1K/RX6IFUtoZvpy+4/xfZlRCze1k/TOEntnahJo4dYOA3Ovg9sekheclBcCn01DWwuBNZGdUhQ8pKBrUkHokHwiO6UoOqUoJnVRXEph7MCFicMLCpa+vHXfeT8cnA8/2Yob52QrH9CcYGoZBD80E/6cnU3OWdc2YqgmcrQKcMeNF++cJMSNE6LHSnHT1HEzACs9hiZumkQTZ/yGty2m/KDZAPQMv9H+JFo4KgZkD4tKm7Pmra0nnKyaGhM9DppNA5eLoBRkgyQqaQrZdOW0ofQhVLsy2bh6HABCHWobbvsLxubtkm9es0daeTawnGnMXsno0qLq11tFGsLBVGWyUGpVm2RdGdy2V4B4WC8HmWuuW/Vj3IpNxbur91p5eNpyEqpKIJdIdZMnp0JHq+Tv4890fOhAU/ArB6XS43z+PH/KwuVkK0C3tIpwuFuRTW3tRDZf6R3XaXJwn+2mMADFEtFCGYRNXbvS89csPxw4/0Mhaal2wBKQTTMMwO4VmVbsDyf7ChNwLpJNvZIJCwL7ZrXrn91pQPYtg3I6D8ltTTawhnUZnB8yJL+FbGAdm7Y4Lq0oenDOnanZKZMWv/j+FrgwK5+LhQwCz6jD6R/KIu4BlXf8C1Tt3C3RaMHn139yfY8HpfARapriNV6I5xYzHmRLsX6OQS18MF7xVttzpu7OWVckO1bBejqfGeknWx1zf8KUJ9/ZXX+aS1mcFKf2UE+NDeqIFpmgiZYobHgFQ7xyAVo0YNb+82TjLlA3uejpjh6r7K7kT7Epq2OD3zt7TclxnalJa3JIemuA0aozOUiWABeaimILMNsD8ImZVleihyauPRpZsm3upye32Fgd0gindjmgRuipDPwsKG1ENvcY+BZO/TvGDA6W+NGp9qaDWupOtxOF5RDTAPoyshWsW+BuRXaZG2EufU5kQ3Pb8Le0uqxeVpsZDXqh1kN7oL4GkYA2/xthbIVw3xKxbxHIxiuxy8n2U/4z9geT3TK17Cdwt3TcSAlZIDugTxa57fsW3tg/67ZB2cEkSEhwc6yhTIpCkshnhyUVdONkR6UWRacVxaQVxeI1eWHckNlznirbcbqhWpkZzp+V0TyGhF4UyGHcKSGLqDPC6qXxqK9/cShm0GwxdKg2foLYnVZ1Emhd9wkgW4zx40vSgtTFZDK+f2Wyp9PSw7RDK+yQsIkZLcU80HvK02/uqj/mpoZj4GHjxc8hyzKqfLpQCChampev4MS7/+gaoQKop+YSpi8a/ooKgc9Dk4toKCk0yZp6FlaxR7PmgNZQ06bCpTPYNHoHrf0HXMwOdYVDra/X6BuC1svUIb/yeKfntjzyTf3nDrosSh0cEnUIAnGPC8EK9nCVNO4JZPOnJpCmZ+yRo86byg+qS89KxgbBSDGrXxn/ZrIRzvo/xydl+CurymTj6ybL/Nl5gNup1luuMdS0f2aPMP01IXW5EqsB6/8KsjnBsMs+VIzDTYNJ1IlZ2sQswB3UZ8F19y24eeDCzsn5IaA5dVEwwU2aOyytKDy1qBsspSgiBXAXwCKS8+Pvf7xbSnZw/5l/GzG/9O2vjjdRSytyBGKDIjPezw6no7ieZrJJeoNshG/IrG0n7CPmrmoTdb8mdrTmzolw2PTEgujxJJ25XG4Bt4Xm1tbyLbdp/Nmn3EA2zfBFTEkLoP11wpOr3z/wYy074WKVtKQjnbqJpoEBJWBkd3maZNbIn8NFfUlUxcjU+fnzZENSyW6nz+30OO0eGpgkN3jlY3zhvwc+PX572U7dmkPtKqyaUquq2AHBLa2H26ZRoJKxSWtoCDJbNStPdFq+s/f6PS+eowaWRpmPtYandrl8ss3jseGqaLE5JBVdCokkFJ4fGVtrY/2/qtIWH1UZGlWIHQ0OPpcH4AJoEhW/gWxqyOPNJpxsas+xqIxWkE1NN6U+yCeh2BFYarm++Hy7ou+FkXphyNMKssC6hWbs+Cn/Gfujyeaqg8i+HG5V33xOdo5CNj0oNWGBLmEetW3TuO18av5LW6R0ScK6ZSyOSF/ULa0oApYKz53fLSkvPCk/auhjXVNyuyZnduk/7ZHn13975AKIIbJ9bi/NOFfqUTLuduCTiG14cuBBnYuMnbSwRaXv3XLPRDFimK7nBBXcdjx89kSQLcVdlCKKYR+CRN19xs+STcP9aFrNNCGem0I2FE7MqODkBUOzjU//Y3PZx/u+OFh3tJGdtbPm/kh6dTKnE1Ehjchy8550+hTl8opkA2tS55AkCBh8tE4F/O5+1EFuNnlbbfvl34urjgvrLBLpEGDkJDVSTiNadajli6s6rdjX76VDT+9o2O3m7TVIKlwIrwaYD8lid3tdiEngsJFU+Aof0ThsxmYddoS8cUpTVgsoqbvR4FTTtGLFZ/92suUWsqmtnUZ00SN96TGteqYyMqnY1aHU0uHpA+rZbwupz9Pcgr6FQFkxBd//OrJx0sR8kC32zRP5A1SVMYAkuHvNbZs479r7FtzSPJJEITsUZKcV+bFOKwTZEXDYKYXhvH0wJK0gfGhhl8GPJM1+as2rH1fZqR3YC29DEhYhUIvyBhJU9fPMo4Y2B39m2XkH2/DRru4Zc4WuSVLsg0LMGJIQsZNagkVCFlhHTSLjagSfXJFsYhqv3JQ1oshtj1NFj2x317iugx++c/iCsTnrnjR/UP7etq/2Vp2sYTU28t/w1TZCiloknTyKBNaQKlck2+208h+7PV4n/Df+AGX3PHer5nrWc/2PNxiO6vQNNDWrQlkuHvx5BIMcUGq5ZvWJHsb9ud9UftVEwt/mgpwhfHFoUkE+q+xtpBKGi+CKDjuQUNsZe0lm/T+vbFN+TPsC8OVk6x2SURaKbXyeIjfauQLZvKEaDrsV2U4a5mpsJpseu8NUpd7AEucNJY2B2d8JD5qF+xYL/fLF+0iHXIb1/3OyOdwtH+KkILuA4O6T1zIGUOydKd07t03CvGv6LbhpSP4dkCLpi7umL+JkF7QaI1UQmVYYmVoEi0hbdMfg3JC0ouDUgs6D5kclPzJh4bKjFyzwP3w2Lo0PQUivOGzSpdCkhL2SY+QpIUiqXOyzvZV9J+QLXe4TIocJUaOEqHGq+KmaHg/BN7e4asVagG6xlq9gfrK7N8PtJ3sSue3IB6WYkRKO33lgUGTqTXc/EDNo2ris1YY3trz97bFtJ5uONXnPuymKUyQ4bgEqAFr3SjqbaiWPz0XD7nwUSaKooopCEQHcPzC27Azr+86FgFWHAitI+6qgRsqYsM4TUM50y8/dtnT7zE0XtnhZJS/3vBDROYE1EgWxCuoOaH+CnYasoMDJNLOYsfl7Gq8r2a42n6MBq2aHZHLSsmYGtwbgKmT7F05wc0a5XQ43sG4hW1aZnLQYtomWxObdNLJQ4lIXO9utbWr7+GFh2ttC2mqh/yLquAY0rRz2r9l/juxWLSQ4qdJrQ2fHVwQ3jQGk9bYDes8PSpjXsS8Nk7oDLjljcdjQReHpylyEFqMxgMowwC58DnznpIKQ5NzwwY/elTLz1fe/r6530OJo/BFHiiChGh+hEalu5J6fbHxo97BaNz19ZuYTpnaxaapu6WL0aHU80QysW1P7W4yTPaWVTRW6w6YI3SeL8RPV8eO1cWMC4h5sE/tA29jhbaMz2kWnd0mY/Nf7F45cuDprzWuvf3/siwM1xxpYtZPgpoIn236ebEDoorYTiAiX1082aRg3HymFOO+dRjbnh9pb124JKjkeUGajkRslTDIwzcqGG547krLxsH6P5TQ1reNQXPVwyYFUgcJ38AWVZa+T5jnItIpUNXMdYGxjE8v49EL70sMqcx0n2woctQan1uDSGmXyuH6yW2GNWoKvNtgabk42lAngpuFTaqNDMaoB6Bny7nYG5zUrqwKytwijXhAGPwdvremH+v2/jmzulTnZfrgVspUOI4XsXDEBbps0ibb3/MDe8zr0y6IBgDRomxbZ4Ys05HWDpcL8ZIdzsrv6Q8xFUOHhg+ZF9Zua93T5tt0niWnUp3wECfZpo6YGCso42bThH5eXYqdKNyssfvXmv48Qu6VRf2EcNX2AVLjt1uD+upHOBtCTuSlkw4UT3Kr4KVL8JHXcBG3cWF3caPAdGDMCpo0ZIYSl3dB7csigWT2GLxg+d7n+X1s+2nLsyPnGysZGq2z5ebJBm6JdaBQKX3EZcONucT8ONwWiiCY/drGJX5zorN8WuPq0ptSlM7L2ene7xw8kGo+u2+naaSEdYpWtbmVaBScbCYQD8iMjSKH+I1RyUGwoKt8wln9Yjn7xaJvScypTEy0BZW4UTTaN0UFwG90/R7bnorV226S2Ydingdpqg0tjAN+kbSSjU6e3diptuubpo+L094WUtUK/J6S+Bbr7UL//d5Kdg53mDy8lW/HrNLqVa5J75+kS5rfru+C6QTm3pRR2oTnt+V1TczjZuRxuIptjzYdup1GzSUT6Y9Hpi6OGLIzs99CgB7OML31scdG40yYHBZHNICPTAADFRPwtvUCu2LyszsuMb3/ZM2OmGJ5MfekxENkzhOiJurtnXc7ur5pfgcD4un6KOOk+FfJGVOCOn6CJG6+JG6eJHaOOpSfaiN0nanpOEKIeCOw+qm3ssJvvuj+276jpCxaVbNiw99ieK5LNtTkEN9wtLfCDeJmEl9KnyW8JOL5U6xn+7sHrlm5vv/L8dSWN1zx7JHrpj7kf127nWCPQ5j+nWAQ1GY89cGAapQqaPXzf6fEgMN3NWHkDS/208tqSQ7rSWnpGjKkRZKvMUBFQI/DZnGyyFrIVpr3cWuBWBAmwJiHOR27JGprK7lEbyX9rjHbNmuprVp0LytksjFgv9F8q9H1M7FNAzq8Paev/VrIVuFuTzeHGVwm0DqAqYaFw71xN73lB/bKuHZhz05C8O5LzOifnBCcvDCesFbLzoLn5RBvFCiIyiiLTF0emFMal5vdMze4+aOaMnDXbDtU0uFmDE1UqvDRQJpHNfRBNuSK2kZW8awI6s4mxTTuPPDD/GTFsiBA2XIyZTO13URPUPWfADV/O7q/YFFXcZJhCNj18rNlo9fh4vl5rPErOJCl2gook+FQUIbEnvhqH+BVCpV1kUpvOf7shrOf0eZlf//jtL/hs5mghm9Q2RZGAm7teUOqr99FCe/+oYamvHu+6bMcdz26LfPrroi/rv2ukLn6ki12muUiAGCjjmLypFIWEIhEIOLcbIh7+m6ZLQmHP3WPpsv6gtvikprRRTVGjlXofaXk+OFoXdLb/SaS/QDZ9SDqbBAmZjOiW5kTqvWqDj0aTm1BCLG3XVXZ89qB29vtC8mqh7xNivyVEc68c1f+fyL4It5BA61xysuepIUj6ZHa4L4ueJTkk+46k7FZk58J5Q3MrWIfSc8nyIoZCc+eHDc6OTSvoObQwZsjchAdz9G9+e6zBa6EYUQGZK2y+/CnIBhwK2eS2GS1nvudCQ6H+n22i04VQIluIgtSmgXu/l2xamyF2MjcedxLQCtbKDkWW3H/Du4P+qbq/zhN7Pkyfx4zRxI2UuiUHdRt4U9yAMbNzy19943xDzc+TDWlM8FHJxC58Lpw1BDHeEKSyjdZLAJp1fFLZ8t3OB17aE5H70qDn337/tLeGg4tj8D/xUM8WLw6UHP6E4oUePoDXDEfg+x1s8KbzQYbDoqlW0ls1eifgVhkdfNAsMaqGPyagFax/kWwON8imtVBAtt6n0TO1ATGAD2TrDI3X6as6LPlRnPCSMHCpkLhY3e8xeiZYAip3wvq/hGxFafwi2QrckOBw2zkQJEKvTMSRusTMtn0yO/adf+OAzNsGZ4HsMAiS1Ozw1Jyw1Nyw1LzQ1IKusLT8YHySkYvPw5OyuyXlRCbndkvOikh6dNYzGz7dfw7OGBnHySaFzSfIQp+0qEraQwQF33fW6d342c4ufaeK3UaooiYJkZNp1F7UBGXs3m80VQxfTyd2MjfsU1uKwrTC9yVGonyG0G2a7q55ECpC1Mg2PUcKXRJv+evQ4TMXvfv1riPn6oDsz5NNDT1EIoIGl4d0F+4Kd4KvACZ/2ihUslO2O1k1Y1sc7J/nPM9/e3jDzpPnfJQiDgfNHiCFTg2H1NfoF20K2VREcBIapQXR8qOP5e/3hL9wTDKfEzbYRL1VW+rU8DWoqDGxglo5RISJfqYVrFuRbfAI+KWf7Ga4oapJYcNhM5jkX+zdFWhoaLviiDj/I2F4iXDfkyBbSlwkKI+Ubm7P/gnEP2t/MNmE9ZXILuTWimwO9/9X3XnAR1Wlf/9OSwNE2ZW6SkmdVEJZV0kmPaZNSShSEkpoIiGkziSZJICAZV2VIgYSKeKuqysIsr67orLW17UhVQSkKD3SUqfP3P/vOXdmSCYQwr6679/7+eXm3DPnlpn7vc99ThfykXBIfBXFvRWLf5tUDLL9lRVBhDWpI9lwwYerKwJzAL0uBGkyKwIzq0aQjS9NfuypZ7f966yZXtqsao2aQOFWsrvvMk8QcOfNRp7G6v/o+8sJ+St8o6Zz8plcOIwo8yjukGwALY2YDUkoPJeq6IXCwZHzqXO7oGgmgnuBKGIR4JZF5YvCxnPBqffFTV7asPOdr0+fuc63smajNyebiuVJIBuAAm7KBbI+ZRY7vanaaR7ddkBL7fMamUdxoMV8wmRtRu7QZrbazHjQjdRX2Y5fx0q7dyabShFtVx2OYw5+Zyuf8c/LvuuOc1toIHppfavPeoP3eivNs7rZxm2hYmnxJoDrdkU6800V5kLYLSKb5R3hYVOJDWHd4PBuMPTdcEVc/Rk3YyuX8TSXslycwPrqChOWEtlwSBi1t5eAoMDczy8X2SSEWfEIOGZkC422BbIRGUdjw4JsSVylVKGVIR8ZU+QXU9gvsWRImtZfVRWoBtAw2G6bXU1wq6uHgfXx2NQy6PUh2UvhmgfmVIdPqpj95OZ9je0wOgDXQsUklEOCaSOyhZtIUbinJhNvBQ2HGw25Fev6jc4ThUyDuYX7K6EZw5wNRToJuN+MeBGAJmsNH5oC5Jm4bLYn1qzMG968d8SjPnhFBGgkQWmjxhcsfmbTv09eO3nVJmBt7FoHKdhqopAWekJZboHihRjqbU+18/im+ISsOpwNONMQnnKhTggxAJgtSETtEIhsOhh9AEtuMlub7WbkQf9p5suP8gNeOiPbiPyiQdTQ7re+pU9dq1+d0WuDhSrDyRgDaKNLQj5SyEoyUa4RcheP0JMAB8Z7i11UbxILDQ/rHV4v2e9paO/9xFFu7jZO/Rz1IUiupjW1D1nGJa0AK4yhnsqDxZ9XzBvRi2k8eRpyzSUaALazcP00NqxYUSWNqfAap/WJKfeNKfV5aLHfuMLfJpcPU9UOV+pHKKtGZFUGKKuANU34q6kNyV4C6KEAFcUzK06zp47QVAdlV0ZO1Na/c+CchW5lO7U9Mtqo5w1NzIH7iDvO7jzCZLOA0cUW63Nb/hEcny/2V4vkuXCF2UAi+eBVEFlxgE5zd4BsFnAC7RaSzRLRZHmuGZhulG3P4UZRIYl49HxxNJuILHJWnzHz7o7Kkw1NC0nMH7/oifU7PzlwrrWZ+Qt0hXaYZHP3ZN9kIXt+kwX+C72zBLhBNh2BfgAy0XC4nU88HhFssELxRt5+kE349PC/TN71jVRt3mCQbTT5rW/uU9fkt77da4PZSfZGE2sLRe31XI2i3BK6hDlLr12iQhKvzTTxiOhlnj0bNr8G070vXOlbs5ebvIlLW8klVopTqmhMMxi/xOUkwuiGpexevzTZEKgVx9fcVqK4akis0MucZGt9Y8q8HyryHVfUL0l7n7J2qLJmmLIafPurqv2VZLCRgwTc/hQjqJrN5MTIRoCse1nh8zs+O21gBVzg1+SwGYSbSNw4hTsJm0UTGjQZHdt2f5X4SBk3OMk3aoYIVjlqHsgWR5BE1CQVeUomICt0DGNwk3vNhDQMayaQ7SzYZhoFpudyobmkkMlc6FQucKK3fKL3sJS7A5NUc/QvvPbu4Qtt1/AGEfKBoMxutTu6tGL9T8nGgq9NmU08xIJtpp+CuqsbWSG42ULbzKFhpUXf8/z7dr7ooGHYluPihkYqBmlolb5s8m5o8q1v8qqnBkxkjIlaIzVD7Sgn4oxyymV2lIV1orHQlAwNZqrzp4nwjL3rmvo9ecJ34btcxmoucRnIFqVAei65Rpy4TExjq/5vIpuasN4Z2cxm67xjtN4x5d7jSnzGFfVN1A5I19+nrBmqqhmmqhkuDCCvJJGRdpMtbN4gu+r+1MLE2Svq3vqiEW9X2CmLyWGHe0nl2cKNhVgYMVRbCXv+2cGzeUXPcr3H+EXOIKZHLuiWbAY3M+dip5ByFs12AMtNRR8dyA6eLIpCfJ5P9ExZ2BSf8Mlif5V3QGbs+OLSJzZ+9O2FM+3UNOOqhRoAIltAiBLZxp+TbNhtPDRgl54d8EsVWeTzWHmDGblK4hvZEepqAGNA85g18Uk7vr/rhcOSTU3cVlhWg2SLSdbQ5F3fJG1oI5fDaYNhlWGewTGYdmENz0Qw2/RpR7nsd72F24Bnw4I03g0tfddc6K37nJu4lUt8iktY4hrTjIbIkcbXShW1YjYRXs8lZPV+Md3K/fAUeVM08LFePE4njdHJYnVesfC2S71jS3onlPdLrRisrLlPVTtUXTtcA/tdzew3iSh3kq3vSHYIjZNWOnJ82aPLNx5ppLl3qX0P7iq9liGyTfSPwkLFJOW1jp9rr121jev3oHfoVCohoQk6BF67kM1ERdesjM9VHjJbAu88HHDnU6mfUGtDZOd7j50rjcqThFG9oyxQyQ2O9w1IC4rNW7l+xwf7f2gG0w7+MrB2ttYgdhnZpp/TGwHIsMp0eJyEigrxdCPSZOGNJt5g5NssDmpqCOcMmc6PeX7ZKX7YC1/3rftRRoDyXINF0mD0poHZm6UN7VSATTXn1NCKJlqggdeoNtElbAp5xBtio0PBCaGO7tRqnM3JJNvcflfD1Xv+eNxn/ttc8nNc3ApZwlJxkp5L1HGJWi6hUgaDF6sH2a7cYc9E+blfUp2KYm4tRjZ52zEV4tgKqQLSSWPLvOPKfOJL/eJL783QDwLcmiVDNUvuV9Xcr6yGgDgz4U6zHaCqDqDZJWmOyeFZFf5ZZYHpC/8wqXjrP78832Jvx4veCoiZK3lDuNWC400m/HIb/9ruQ4PHThUHTpDChw6j3gY3yKY5eZlo6jDwnU/uchQgRpbRpfB8aTjWsyURrISbpq3BAzDTZwziJ98VPaVvRM49YVn3hqZNnL/8pW2fHL9ovGKmnIAw8BqVyNngGOAiiTpH154H/znZZKKphAgbLptNDxHstIk3m8hmt1kd1OXYaLeesvOvtfNTP2+/67lv+m68So5Hg4Ort4o2GLzqW2UNLWz6YDfZdhFVJVqoAckNEdmsN7tTBLdAdoONhotA3nGzA8a+15a2u9ee7Vv7hWTKK1zcE94JK3zhfsAuxuuEKRglsRWAG3k1T2i6ERVN/PLyOOlN5SY7thL5SLGiUhyro0ISVgIojSm8++GKezOrhqiXAG4Y79+5TbibbLLZgkNCGp5VGTFpiVxVIk+bW7iy4cCP19scvEkgAzf5BtOs3AvvabrlfIuF/+zItaS8JdzQLBl5F/M7eCMC1syHHgm4kUeEy0ESR86SOCWQDctNpX7MbAPrWZKo6d7RuV7h4/tEqGVDY0MVkyfNq/7r25+dvGhosdEk/0LRBUyowW4zwTkiQH9essnfwjNjgD9NQw7hFEz4gB4m8r/NJrvBTr4a32zhvzHy5UcsYdvP+G046QVXZLOV8nlwixvaxS81U6/eTawCUmiyx6pphFYfN7TRJO4k13ALrA6S9tpCzQ9FL8FgX+u18oB0wS4aSyRuhU/8cr+Ex8VxwAJOdi1e/SLYOQFrZ1Hx/xJ1pvxWcr9DYiupvimuCl9HHKeTJegkimLuoYW9k8v7pVcOUtf+TrN0iLp2iKrmd+raodlLhpFLzRwSpasokGmEskqeUyNXl8nTH42fWrJp1ydnmu1tcKuJbNx+AWsLyUW2xcK3Wvhjl2wLHn9ZFqiWyKfLoh4VkWtB6o7sqJmSSEHkigBuMSw981LYp9OlUVN7jZkqCU7zCUq4b2xm6Yp173526EqboxUuNfN5ITMVt9O7g6ClKwTZuLBbl41QupstTpQ7LywnYQLZVKBHhUFOtnE+kM2ylVazzUJ91nj+rI3fY+JT/nlO9uKhPn+5xjVck/yZ2Vcaa6GdYQ3WW7gtrnkoQSrNzmFkAwobqHDQJTa4sCD4M0z0PECAmwaOkqxv7rv2gpf2Ixr8KWGFKH65d8Jy77hlIkUtF79EmrpclLSEQ6YwSQDFg63/v8L1dHFRuoqKupliiGwq22ZkSxN0NAXwAwt8k8r6PlwxQFU7JHvpEE0t4P4dPJOcpS6ykaEUyCazDQVl1wYoK8NzKiM1JfLUWQUrNhw41wYvljJnxA0YYb4mjJVQ8utgUwvY+J+M/DNb9/QfO80rNE8GdyKc5r9jmUJ3oYeL7JEC2TOJ7KgZpEikdD4JYmJ6hhi+9cgpspET/aKz+0RljFbPKXmq7pNDJ85fbycnF1dgxaUImDksNPQwA5bAhZmllk4cyxDcTB1w70bCM8DeUlY8vXA8jGyyAuSpwTFETxXlLR24lFYHjRT1Dc8/d4Yf8tJh7y3nuY2XuY0tyPmJN9ukm83STe2STc2izU3cFpDdJoyJA0sMqywSWpJ4iEx7m0t4EtwyUanIBoNf3fV+z5zkZm3nlGu5tKdFiY+L4paKIcUyMfhOWMYlIjdZy4Fs6nbglLM2pIvcCbpJ01Ed03eURzK3OiVjPQwEdcxcuiM7xzstN+Vu4ypFCi0XWwqyxbGLveKLfRNK7kmrgNkG2QOz9NB9yE3C8XCWloBsEvO2kbmsCs6pCVRq/dMKwjIfi8qYventLy4YmGuJ+013mxlK3FtqgExkgXB82srzb3x4ZIymlBueLYvIl0YhX8iGDQnN48LygDI3ciYXkUedCSKnU4/giDxRZJ505AyOGnbPlI3M9xo1m5NPkURPl47K40KzuTCVKCxdFpqcPKfyhTf3fHrszDU732KzwUgTeIJnRKDiugAsLsVFNhVSwGa7UfZQB3y7EcPadUB6kK2s+TUNAU85Z/ButVosQjtsmpz4oIPfep2f+HFbrw3fcw0/0UyTVAxCLadlG81em+BptFIrVhoBvo11YTSJGlifsc1myRYTJO4koN8RaLcM3BbkR9vvWdt4z5J93CNbuIf/yCU9ziXCFgIsIltCcLOqdfgkySAbYJE6ebFdJKTpcSX8jfRueSTwkCsZAmAXHIPaTgWCQmSXeKqkpOIUeCOMbLGCpm0XxxZ6xRf5xBf1TS0foKwerKoZxNaMbGrp2pFsMtuMbH81wpUhqvIwZVFQSn7Js69+fbq12cy3GajUj9VJ49ULrOmWw37CFaDm2jb+H1+eyJq3khv8sG/UbHH4DGDNBsShoRrISEczuIFyZJ44mtaM7OmiCJDN+s5E5YFpafQUUUSOKFzpE60aqJiUMr9q1fb3Dv7U2mijh8fEPFsLtdtg5hpEk8sAYNniBBGs/Ww2m70hwDG9q5CPNFHVpNB7AahbjVZjG/z9H9gEBoXf8YF/uyBafxFeNbKJIhrc1S6hEVztXi/ZxBtM4nojR13iTWyMHpoWR0QTPgnV5h0Fr1oo5nPLWfYn2mSUbWrrW3/tt08f71XAyrATHme2uZpLJK9DolgqpdkLltB7P6WGS6mmDmOswcZtRT21epZSkJC+53s5EydWiRMrRQkVHqLRBrvGU/MSNvs1NSCpkFAXslL42VLFYi/FYp+4wj5JJfemVwxWVgt+9v1wSNS1gkMSoNQHqUjMISErPiyrKlBTLc/Wh2q0AQ8/mjirtmHXl5fb+WZmuc1s0CPcYpuVzSLKPFwYyXae33v6aukzr3IDEmXyaaLQPIFsZBPZzNOzxKPypWNmi0eB7+mSUTTLOlwOkC2OzJVE5fr9HtnNR3zH5HqPmiSSZ0hDU0ek5k2peub1/3vgWLO5mb0TLpuoRQf8AurOwh4qBreTw85kG34esmlhzxDbkbnTDpq9gch24GIMNlNbG6udebWJT9rd+JtXzoo2XBa9ZJBuMnltNMnqDdL1bdK6dsi73kRqMDIhwPrUUNcBUxcZJRsNss0w524ZpVtIPpta+2y41H/N6bt1n0imbuUSV3JJS4ngVJBdCcdaqqiRxdZgzfKRVVwKjZNN3Qo7iAYZc8njo27U8/Tug98ivY7mqekgUbwW8oiEKJ4OAqYrxYoKiUInVZRLFaUyRbGXoshbUeijWNQrrrBfSumgzMr7VDX3g2xkItXIRNa6yK5ytyoJ0CwZrsS61l9VFaKplKtK5ZkFs6rrDp8xtiCnaLfjnWwhtqjXiB3eN+47PFsal4n/scXWsOuLfpETxQETvFihh2CzJdH5EJiWjZ0jGQ3jPQNkS0bBmSampSPzxJFTuJBsSXjOXb+f4hOp7BWRFpyau+ip+nf2nzhvptqP63Z7i8PaZDUCpjabwUz5VzfWgjfCOBT+UbXKz0Q2HZSdCUHqGAqsATTlna1sghJ8axNeYMd5vu60Y9jaj3vVHfapP++78VqfTdfu2nS1d0Njr/WXfOsafet+6lV3pVfd1d51V3rXXe6NzfU/+a2/7Lv+st+GK371TvmSLvvW/+Tb8JNPfaM3k1f9JVLDRajP+rOD1x0fsvKLXnNf57KexVteklLLpVZxyTousZyL10oVOi9FhSyOAOKStaRErYTG8HVKHFfuoY6fChIGRfCQ0Jkc8oj3kDuZW50+7aJbXYYrHkYaTLPCbIVWpqDpmrzjSnziioC1b2xBL0XB3QmLBzxcfp9SDw8bBpvZbIFsAWsSyA7KXjZcVetPfFcFw2xnVwRnFT04qfxv7x+6ZqWW9200mh7MNjJtzKGlfw6TzdBmt1yx8e/uOzNuYqVouMY3erZX9BwubDr8bOrLODoffogYQDvJniEdDRdlqjhqqjQ6F9ZaFpbjG6GRBCT3kifHTy1+4qXt3/xwBUxTew2Ho9liMtjJr6e+AtTMkOBjZANrbMLtZRASgPgIl9WdN0I73lY3yHb+o4PSK4uwpo/J2aZRzUyg+7CBf3bvpftW7rz72U/7rd7/m9WH+685OHDtgYFrvum/al//VQf7rz4ycPWxQauODV51dMiq74as+nbw6sMD13w7YM23A9cccWsA6dsBaw9D9645xHTwt9DaA4IGr/om8E+fDyl/y2vCai55KRenkyZXcgmlXPxiLrFYFF8sjSvBvacS3/hSLokkTiiTxIMbUFLWjYQ0Uqxp+oHbSxZf7iGPBB5yphFOcbPrESI94unZiNVKYytksVpZbLk3dfil5qx+cUUC1n0UBX3jCn6bVPS7dN0wpR5+SBeyqTEgyA7ULAXZI2gW99qQ8UuC1ZWhGl1YZkHZ068cudDewkb4b3K0GclsU/EazDVIszoM8DvhMHz9Q1Oetk48XOUdOcNn9DxxxEyO2kgxsqOQfcxjZCMHmScdPZ2jsRwekUZP40LH9x01mbs/XjpMkTSt7OW/f3box2stVr7VTJDihQB8TRajlVpwkA9CZBNviIfri8eMNdxwcYhUDprNwwNot+6MbASwE/wQAys+R4D+GOMsI20ztNvNh6+01X/1Y/qmTyLXfOD/+K7ApTuDlrwRWPvX4CWvBi99PWjpm4G1OwOqdwXpd4VU7ZJX7QzRbw+u3hZQs92/dntA9ZsBemi7U9XQtoBq7L6dtGSbS29AQbXbQ/U7+s+qI/cjXsspSsTxJZxiEadYKE4olMQXyuIKvRSFXnGF0rhCcWKROLFYkkCUS+JKbiskIyHQM8niS93y+OimcqZk8jg1dNN4muIjRiuL0XrFQtSP3S8OKu4Vt9gvdqGAdV/Fwn7xiwallsGNBtyC2XaTLXRNILLVbCju7KUB45cFT1gWqNHDJwlXFsdPKt2046MLZlsTb2um4l0ynHTjyWzj1puQv4J9PdFk06/dNeiBfC5goveouYLZFkXB95jFReZCkjHIROZyUVMlo/K48Elc2ETJSLgi6ruicgLjZsyuenHXp9+3gCHWKoUd30KleMilEuQEG85rMFnJDaGMq5FqSAluV5E2drEBeevPSDZ8LjM8bMYzvR0ANDwQZByNDofB1Arf6OSVpv/z7dmVe45M3vBO8pLNyfoNCbo1CdrnEnTPJlQ8H6ddoyh/IUG3IUlbn1K+IbV8fYr2xSTduoSKdfGVLybr65OrGlI6KLWqPqVqQ3JVXRKkfzFRX5dAWh+v3xCn3xSxcP1vsh/nxhUgFyWNWSSNKRCPWyBTLPSKW+itWOijWOjL5KMo8I5f5B1f6B23GCLcbyck84FiC317Jj/FYl9B2Iu83tsIyXxhaxUkn1icqJNuEV/MWkGV+sZAxX6xxb2p/0HRXXGLe8csvCe+sF/cor4xj90Tu3BgcsmwjEp40jDYAtmsbOSGN+KvrBmhXjJCXRuQvTR00nL5hKWByopwdXlwwoyilRuOXzdep8wcslAOMygh0ODlAkITMnZNDsdFK79u22dxuY9zg9O9omb3GjtfHAF/mrKMjOxp4lEzuCiQPU0anceFToR7LYuaJApKH/rQxAU1L3x08MKJRnMrGwKKFmAFYq00XBnhhrPZqG8PK/bD6eERUV4WZLMSGoKWkY20NN6IAHFXdSL4huC0d1jY+YUFYewnHJ8+cB+Kiv/YEJUA/8zV5j37j778z4+fe2XH81uhN1dt3b7qlW3Pv4L1jlWv7Fz1yluroa1vrdm6c/UrECJ3PP/nneu27163/d0Xt79ft33Phu0fNGz/sGH7By/t+NeGbbs37Hhv3fZ31mx7Z+2O9//0t3fXv/PFyr99Gjlt+W+SS+9SLOqfWt4/pfTe5JKBD1NgQGoZKcWp/sml/bGm+DvQwNTSQSmlg5N7rJTSgXdyioEpZYOSywcna3uoQcnaAcna/kwDkss7qn9iSf8E0sCkst+lVgxN1/srlwSolwn4Cm1FADe10lY6W0cFqKlrQqAG9rs6SK2H5GptlKpgVNbsV/fsPdNGw/Na2P22mJGhstht1OsK6MFmX+b59w6emaZ7gRuc5heR7x0+3TtqunRkriQ61+cPc8C0BG4JHJWx8yQRuVxQtk/EeL9ITcyU0nV/ffvAybOuej0iGyTRzJKd0XOy5kQL23A8IFDu4s2Z5Bbj+nUjj0U4TDdLx2RWq7W5ufns2bPHjh3/eu++r/fuF7T3mwNufbPvYFd9vf/g14e+/erQkb2Hjn1z6Pj+QycOCjp8/OCRo/uPfLf3u6P7vj916Mylr06c33PgZP3bX46ZUnt/evnglOKhGVoI4WEZuK86WCxoaDrCHtL1XMPSdcPTdCN6LCTGLh4H6Ubs+BUj0ip7qOFplcPS8aU8VAWOofvTqgQNS68ZkbkkQLksSLOchmlFTlEYSZ41bRUUqKohn0RF3YHdkqt18szHxuYsrFz96v6zrU2sasZCXRFYMaDDbLHT0MNtrMri36cuFf3xZW5AYt+Rc3zCciXyyZLIqVzYI+Lo6eRqR87w/f18LmQKF5DjJddIA1PlabOf/+vuI+cuXTe2UUtwG1wLIpt6gwv2twN1hBFbgXvmfmDDSZdANjAXtv57ZGNto3FdhcXa1m50q91gcstgNHdVu8ncYjI1m0wtRkur0dputEFGZMjN1jazqdlsvGI0XjKYGq38ORP/+emr2jWvR02oCFDRsARYB2nohcuEgFMwUUxwNAXV3JHw1r4jeex+W3nsflsFslH8OolmzVsapFqGNZvZg+Y/oCkQQLbqcUQG0lxkgmrdv4NrarJqNoSDU3JVZYSq6IHxi+OnFG3c8XFjO1VYkMdJLJGFNdss8DlB9jWeP3rVsOr1Pdx9Kb3C87xDp8rCpvUalS8KmyYKny6NmuUzarZX1HRZ+CPciLQhMdPyl61/72jj4cvtsPeg2Wi3CmRTGQg5OcC3E3UMKVoJHLMNJ4RCDMgWPv/FycaCZHa2dExPrrxLwtV1I/YNScLVd4inJmcwGvhd4P9dsvMn2/n3vj0/oeSZ4KyiIFVFoFKHtTwb2SB9oJKGlREcSqdbqYQQD+GO1gYpl/RQgIbZvJ4KibGLx0G6EWiDVyA0vuuJ4D8wW+shwH1DATRzTa1/JgmBIBUQd33K0gdhnUVkBwNrpTBamlOhRHbJSGWBPCF3QfXq883kM+BGWCz4T16DxWZGyMD6lFyy8ru+ON5/zCTu/gzv0Mk+4bk+ETO54KmS0OnekbO8I/I4fxU3MOaeaNXjm99+59AP5+xk6a+bzTDYAJoVqzGbTUUftyRbAIBWiGQbAhsusm85rt8t5bHQQW63IFlHrBGG0UYElbB3EF3hLUQPAEvljmBZZ+QbzBbe3GI3XnfQULE/mvnPz7VU1W1TzKga8XBBsLoCClLpQnNANiDGJoAWuruyogCaap/xnaV3zaHYUwlj+PZcHrvfToBVH6Cu6rn8qV11V1UykQ/toSB1jSDB9xCqIYOU+mAqJyGFqPRyl0JVFZEa7ShNSUjC9OTJRe9/eaKNVT5arTZWeGyjGQgISnJI4IXvPXM9ZnI5d2+Mj3xCr4hcr5BcL/kMv8h83/DpvSKmcoMUYelznnj57yfbHResNGkYDFMrTclHBS3CSAduK+ZBHQHkWtF/AQe2gdV/m+yOC3Zh5hugu67KJVeCW8j1TeHUUM8lB7VesFC7WXh41J8ez/0ZO//R6ebEfP3oSeX+6YuBtTy7CgobT3XFND6BugrGG0KACQFBgkNZ03O5yeihPHa/naqDNHCiKnquAJX2ZtL5K+GPVQSqK4Oz9R0VpKmCkyYoUA0/zf3A00AOUIi6MgQ/IFOoSgeyx47XhiTOik6dWbJs3b6jF9qQZwRBrA0pK7FgldpMP7TYiv/0Z195hsQ/o3fYZL/QaX0iZnoFPcINzRIPTXloUumzf3nnm7NXL7MesW1UXGgC0CBbEPnvNC0GDNnNyGaLM4R/DA6IJXaTbf3FyYZv3TGZO0zX00HuxSPeLeFD9k3xgnKSbeYNJpqr3g5X5IKd33/Fsu7tr0ZPLA3PLg9QlgGOYJA9vjp0Qg0CuLu4ncHZ1W65by2EBMHZSN9TUc1zj4XEHrvfViHZOrmmp0LiQHV5gOYm8leXB2p0QdkVwTmVIeOrsEY4KLsyUFMRqMHaJTWOoAtSa90K1uiCNVhrQzRaubpcnlkcpSyJTFswOm1OYvb89Vt3/XTdYgKGcLhZ4zcrqyNsd1CF8xUb/8r7+8bkFHKDxvUK0fSWT/D218iGZfrH5E8rff61fx080UTDMLU4rAAad9DGBl0ykzdCBhtMGy1mC5Wn3ZJsWrBFKcAHBVhiYQvBX55sOB4ecGPBJvNGnMKHt5Vw9Uww3wS3zYEfFs+67bqNfqafeP4fB88rC576/WTKy+M++at0AXBIcvTBOdUB6soRSsTgduoFdX6bVwZotB5MdKNATXmwqjykx0Ji7OJxkG5Ex1eXhah6KiQO1JQFeEo4mjYwWxeUUxE8vhJCADH+akRWBIJvQQQ37Dp+NK1bQXgeGNkQyB49UR+RuXisuig6dXZU3KRFFX+8DksL60o+Cci2m61mM8v/GRw2OBi7952auPgJ7jdRd4dm3hOq8huRGhiTV7162+69p7+/ahSqzakZtc0oOJuMLsGrZoDCgFF/Riq5JkBcixMgLAIMAstYs08oggL4++XJ/tkWnIounImFYSysrHN8k92O99pFB1+x9o1R2cWjJ9QEZeLeVPhrdEwVAbh5OXooaHx1yMRarANANviG2c6pwToguyogWxeQre2qEeoyf1i+zgrM1gaCJ4ZsiFoLqxmaXQGF5cBCexpUCDY1KEcX2GMhcUh2hVzTUyEx8eop59cXfgEmfE2n2A9STcKPQNILgi3AT+cS4K4IxinUuuhsXXRW0QOaogdVj41JnpY+cd7Odz5tMTiQ12FgwguAvaE2FSa7pdXO7/3hStkzG7m7g/uHp3gN+f3Q0Vl1b3xwpJEqesC9gZxyGDyqLRTKrnEQYC2oE3K3wuwGD53IthHa2K9Ln5rbymNhJ/mvLM6v4RIZcvoVQDae/nPtjo+/uzS17NmwtMdGaiojsqtD8NrN0cFo4XU8QlUGKxWg0cFQBeXASlXAnDP7XQXBYPurdcykwbB5CgfpKsTj7R/EJFi17gXjRw/DHYghBee4Z4LfFaDGl3ULoFfQi6iDXC8rVgXTWUFUI+OslPHP0iGr7aGQrPIoVUl0ZsGD2YvHqRdEKiY+kDxxxbP1p85dsTh4C16f7IaYLEaL3WIwG9rtjtPXTKv//Heu71Cu7/DM3EVPvPiX45fbmVcNrG2sTZUV2S2h4BprsOVBGkmA7FaYsbMS2UJAiKAAjtVlVIbbymOh4/3Hi3BBd6SOZLOyknaLvd3BH/rx8vo33kufWTUqa1F4WlFgSmEoXujZpQGqIn/lYv+sogBlcZC6NCQbLJYG4d2tKnNDiYCweVPhI7duRGJfwJetheA5kKehLhMkbHqK7eLe/bZi/gAeHhq7rGeqZFlAIfMnZATdJZuVQhEQK/2oviFWtNdBeqaqDuUh+jC1UxFq3Uhl4cj0eaMz5sRq5j+YkTcubfL4vEdffm2nCXAytGCAaWQS2GyryWinMZU+2Hs0KTs3fdLMv3/4+ekrzfC/jSQLHGtqB+uwwjK5ySaub704gemwOKOICg+ysYnDdRmV4bbyWNjh/6NFuJqey72LG25WEIgfp9lo3/7Ox49WPPmQcs4fVItGZxZFpBdGaIpCNYVy9aIQVUGICutFcjVwXxysLAhRFkJyVVGouhhCIERZJFchUNJVIcpiQR7xweqSoA4KVBULClDiKfJUoLIoOOuOVByYVRqQVdZDBWaVhSjLQrJKQxAglbsVnFnGhIAWCsnSQXKsM8rlniqDQpnCMsvDMrEuFQQPOzrr0T+o5z+Qlf9g5owH06c+mDphXKqmUFvz3YkfTfApACc1saOSCdwWMuQ8/+Ol5r9se/u9Tz6/cB1Y05wtrdZ2M2FtsjosZLCxmwD3HZItUOCM7Uw2bdIr4NdCNls5v4wQw34UXJDRZDtz8cpzdZsm5Rcq1LMezJoTnTonJH56ZObc8Kw5Ecq5Ecp54VlzwzLmyNPyQx6eFZQyMzh1ljxtTljGPCg0fW5o+jx52tyeCCkFydPnhWTMC8mcD8mzHoVClQugMNVjQsBDYcoF4VkLInqs8KzHwrIWhioLeqiwrIIIZUEklAUt6qjwjIXhGQVQRGZhR0VmLorK6KDMgqjMhdDIDLceG5mxIDrzMWhU5vzwpKlj0nNHpU6OTp4wNmX82CTVmLg0xcPK1978e7OBtWhl94RaerAAC/NXr7fBorebTXCkWQGImdrlIfcvFPsK6YQ9sXnrhQjosGBb2Mm5xZBgK7ZQ+eGvh2yc2vULsD/XL4J8+XfHTi594plJMx9V5z2mnlmSPbtKla/PXlCbs3DpxMLlk4ufmFLyJNaPFK2ctHhFzsJlEwtXTC5+cmrp09CUkqcnFz/FhDS315SSp6DJJU9N0z4zVfvMNN2fciuezat8Dppe9fwM/aqZ1au7ahakX53fYyExdvE4SDei41evmqWH2L6kNYJmVq2GZunXdtAL+fq1s6vWzK5a3Un6VbOrVs3Vr2ZaNa969bxqrEnzq5+fUbpiVvmKmaXL5upWLKp+coFu6YLy6ty5C9/avYcmAKAqQ7ohJiv+0/2hpttCCHfJAVfcaLYaTBYDvWgJYgEmQc67etPlppjR8ZmhZx84P8U/Z4haZ/1qyAbWVBJy40lFJELMIblwsXH3vz7a9vbune9/+taHX2/fs/dv7+197f29r+/Zu+3D/W9+fHDnp4ehHZ8c2vHJ4d17T7+//8yHhy98fOQS9NG3FxH+8PD5T45e+OToue716bHzbn127AL07+MXBX3+/SVBX5786ab64tSd6ctTjV+eutRzfX66qxpv6NRPgr44ffmL01ew7nz8i0wXvjp14Yvvz31JOgt9dfKcoC9Pnv/6VOO+H6/uP3N1/4+X952+uPf7s9+dbfzuzIXTFy8jE29m7odwd4hT4e5gGxYclppMuYnVVnaCieX9kII6ptAO7tsNuZabYoZtHAuic7lS3/gHsn81OUg6tdApCAEhwvUrwlpYbQazpc1sa7VSOck1M99k438ykRqN/CUDf6HNca7FdrbZeqbJer7VgZirVv66nYSAoCsW/grWt9NVG+maleqQoRYHqdl+ezXhdI6eqqlnx3QL6a/huzhuomuslZKg6y41QTjFzdRkczTbHC12R4vjhhCP41+xOX8EVmzHqg/t1NOkyWg22FglO7shVLhNvrbdarCQR0LUEOMUELZcYjUZRDaDG1Gu20032LncFDNssyPS6W5CNjU/6Wbe9VvIYxGO9l9YnC8u9xfovODph/BVhUcZVgJWhH6wLiIDczPRiLE9lslOp7hTeZyxG3ns2BN5HKF7CbsIv1VPhMTUtIMJQCMsTBBnpKl+WZW4g+Til1WLY3HeLeGfENV1QTyZKDwOd4RTtwelY/5qyL7t4rwg14L8+k3l8XXcQqbGSq0feqhbHufXojtawKuRt7UzGZiMDrgXJAucDCYn04LuHAzhRM6N//eF5/8HoyO9nUbIr/cAAAAASUVORK5CYII=;" parent="1" vertex="1">
                    <mxGeometry x="574" y="149.5" width="80" height="80" as="geometry"/>
                </mxCell>
                <mxCell id="11" value="Iceberg" style="shape=image;verticalLabelPosition=bottom;labelBackgroundColor=#ffffff;verticalAlign=top;imageAspect=0;image=data:image/png,iVBORw0KGgoAAAANSUhEUgAAAKMAAACiCAIAAACiUupyAAAAAXNSR0IArs4c6QAAAARnQU1BAACxjwv8YQUAAAAJcEhZcwAADsMAAA7DAcdvqGQAAAASdEVYdFNvZnR3YXJlAEdyZWVuc2hvdF5VCAUAABEGSURBVHhe7Z3di13VFcD9S/pSah9K33zoa7DPLQYVDLQMvhVCMYR+0KYP0pJA9aU1IEaHQIrUgUQDDiQM/dCYaBWamVEqMWHUMDhCE0djxKkEoj9dp/ueWedrn/1xzro3d/GjYDP3fKzfWWvvfc6ZO3d9OY87I+am75SYQdOf37p944vb/925/fb2/+BfWzuOs1dvvvjeBP7T/dPatR35eT7IFoptzVBMvWnnFVVVl6LTk+oHRb+4n3b902dako5dHGBCDDlbORDxUvdYZ9fTKH5qTItdV7uu7EaBA5BaF+vFIdoO66bLglW6x0Wus7Ly4oithl3TOHYVXE6xNZRysyVu0TT14cbgqYPD3tzeMejblmlqAsfGi9gHfHMipnxbMU0dT2kRtyAtvTjDsWN801z4s+e4DL7p58XZjhcjm+aSV3mZVfDN2FSc9hgxmmlOm/MfcU08CnSvsQbvEUzPfLtuQa7sURZjQ5uWUp7DtT7wzZbhTMsqWZ3wHYsU95Ar74FMU8ozsEpODr65+ocp7iFMz0u5BWQPMy3Pa/pOnnz1JfeaO6PpmbztlRWaX75hO5fp+cAcRr4FdxbTc80xZJKd3vR8xRwPdZJcdmLTc80JSSs7pem55uQklJ3M9FxzJlLJTmM6t2bGLVYg00WqOWmqMTuB6XyaOUkmonJzeBpJ5TvJbDzW9I0vsiyo2CZp4hoqJ24a4RSS3D6Klx1lmn0n1yxFzAXkkjUDcEbxvrn0i7wHRZTpJFer4Ip4xhw7OC9p5jGv2cTcGw83zXGr4wiDk59hwYr4Zs4WCgE9I9A0+1NHEAbbEc2zgZxOO5GdnMJgR4WGPhFimj3FD8/yEF5lYdqR/uyDykYv2AvtoZDhHb1Ns48kwzNnq9I0A/ibfinupVj2Vfjwjt6mUw3Ps1fQ4G8aVEL60reH9zPNycQfIrCRcoJmhiFN01l79fAeplP1bZjJgoZepkGlpS/ssXDjET1Mv7ax/dQbW/EwF+OKISmzB6PvybXrp9a94CdVZgLwX2H7mr704c19Ry/e84dXIvnhY68++vIHx975NC0nNz71vyPBT/7pPzceX/skOQdOv0uW/CEbKj992X9ivTDUFV6m6duHly/f9cjKd3/zjxi+9cu/3ffMGhkh0UkI0Ax85BevXv/ZuWtpeXjlg/ufvfSjx17vhUpRX5DyyjvXCk+t4WWavv2937307V//Xe2mL1yDB8+8r2yFIYJBWfQhk2kIME1OYhJL8dAYCk+t4WV6YXGVLap99IXzSVLQAUWsMGUaVKL6QmKPn7taqGqObtNnV7fiNQMXLyO00taLeMeCNdP0S5WrXmCast76uGNq1m16z5Hz8X0bKGhlzh/cxAt2WDNNDahc9QI7XCtPrGwUwhqiwzQFHT8Rg+CCTutYsGYaVLr6QtNlJt++4uownaSg2QIF/eSVz5TFFpARNtvywaDpyHmZT1m3maag2USkaT7eq6CzOhYMmgaVt75Q1g8dayvrNtOsyiM1A1vY+/SbPgU9gGPBpunIdaxU1NKFxkl4o2nW0JEzBZBDP/T6R0pqGfI+mGPBpmkGynLqAqCsDz33VtMkvNH0759/W20oAPbdMkKL4CEdC+zRoGmIXG4Bl0vTLbN601wXzOUil9EUNIdee6tEHCefVHvCrmkzSlISIk1HzssAZczLap9m1pum3SfZ6wNLV0w5FsyahsiyJufMyy59eLMQWYp607T7yIIGVdAWHAvGTccUGJ8FFk2FyFLUmGYuRutOWNBGBDssm04yLzu8fLn67lGNaVp35JUFNH8K2ppjwaxpNEd2b0Ac26k2cG2awZxZd3zrdqZVli1g0PQPfnvmOz//690HT6s0hlH70Fqb5lpgSI83zRYOnH7XjdDz7t2EOE6oGUg+5aoauDbNYB7fugUpa5Etvo2UuBHTznFazYC+6nPMXaZp3azG4gtaYDvVN0zmqywG0bJjQaUuHpKvhupdpje3d/afWE9lWqYGyrQwru+xTNc6BpW3JCBRvYiyyzTrK6o+SesWasvage9RlA9vuskxqIylAokLi6vlm2W7TCd5TFmGTXHpKMFVBvY9pGkENzmGtMNzGTLPfKs8KZuYxj/1nqp1C3LReD6cHsz3MKYRjEiltkw+zQJrrfJQPTHNVC3JTdAqe59+U0ltwbV0pSchWU1Lo253DLk1AyrLj6snpvEffxO0irSRgJfI8vnOZPrhlQ/uPXJWGa1lAM2AaVbVhV1lOtVKukrf98gcmXynNY3jH//5n9//1fPKaC3DaAZM000Lu2XTTLyTvAZayz0pXvZOOIQ/vvaJshWGOFYu21GZyQpCC7vOdI7pWBlaRXBZl0nlO970T5bf8+zVZVRacoNpN/2emE54d6wKpllu0TOVuTCkpccojzH94AshjkHlZADKjzoK00y8E94dq4VJQPUVlEiCfQeYplEHO4bBhucyCHV3yiamkzzCaiFtWZeRlt5LeS/TNGqu0WDHMIpmQOjh5cuiuDC9ub2T9j5oFTZOWbtHmcnp1dI9Tcc7hrE0AzlfWFwVxRPTTI/VzyWHHTPvJ8tKUkI8fXeaxjFTyEjHMKJmoKb3Hb0oigvTLKbzLbEcUtapflm+BXyLciXY0WKawZiFU7xjGFczkHBatSie1PQApmGAsna0+K41LY49b4B0MrpmINuUtSge2rSQb7SupdrSlWkZjMMcY1T+Vx5bOehe6qxHAa2iuDDNqmtI02Qh8pZZAFLi4tuZloVTi2MUCkrkniPnBffwSmHU9NKFjDfIqrAvxo9hengVfLPYo44RDMpiuz9/5qYL2N39z15SDoYB08wKlZjkzE1PYL4wwDxcIWM2YwfLD+UmLXPTuyAdykQ+ZJxGs5hmuazcpGVuehfstNcbKcE4x84043TWsjZqOtV3FAUwQA9XmsU0s4TqC34JMWp6mHtktWBa3lOIf3pdS1UzONN0FGUoFXPTNeS7caYEO5zpfGU9N10DpskLA6fyFENtKQsvvneT8cKZzlTWFkyT2D1HzoviwvTm9g5Hxj+oHx0SeniqAbtFMyjTkGNqZsG0THhF8cQ08sc1zd6TvKrQrhmqpkF5iseIaf0sa+vj7G8i+MABkPSYAVtJraXWdPIebsS0fufkxhe3c79H5oNcamE9vLOUHbWmIW0Pt2s6yZdexIPsgJfD/TVDk+m0ZW3BNLPs1za2RXFh+vNbt8e6TVaFw7ivz7f799Is1JqGhGVtxDSrKlFcmCZGvE1WBdmebysEaIYm0wlvhhsxXdgtm0Y+nXP0SZmDTLX38DDHwAebTEOqHj66aVS6xTSxy7SF6beDsm55WyFYM7SbpqyT9PDRTZPA8l/Tmpge4Nc4+sLBkHrlGGI0Q7tpSFLWFkyXv+pkYprpd9ZfzQpAGgxWEmqGTtMQX9ajmy5Px4iJaYJJmSnTIION3DiLdyz4mI4v63FNkzegTxdqlekk39OfA8bOVJrBxzRElvW4pqnYh45dbPzuIoo9yZ+7Sw7X3x9f3nRva7/4ze/bKZTOFjDNEk55rRK54hrd9OHly42m+Qf+2WADJ2scmDPtj7oahKfe2Hpg6YryWktwWY/eGhmk1ZfE7jJNLF24KvMgU2CaKlQWg2Hl9uALX/8SpfJai1LoA0c7bg7ZO5daeZAmtOnkXzOYClaASlgwYlro9N13aja6ZqArk67y184R2jQXQqZvJYuB42F+oYQFUzbt49uzh7NGsKAZSBfLqMLo/0ObJlhVW6tpjieraQHftcp9pmZ21izkioMpr6Qlakwzkltr4BwMh3Rq/bpyFkaTaaFWdnsPN1LKAgVd+/fRakwbeSuhjJhmzqychdFuWlC+m8paOrY62nGpbd1EjWni+LkEf3QlLWpJHYOPaaHsu1rW0rENNj/39kE56k1be67FkYxiWnC+y1Mza6UsUNDVv8AhUW+aoNebMk1mD555XzkLo69pAd+uh9vULPVQ27qJRtN8gI+Zkp1qSR1mWqCH29QMFPTC4mp11i3RaJow1cA5jXFNU9P3Hjl7t4HvqWkCWayQC3mVaDN9cu26KdMsqU+m+AbogHFavrTKsmbJT1NBE22mP791W6aXFuCaG960cyyoQzIF+Sl/b3s12kwTLLeMvDDKmaRaUvuYZqZddgzG+3bT4spFh2nK2s7CmpNJstBqN111LKiDsUZ7QRMdpoms3/DuD1cb19yB0++6l0/kYbOy6EOTaXFc+91klgsa9tT9cVoV3aZZhu87mvcLof1h3oBsVMlrZYKIF/dKai1V0yyUmxyDcc2dI7REt2mCtbWd0RrZB8+8L7LL+Isvm253LKhjsAYJqT7PqIaXaVPPPES2z6/oKfdOvJj2cQzGC5oKXCr9UayW8DJNWHttlJEp4PcxBT7o41hQ+zUFtccstTDUFb6mmYQ/sbJhpIeDVHa1h/uAaU/N9gu6fWVVDl/TBLM7pmakWO1vLDgSKltZ9OHQ6x9R00pqFeOaKWj3W/A+0cM0wdTM1P19qWwlshM6gY9ptS9TyInXPp1sin6mDb4QzsHs7fl9lD6mjRc09aZe5+6MfqYJevhDxwz1cOBgmEgrnS34mFa7MAUXN3Mmqq5Q4he9TRP0cAZIO7I5Eq7x+72/LbzTtOWCRvPC4urmdvcCWkWIacLmi2bu9lk77aaNa+58ktEUgaaZC5h6/Qg4GGQf9PiGq3bTarN2kBNcunC1b9+WCDRN0EDs3A8XOBiGFR/ZTX9K2GxBywjF8Nxrvl2OcNMEszOuMmuV3Xn77MkrnzWZVluzA+e1/8S6z/3tpogyTcjDD2uyGcxavn+0ybTlgqZ9xmgmYk0TyDbVw0FkN83OmkyrjRiBc6Fxdj5+7owEpuV2ip1b4gIJarqjUmvackHHayYSmCbk+QeVzWGpAx0RjgfZ1T/6UDVtUzPJ7PUMoz3SmCZEtinTILI7TatPWYBMwqn160V+oyOZaYIFALKt3VHhYA7s/gpSZdpgQXPMjM0n15JpJlKaJpxsdegjIpedkv3Tv/zbmS7/sAXoQ0wnmecWOU0UiU0TLAaOn7tqap0tJVK+o+JMq58cHTSzoEo1NpcjvWmCMXvpgi3Z4GTTvcW0qb5NrmBhcTWHZiKLaQLZr7xzbc+R81yk6pTGgjzSFR/95k+wiWn1A6Oz/8R6kgVVbeQyLcFxW7s3LrfPMG2noKXzHV6+HHkXrD3ymiY2t3eM/IUPgbSy7rrvmTUj00Yyw5Ew2AU/uvCM7KYJzoEz4Xzs+LajmdkDnY/BrkhWthjCtAQTDTq5tcchI0IqGJgHcCwxnGmC4pZOfifL5tylYye8/+UTg5qWYE5Occs5l1Mw83C+csqUcsCLYJExgmmC4maqaeq1w9zImXKJJ7/55RnjmJaguA899xZTEjsztRxIKeP4iZWN4UvZxZimJZiW083E94yVOKfDSbGCZ3aS75aIZ4xvmpBl2MLiqqzEZsC3OGZ4wjGta7AJdkuYMC1BZ2MMo5+bWnn3xaBjCUOmJbY+/to3aZJ+Pi3KRTDQq4+fu/raxnbue159w5xpCdLEwMYUZu/Tb971yIpl384xow/X6DA3vALCqGkJUkaJyxSdli7KjYziIphDovdQxAi2VsQqTJt24ZQzSx9ROXt0gunSh5cv06VtVnA1psN0Ocgs+SXL5FqUC6JBUIYCKG9Nts+++P9p0VTwiMvi4Jg+0yqwTuoRwHSXcheqtnrBZ92m2CyNhEXg6AviyJh60+WgwyP+1Pp1Kp7Z+76jFwVsdSI/yRXDnICZIBsxO7cKi5ky3RQ4o982If9a/OisxpdffgXYqXT/h15CBwAAAABJRU5ErkJggg==;" parent="1" vertex="1">
                    <mxGeometry x="704" y="149.5" width="80" height="80" as="geometry"/>
                </mxCell>
                <mxCell id="12" value="Delta Lake" style="shape=image;verticalLabelPosition=bottom;labelBackgroundColor=#ffffff;verticalAlign=top;imageAspect=0;image=data:image/png,iVBORw0KGgoAAAANSUhEUgAAAIgAAAB/CAIAAAC7Tx2kAAAAAXNSR0IArs4c6QAAAARnQU1BAACxjwv8YQUAAAAJcEhZcwAADsMAAA7DAcdvqGQAAAASdEVYdFNvZnR3YXJlAEdyZWVuc2hvdF5VCAUAAGD6SURBVHhe7b0HmGTZWR58KlfnCTuzSVqJlYQklACthCIIIUAiyjImWgSBDdggA/pNkACDZcnINlgIfkmsVrs7M91dOVd1mu7p6Z7OXTnHzjlVd+V8/H6nehYJsGf1PLPPrgR3z/ZU3aq695zv/cL7nXQZ/+Y6mpxXOa80661yrpHLVU9rtSqv8WaD73L+N5HTnxj3vU7rerft5h8E0q6NXI7zYo1XKpVGo4Ff1+v1Wq3WbOIqL/XjmxCYCuflJm9W6/V8tXhGZ+q8wHl/ovavh2OvGvWzG072jOltw/O/v5AJNukjgNHGoyqOljjOL/hSPb7ZgIE8YTHlBm/UeKPKyyXe4CXO/VX+c9bgqwaXHpzZZjcTzLr0kMvz3mHfF9byR+J3wAN2A3jaqLQN6KV8fJMBA1xqJOUavBL+4bU6DCbZ4l9YKbxFuyh/ep4ZEkwTZQM+udF30bz4k7cD3kIVMOAoFottQ2m/bV/wJXt8kwEDaznm/AjoNOq8UuXV+innAyf5D4zNXzG72WBE+syK+tp2n26n27LGHP4HdcOfn5rLZrP4LSymfZFyufzSDzMvFWAgJ5QWmUSTtxBCGvRX/AMTQanfdWOHnB/Ae8GPVYBNK9Hkf7C+r3zG0nUrI3Ntsifjyi8lOp5JybQJNpxS6KY+8KzpznEe7g5Oj44WL2VLdBNxQtxG3JZsCQZF/7wUjpcAMEIYRLVI+gADbqrCa2XewIlqicMmWlB4xPA2eHvlwxreFbO8QCZwq8IfG5xkmlnmSjBHSmGIdOqCMmNAYgrL9CmFPq6yuN87uryJGzVwOVyZ8zyshlABWkVeh/XRGyDPYUeNlwg2LzYwEAI0tkWoQEwkI2AEVAiRMsAq8Noxb8J9gfhSgGjyUuW4UT/hjXKp3IC5/KFv/2VDMXZjgTkzzJFkZr/CtMwsyxJTQK3NSPVrzJl8bCr1ZCZbpMvVCZgTAuQuMMQingOmRa/+BRgcQtb4S1SLgMGbOq8jeFTor8AHjPhMfNr+kJfOeK2An2w0+efXDr/TOPnoWII9M8/MKWZOMEuQWbxyk1dhCMoMSWbEycglm+9DrsWJAgUmQqPMK8UGYAYIAgdcFy4N5aXjyV4ywEBiFQon4j0oUw3w1CGsKm9AqRETGjhfB4BNfprDSxjQZJ3/wPhcl2ZEZVyWaAMqXUxhiDFLGNgAFYUhxMwxZo52WKLSpycf1U//XmgXvyLbbDXzpdz5renuAKRKunG3Mi+F40UHBvoKXwYomhAMCiRD0gFQKE2iAXUBlHBxFV6u8cM89DvB+afWji7bbzH7Hfb0xAOudI8m1KUNM1MUYMgNUZkxwmwhZg08YImwJ29JzJ633UreOqIY0gBBa2TP74ILkycr12FHgOSl4slefGAgeTgwKCyCMLAhWZ0L6K6jEf9UebNEHgwUOdvM17mlwZ8Y96gm/My5zJ69/dDoSo/W16WF+4oxY1IKJwZzcfiZzXPFFOzs9zBT+MGx9MdnV4FonvwizK7ZhhuXr/FaDaYEqP4FmPODgIFEIKkqLANSgqxIMm0ZtQskCMjg0up5EmCZL+3xfx897LEvSm8hhPiYfrnXFVMaPSqDX6lLyPQZZsowa4w5vcy2fMEUvGxNM128w5V+rW3ucxt7u7hoS0T9uxaDPxTeXkKk7MUHBj6sTNbAK4ghbQ2GuNoEjFDBG4QWok74GmJ+C7xZs9l8jXmhYzzJ7ClmijNzSG4LMCvImE+hT8h1K8y0wqxx5nAz21KXKXzJts4MGaYPy+2z33t7Pt2+L9SgTl4MVOzcUhHIcCPhTV/04yVjMYgvFO5JRihkKpBbDuFAvM8XwQxK5Szo2VyFf9i8oH72lmJ4helXJIbVDleGDSKPcTOnDzhJYTHGDLPEmR3AuJkm0G1Zl2uTTBdgN31Xx2Y/408R+S4XebVYqbWOyzwHqoHKwKlWkDXh5i/+8VIABvEDjIzggIvBP8ACpkNJP1IPGIjg0ZV6Ay+jnP95cu/Nxjn1wGK3c1OhWZcNrKhsQMLNhj1s2MdsUWZCjElJjDFm9VLRxzqtACbCtB42GpQ45392KjKdayNRPalUd8s8jxBHNoqa5HmLPnnRjxcbGHh0CIJ4MsTRAEqApA0M+Xq8gm6XCL7NfHWbc32x/IRrulc3c0ETvGra7BxYk15PK41pZo8SKqM+NhzCa6U+1qGLMHMA1FlqSqlta8zgJ/AcIaZbeLV56feWV3eEXR7Ua9sVUgACpgZa/i/A/P0BbET/WIuoLCgAXBt4M4UZACMsBv9uwolx/jvRVKdmmJmXLmkiV/tTPQMrisGM3JCRulaYK8RG/GwUPC2gNAS7tCGpMUzU2ZxSWkHSyHokjgTT+GT9c09YFmyHlb3zLlGySUSaVhUOE9HuX1yZOCD/83+ADa81qDefOvQbjVqjWCdMqvy4xTOcf2Hz+F1D01LbHBuKXtSEL3410DOY7DCuKczrMscGs8WYK8hG3My1LDV71PqA3BCTGhJIaOSWELN55c5wn2NVqY8zjeeidu43F1YmyzTumccdcGey1mqjBozOa/TiHi8yMJAB9JNoEIkG/yOhKVVpOLjcaJZbFWKyCDabDb7E+S9O+R8ZHJaPRdhoplsb6n3G2z0Q6TCuyKxbEvs2dckgo3QtMtccsy9IzGBoSaUuJTP4ZRaP1B5QO2KX7Kvd5gwzxxUG7xtNS3+xll8T5tKogojTaE2+VHlJwPJSAIZiC14RMHhHzqvG8zVeaEFihBSvN3m6wT8fOXmHdvyqYYo5kNLHFaZgrz7QNeBXaqLMssnsu2BiElNYYplnjik2PMOcHqUu06lJy01uuW2p0xbtNCc6jHG1KamwpBTGaLfB8xOzKxMnsFGEsV1ePsCLrMgyXwrHS8Zi6GWbkSGhqbUo/FMHTatCrsbN+U9Y3Q8/O351JMZ0Pqb1SW2RXldcNehl15DVp5ljk5lSUlNIZl6gTpoRYs+wmE5NSm72y23+TmtCbYhKNV65PqCwxCWU5cRe4Qx8PpXdx70rOV48Qg3yVdIOHKgVaoBCsOGgriPR0UkpKJk2fQ3/t7/9AhwvdoxBwwQyDTKUUxr5wkkYUY2fnZ4AHrxd5/xPtyoP6uaZxs9MCZgLcWIrAntIZkShCM8sKGFmDTCbhzmWqZ/G7pGagnJDVGJMMSPYc1RuDKgNbqWR8lDmCLJbGbkr8oYbM44yP4UW5OvgHNXCMQDATcHTcBIFZIBQQYpFQ0TUNd3k1TaJJIVC5V8YbF4CwKCJBEyuxrPI86iZwloIq1Juv9W8xfmb7bNqOwL4GrOuM2uCWSNUgIQ5JDGFAICEmDFQ8TO7KDYfs/qkJh/BZlhjxnVmislMPpVxUWFaoKzTGWBT6zCal5nCvzZ36KnxI9gqblw/E8k/kcETwdnwglhJrSaGIPCOCInoCBeooPLfmsDgQMOobeTE2i+JKKPNFX50cBrm/Dc88SuaSTawoHasSkwpiJiZkKOghBl8lzGkNKAEZcYgMweZ7W6xBBTGgMIQYYZVZlyVGqMARmZeZFYA42H2IHPBkiJX9cE3PTvzxdVKStSAUl3qTW3AjSKDOvs6i6lQtxD1b1cRiQiYb2WLoWahcaLHqu25272IeF3mBwX+lVzzcf3YIyNRNuhm/d5OU1yljygMgATmQgXAdOhCndqwWofXYTIjG3wafaTSh1S6GDOsMOOK1BgBMMy6xGwoyGlCbDCo0EQ7rrtfrVv+mVvhkTpHWkP3BgYN6u2G9IHKOQBgIDjfpOAHOgJa8i0PDBy66HJpu4VzbKjh9RIP1fj7xn2XRgNSnfuia0V6bfGCMdKrAQxwXyExJhZGFtmlDfcORno0EbWOBmOYFSXGzDG1LtahTVC/mSmNbAaejdmWRc8mYlVEORBTX4sob/geH019u3HyP8e3I4I6U88mwkkL5gvCJrgAAdPGgHopUDl8LMb0oEwvVG/0SwEYBNq7wJDxQC4FOJPNJv+L+NlFw5ziVpo9M9Nlijw2vtl5w31xINijodBCWg/LMEW6tJELA9ELA7FOLbxcjPqVUcwJtS6h1iaZMc3MSeAnMdPwDEgBOAI821XLluKpYKcx2WeP9OluPWG7balTvkkwAJi73Xfkx6hW4ryIfUQACBicapOAFwSZFx8YoaYNyvrbjYerKNL0omsHjbeNRjrHINaQROeT31j6ttt77Km5SwMhAIOTDHTADqMhQ+kbiAGYLk2caBvYgS0JMJBdojBTknqacREAQ92aPoQimSF2ybyheDbaZVuHk+wwzr1MP/mbob0pIXoK9YgyNIIH90XMhComAEIcAjAATczqoJAj6n3/j5dCjCEmRoqHf2A/1Sov0eyLfzOXuTyRloxvQawKo/+qK8meXWRPL18YhO+CHwtRj6QzzOwRcOJuTax3EBbzNcBYkjJDSqYXqMC54ftgbmY/+JvUFKaBzv6IDMhZVpkmoDJ4Xj0Rf43hzpcK1HVGMBAeDdF1B39GZ0hn7kIhTAl/YOso34rAAItas1GsE91By3m52jw4wSvTRuWSZpY5IeI0AWNyqw3LCn1MqUvCcSGqi96XEBsKMycxNKU+2q1PyG8EmT4id60yZ5ppg8wQ6725Q/HGBnoNzgaSFlTqQ3JDRGIUEJopxVEZE33GyGVL4JLD+0bdeIDzo2KDKlMTLLlRrxeLqChUB+aCeuIvEBLj0sSev2WBKdVb2XItDwWFMApVKOKd3fLvh09kpgBzIXHJQO4y85LCtCw3JOW6DIgWmJgAJsyGw2woQjTMFJEM+HvMyU5zgvV72IBHYk+qhleZHdkoeBq+T2RarSf+BhRp3NMG1BNwdB2G5CV94qI5Jh+OPGyb/8JKFvRsvyrkDbspF1rVUqNBo6vE6M/NhZAS2c63KDDAIldrHZVqZ1URZpCEN/nvLCTfejtNscG6gVAhQXZiWZKYPTJDWqZbkxkQMAQnhh8DKmQ04MchpSWq1gU7B/2dGr/aEFLAdyEC4aPnMhtzCJQaBkfAWGLMiYJLJbv1yQc0yT5kSKOpDqfvJ4e8t8o8LdJ+0puzo2opW60VAQwgwV+BCg643ZJgLt+iwJxW6ijFKhkM/h/f5U84l1SOAKNcclVijElhOhYvEkapIS3VrwgXBMnCUCLkx2A38GmOoMoZUw+6+55ZfFQTfBgcWu9mpkXmQLT30yxAUDgzbIWYgswgunCcUeaKSczxLpiLNtUJ8ja8gpOvG5z7xPxmlPO1JiFRLmZPT7ebvAQGRh4MmKCiKDRgVIZBCU5w/4+XgCurVmvNFiAB29ng/HenNq7YqUOFmaJyQ0xuFCkLUn1TTGpMSIxABWoOWgx3hMgRJgowFGBOP9MvXTYEHr/ufeyLdx7+8tSDmkW5dZ7pbgNUiQnmgpQToSVGQ86g1ADGgRKRWqIqUxzeTG7KMPsas6Uu3Fh+t9GrK/IVYTTVRr5U3W/xPGgYwgxBAiDwiuai0+iRSIzv//EiA0OKR0kD0gV+wPnALn+b1tc7nBEzXf0Ko09hDNDsPf2K1LBCMoV84YXMcSIC+qgE+T98lMvPXF5mXLqidb9NE/6APvFOTeDl16aluglmnZGZPHJjkL5JdhYXBcBEZDYaQJNZQsCGWRLMgmC2xoyr7Jr/9bbEL02kQpyv1xoVXmzy0xo/rJN9CPOA4QiPJngbIo1wbPf7eLGBoWlERV7Ko5XzR/ynxtcfMsQvj+6xQS+zLTLrPIiyWptSD+4oNVvUDQNLAvc1JTq0cVBktR7iBjA+5vJIzcsvN/h+ea745RP+2S3+HmdEqRlVjy4rjW6VPggmRnZmTzAHYn4UAHcbQ73GoJy6PuEJwdwyDAFMu8FuJB62rz7xzNRTq7k1ivaVGmhafbtBQ0QAQoQaQQBgKUhzvjmAER4YzlfUlhwx/QslQ2mfQj6AFqE9ZCP0WZPXK+WzHBKXZ9arDzw12Te2c/HmCXvGwyyQ9RLxKE2qa2BLrVmTINhYkbcTp+rUhXq0fpXBR334zgCD9/vK2A+OZQx5HuHcx/mfJLJvcEx1GCZlyPkNaVgYdRYgdLnwZRhQ6JIhdhHcGiSC8qEosyZlmhXlwBrTptkN/6ssoR82z8Y5z3J+kN8tVfbbY9DUkjYwNOOpVaFONDTj/h/3GRjUEnUnZYJmCXtHQ9pJWb6UFz2AlTNeyIlODxptQQsLNEnlZom/VzfebVpgjjgbjErNWyptpnsw2TuY6BmMd2jhuEJyk0di9qpHN+SOpNq8oLZMM/NtZrzD7KGeocy7h1b+V6yMMI3b5jgf3tn+2PjM225GZa5j5sixG6GLoHBjC8xyUzrkZ/3u3oFE1yDSzyiRN8Bjjqq06a7BdDc426CHOZN9zuDvBdcCLXJkpGS80Kgc0wu8zdKsUDFnt4QUtN32+3vcf2CgRFTXtslDqcTaF5R88azBK3BbWV485jTIzvNI8mmwI93ifxzafL11WmJbYC4o7wqz7HYMbvb1r/UOUEapNATkJi+AkZp8cmda4UwoTbMy0y3mmmHOBWb2XdEH/sPc8WyWV0gLzuqNk1TxULO+/a/Goqx/jQ1VJPq4yrwoHZ1mlhFmnOswR7sGU2otghk8W4Qh0hjDam2yS5O4aIrJEMmGk2w09u6J8FM7FVAANKhZPiud7rUqwmjE6p0yr+WB1jcPMA2aB/ycC0MRPq1YOkMgPeXFI1464tWTRrGZpcah2fbD1vu0o4/BAqwCmJFtZtlU6NY6NEgn43JDWNAqv0R0qICJqVwJpd4t1czJnD6J3a02zr3JOK8/pHGt0lmjns+fNYr7vAWO9xnvzsUnvXLrvhShxQAU55j1Dhu4c3F4Va5PSA0p4nhi9BPsQKmLq7WJXtt6hyPFbG65Y1l1487PzKxtoWEIL4VK7uC4AqdLCVebkNWrLVj9N4krAyrV9jTTNjZtnwYjqhVLvHDEc/u8eMDLWagczKXBFwr8D9zrjz9t6zNM0XjJSJLd3GGmDAKDzIDMnNSZOlSoT0X0XVqDSmdcrg1LB4MKc0SlmX+1cfpX74TXhV0Wsufjj+3Bx5ksf78+3H3NT139xCaW5HY/G1jqG1kjLgBUaNgNXAB0PKwwRJUwLOtapyPTZVtSGmfYk7deZXLr9vNto6lnK5VCDv6X9nTg1SaoMhr4guBy/4M/RN2EbOBRAAfVGw4Nb9AGXi3y/AE/2+W5Q17COXyKmP8/o0fvsS++wjov0cJi/GxshQ2vMeSAEByNegVptJHGlYEQRBlROiIyZJe6jEy3rhqMX3lq+qeHl0x7WZqyWazSSKPoJylArRs0A/1/+U9e9fRtZp5jN5EP+RXWpMIUU9qToqsGhhKVGcUojjmCnAnWyQwJpSVxyR5UaGaYdr5TO/tvJvyz7ZU7cGP1apkXyxzGfkrtgi6Q/dz/4z4DgwPYwEggGhI9Kg05ETCACFoGV5Y/5vmzZg0twncWC/wnxwKXBm4/Mp5gOmg0nPsKg9QMYrjFFmAOkC4/c0CIQCUFotzlxDeDzLAhN+9fvJ54xw3P3/rWwZlKzUKlcoa7kd3gjqgE0G/ypQL/qaHlXniwmxB6VG5Z63CsEfO2gygHaGTTgCsT5DKTX24MMF1IboxftCXkmiWZKyA3zz80cPuzq5Wjdlt4vcizZ3y3xE+oASjkHO7/cf+BATJoQrvOZOXnLAC8uEwd+kgLGqTX+DRQ4v81sPYq0zySdimNerUTPRTYCt76md2LBIXSFAIGbm1FYsh0W5Os38usG1L73msG0h+/uRM5gDK0jvPrVU6bxyBHp6vjVZkGG+HTnto++a6xJYlxkRmTzLguR4aPuCImbNBUNMpbEWnCUjPxC6b3Ka1ppXEFiW3XsFfhmJdaAu+eWHds1QsETLnW2s/x/RLYM/jzNw0wgAKwiOHiUrvOdAb/14uNHC2nawhfU6f8wHhS/oDrTpdliToTvzqnGtqQmdNME1GYY5ReIGVpT0RyesWAGMlUql9TQ7jX3MyWVttW362NfzVQoYBWq56U1go8m87tgSfR7XfKRNGa+TKvRzn/6dv+rifHFPok068wc1LmSEjMIN8e6hGgHhoCRmJ2y8zLIBpqxyoDZzNn1Ha3zLmsurOn6F/+VDAbogE8NGGvxE/BcQgYlG8OVwYIIBeRxsClCAjwF3Sgnq0joBA0bUVb5fwXp91XDSM0NQIsyIJon1Hq0h3ahEoflhv9tBDJvsQcS2Q3VgTnlES/IdVvMG2cLEbvfeVw4g/9BVrAT/ZxVuVnp/zsjFamCWAQXqqIDIVc43CLtxzIk7TLvRqEmRTTB1VDSZXBozJ4RR9Pu58mLLEso1BgMyWUuoRKh5xUTImCvZr9rzP5ns3yXZDK+iFaSDoHpowbkVu4/8cLAAwEQ7Wmf9uBv0CLG+qHVdGPDjs6oPkON2KF995yS2y3mRMJObR4VaZf7dRQUtmhiygADGQEHmVbovFgiM9IwKAwQ1Ki8XYM3Pm+sdBQVUxtAf7lcoWXcrxQoA2AaI8ZXgGLQhXK+dpujtc9Wf4XvvxjA26pgXqa5bZQl87TqfMRH7MKYAghN7N4xESOhFoX7tABRTF9gMZJ/Q/dzHzkTiqJFuROCJIqLajFnV8Yg3lBgBGjfSKTATBF3jrjDZT98inpFtLlLI+f8o/ZAg/b5phriRIXR4YZV1Xa1Z6BlZ6BlFpHsyZJTNYliWVJZvLIjGFa72pYZ0YibBeM3m+/NvbHwc2MoMWAotkE4wAbBJFFGIMFgYlX2y60VD+q4Z5F7i3yH78Z7x280+0KMs18t9bXCRJBs2pEdzUBI8YIbEhuUp16XxdgM6Yp26V+aJ9yOPgq49zno0eULR0Ce35YqcIJUNx5AY77DgyofZPGkIQiodKQUJ4WTzZzdWJmtSo/avG/Xjp+18ACAx8dCjNXDDQMfkytASorXYNphT4uJsF4YTRy07LS6FUaQlLKaVZpmvLg8uOmpZ+yzk6WaF8ZWOBJpULSAQo0baCCXBbcQiwSpDONZqGBnKnG9+v8rzcrb7HcuQJDfHq8Q+dX6Wk0AZFfYhQd1VafGFJLAxiVwdeh99H0WkuGeomcAWacfdjq/kF9cLbMzxAh6+SSD8hyXpDjfgMD8YDwU18lvSQkRMoJE4LMTqvUtz9e5j9i8TymdTN9iFa3Qh+tEbkh0aFNwZUhzNBQGIIKrXf1KoxutYGAoVF6awaErXtg5l2mO3+XOtyFuTRgIo2TSqFCnaFCEWA7tDKsUqLUSehHo95C4lHl2TxfavLf9a88NjjGrk3QzE0jIEnIDHGlPiKGqwOUMNEqp5TERGfoJEwK9B2VNM72Gdyv12/+5gQYP+JXA/55u35M3RwvwPECAENwiOlY9J/4Q2ZE51ZPam7Ofze0/W3mebnOq7BtMSsKMscARENhX5uWGjIkGkeMOn1tPoXRo9YDGOFzwBGswdeaF35l3AuiBemcFk/L5WytVakj5EN1YSR1umlRLD6nvlQIDVEO53OlcrG83eLDFf4u6/RF8wIFeUtark91aONdWqT9IpNFnKd4A2xonBSZjZj0BC2JymwhlTb0SvPJdz8Vt28Rq8yCbjT3RK/p/T/uPzAAQeCAICNwgQZDdyGaKl8v8c9vHr7JeUs95mGmgES3c9F5Rr0sFg9Er9bFICZaou9I01ZKFHIDcqNPbfDJod2QzhAsyfuhm/7r20TGDhvNeqNUzR0gwNOMFtyiDcx5tylYtHiDiFPh9Vy2UctX6rU1zv9z6vBxJJsUOVZgoH0Did5Bmv0s5giIUWeYLDwY9MPiB4GWmZdo6pNtXW07uHx99Q1PRz/qyHg53y1vNGpp4U3v//FCWAy0lHwXFEkMukBkJLVakUaOf3xiQaEdYmOwBuQukUcny/DytFMS0joDAj7yvgT5dEeC2RF4E9BZ8FrAQ0ssXEG1aeY3Jn3rnCPVBx8mHCr5RvZY9CnevaUgHyjU74vqQG7IZeDOmvCjuZNWfYxzMDqyGPuqSpe4MBDpHYyAo4vunxCcGA1gAxiaORWiVYOGJaqbeavTme26Hn34Gc8ThvCnk2dbqAYtSauI0aXn/APVgnwqvcQfKvgYqtr+wvM8XoDgD6qKgMv5dqt+TFso1cv7e5ATCMznfOuvdixJXWGmQ9RNyodSDHpqWkfk79S7FeY5NuShBa5IHZCKX1+Vu07llnDfcLDT7mM3JnvGg6+3T8dE3gIUqKkkCdF42CXpw3nL2xIgKbVdWZXnaJQUwGw1qruJw9PBfX65368c2ZVq3FedSfa0v9OYuXJ7Xe0MwqnKaZog1ALAgHHQAuguTbTPtsGe8bJn5i7ZQz3Xb79nLKjjPIXLg6hXy/WTE1rJ2SCKiLQAjg6kkACCAJo0+ERmhRq3g+3zOO47MLg9CQTAQAwHzepZrVQv5KFB04XWR6fCF0xI2pNsMC4xJOTDyCF8Api1Dr1XTsAs0XJ9q1dqjEsNRx32XM/ouhSeZPBWl3XuUePtP944penFz/+AcAqQGwJS/oxqtMFbe7nT/GKW/9jo2gVNqMsakej93ZY1hTbW54p2WHxqZFEAxox4BkpGMwLV2mT3YKJHH5dr/Ey3KHd4uywL3+b0/vY2v0OzfOAtwQOQO9eL2RJ8KlRwpwX2IYABa2tAVZFii8oAmxcHGKGnQo1JOfKVcgEK1eI7nH/CE3mDebLzxowcDFX0G6pdUYUlCL8BVio3RJC7SMygyD6aiQE9Na5fdBxcHD9g2mVmvnPJNvXh8cCymLnyDRxwa0VeKbdyrVyRnzT5cZMXYHBwQP9/Kvd2zUKPOQMt6XKmO60hpllW0uKNKPg6BX+KMUlYdnsATTkY6kTGA+ZmWep1+S7rZt85HB8o05TaOvLaFhxW4+zkFNJH2/dzJ0VaFAAcQEEQ7CiFIKV9vrjcb2DgVgrNChSE+sRQGyTHLRKlYa/wduvNzv4h1fXZTrgpK2JJpNMW6aK1RUGpEfE2hRSyWxvq0gYlNEYSl/d7LzlW5c4tuLveyeDjppvX9xrQeQT2b+hA5tmo4b9SleZ5kiIj/wCjC5f5H86kLw/EmH6NaZc6RyKsf0lhTij1tKsWpZzUIwBXRt0zai0odVRpi8lH4sy4qLR5erRzjzw9/Z+8R3EErhbPVWEqQvLwW7VKIZcVCRy5XAKqDEJCU2oQ7ETcu/dxn4HBXY9rcFxApUS9yfBodVra+m/nope0Y0xzW2Xw9rhSbCjGbKFOY6hHizzOTbNhLcjqNy/1x69cj6q0GaQ1Ks28yuQh27IlHx12/6o7gZj/Dajc+SH8CYpIrSApeH+4GhgNrjS1V/0eS0oKKjgww5x+qT0lI9uNigVQIPECHlNMTJWKdSDlMgRkYylmdjPdwgWL/4Fn5992Y+apjRwoIoyxDh/Oq40imEiRV6EH1HrciKqAVyVAUnz+cwTuv8VkawVanV8r0HhSgXTl8wf1b7POyg3zzOxT2sIdQ3HJcFjiCHXpwz2D/m79opzWem0w086F/vTVa8megTV4jz6nj2lvMYNPPZx6wjwzDrG2CTHa+Q0c7RnGJXKsyNWb1FlwRgEB8mlkW/yTgbNHDT7a2Uy70Dm+B6uVGSPU70AknuYIMjGShqJ2ZZjex4ZBGkNMu9jniD1kjFz8vOMjw0vz7Z4hBP9mqVU64Eg9G2VUE5UF86AKAx/6+KzEz0g4z+O4z8AgusBc6ki9SWuok2/hkP/YYkZpc1MjEfZp3NDHnF65I9ipj3YPhnp0ywqjl9lWkWwqdRlgc+n6es9gUuZwM8c0sy+84mb4s/59aHqNZkMKAva8D4SYcgNRgKZ+oEBds/VWqQk5IbWhc9P5Fo0I3EwQP7SuqqwrAhWQ4/ORbIkpLCWowFPgfmnyJhtNwQ8rzZHLlmTnk5NvtMz8QXRrlYyFVwtZ6hqsHdPWJ8CjXVm8wJ1oU9zjOm3yQe7tnsf9D/6QRi2fo06xJi3Q+tu1s8ccbskoqOcKs64hr2SGBWZbkjsCHYZ4lybWrUN6D4qMxGUF2aVSu3LxxiqAYQO3JVM+qRPEdAEJELQQPqBROJ8L8TwPAHNS3K7Ws2QxoEg1KG6rAT7QrDYKJLUj3vp8IvmI08tcK+zJxa7hLWEr4OsBiSkopULYUBenzstG0Iqg9OZqx/gm0wQ6TYk+Q+h1U6nXPm0fPiE/WatSZDnNglvQ3vZtbaBbky7BeGCuKM8rSt5vYGAypRp1uRdrqKip2fqe4ek+MBnbGhI0Zoa/ikjMHtGZ71EYYnBZHfDg8Ob2EHmJcZqGwZ7ysWt+0LOeO9HvnJj64sHRAa4FLW8hbxU9YM/7QCKDFJRmh7fFBBnhRYPiTbXC8yUQpiJQ/6h/65GRlU77Ks3HtFNlJJag3ByUG9uLoUM05g1bt0foUxrkpuU1MkNCYYj0OMJXnhn78+ghjOYYFJSXC5WDUpXoGd0RcJzvJIhXsF2UF8ViIDTUrdBqVXiS819OJB6ZWmI6t9SxixDCTBsSY5QWqVrdkLvUSH0wMkNKYU3KXAE2HGTDyLeROoQVaLwj2m2883uhsLdarJSb9eN8sVaqkFC/AWAgnCrxMiABTiSmgEMskBMNcfNiFZIr7PDy9ZPa949ELhkRUcCSqQtAYgmBOneY4bJABEI0jdYeFrultFfeJsQodRJcX26OPWwLvn/Iff24BqmjrogiZ0X4NHEjkd7inshCxdYB5JLPK/f/PO43MEJNynlSjP7D0reNjLOxOeQHUteuRL8pAzGlbvYAsKHFFUSL08yQkVpTHUN+qQuWFKZVZOMx2c2I2h55o/bOTK5ELLNeOs6d5FvwFGBX38AB8xAqC42pElGkXedJXnCH5XIRZoNUY6tSBq36rDf9Gt2yRB8G3UCAkZgjXdZErzXRSQvSRG8NYr4jTJEGVI1yL6Q4lH4qjelLtkT3teEPT3sjEDxZo3h8AN1UmAdcKP0LlGD4KHhx7+MFsJgGzzb4QpV/dCrQZ7/NDLeJ3jg3FbpV6tJHq6CMhqCyvS8yMjikeKZ4h80nhxlBW8Gkx0GTZl5h8/3e8jbEymulfDV7Ro8k4dmqaPDzPtrAkO/4WmAQq2gCIpLN0l6pkhNfWD4r/ajL26uBfXsQUaSWRI81ddGW7rEmJOTBAIzABjTaFIMTo922CZhMp2WbDQSZdvpKv+NLO0Wk0tTPIeChAyhQLzf+xR/cB+V5teA+A4N7ouFbnH8mcfh6za0rziDTLJIRDK/SNvs6IEHdtx3aaKcWqifcAsK+ISTTehXI/B1J5oK7mGID1p+aiU0WxbaYpTKYFF4iWheayFq/gaNdH2ExMDyBipAMxFWsHNV58ZBm6ZI+QZP/Mrr9JuMsM8BwkzJLpsecuWhK9ZgTUluEUEFbEAjNYSQ6Sl2cum1ol5oVBU1DSMIzywdv/sS4b7bdNwGNwL3P+0CoE5OqDa193m74PgODVu9xPtPiP2CdfXDgzkVkZzQROcaGU+AzYqYrLUzt0CZoawQabw9BH2lp0nW/QhvrdK3S+K7+5issI1/cPUWef7aVpdHIZqPUKB+VKZP5RoEBKuQ72h4f9cN70f1c4oWTyikuSIv4xKDBUqX5a/PhTjui3YbMstptyPTqEl20/IxWrIk1BbRMQAwdxVQ66kkCMOx6qmvokOn8HXbfY4PjfxI/pE0d27ZRRxbV3hcP2Ija4J/nh819BgbUyVdrfTq08qpro5c0ns7+eJ9lW2qI0zjHsIe5PHJDuFNDA2Ji6CXCzH6Zxd1pj0puJOWDa72udcng7AXd5Ef9Kbe4WqmdPUNshfJJiZ42Qi183ofQWPAF0l36ZRulFo3egDYdgNNTpkOXR+p+yOvGXO6RsQib2JdZN9SaZMf1sBJuCjmNM0TzDu0BKe2QEu7SwOjjNA0BHLI/JXfsM11cZQ6qBya+f3hp7JiDpYjaI6ks5qljm7KYc814fpp1T2BE08gkvxZqNJFaK16KUTHRv44/iPm2Fv8ew+0H9cuywYBiIKkYTHdT/7mfDS+zoWVEl25NVKGHutHAvsSMSLvcN5pRaFbU/ZmrlkT3k2Nv0U5/+bgOvStUEZ95FcnySYFXyrVm4ah6gqQdFoQ2nisf/seXvra0q/r3n0FtKWUhb0IVx+lyi5dPxCa11TxtSE9zn1o8W8quc/4ul/vK2LrKlpYMRpVPh5XPhiRGsaEAch0H8QJYDNKvTgBDMwVBz1bYs6Ee5wZ7doHpl15u837Cc0CTqoBBudiiPtNiiWaJtOvSrti9j3sBQwqHsEljTrgu6R0daFGxBH6Et7RLIu0YBY3I187A5V97Y0KJ6iIhICe2IrGkpHBftHALsX1ZbvIojL7zIVsLDX+pJzcQdeS66APayKNfmXrrV299JnIWF6MGCNVC1qA1OY4EvrVXae2dVPdz1OlE24rS52gx7t12HShtmxC1xf93R2nuwtQuAp/2t9o6hxdCYsjaqWfvA6aFbvMy0we6b6xc7t/oAz3RLtHUQ5ebWICZtqgBMMIzB7ucK2pTXKn1dtgTbGib3Yg8Zl/7VLqKTLJ4vEIuEwJq4MLVo3Id9k83fR7H8wEGCRL+igZSq3DQFKEyr1fLIm0CQ6zR6h4kBIPHR1eQITv2mG2b2dbFWFNMag7LzAGZyUsTkcxuqVlM36K5Qj7KD/QBdsPNBjyX9L5XPjvzzuvTn1revdPgkRrfqHEYSKUF+ULe0AaoNUq52iwf58+O8sViRdBnCLUk4ka7fE1Vz+v7vA8gu1Xn/zu093LtbbU13KNdu2I+UGnitDuwg1yxiP+x9nRA+GG0QmkOqQ1BlcHbQSPiR2xglZnXfmBpbzifLxIqRV4+pYmBtfJJqw4GiAo+n+N5xBg0jtp57s3wR6hms9o6OzvbhxTqIDQ1flZrTuRzvzTje0CHCLklNW3ITatyY1JhjKmMYZUxCEORU/ripd34YUDWoNgXIcKGVphrRTaU6XHGewbnrzx98wn97M/fivz2reBfLKVMq1l/iQaS213C0JPK9vnMYaoH3raaeVoGVRYT8Eo0XEV+gwzprqV8AwcuudeijVE/4gq+yujvc63RUmaNWGiA+I8YI4I/iJnoPUMrfEzvpo3RjFGVbV1q22cDCda//JBx7g/DG9QdDiPM7wIN5MhQZTgXQZ7vfdwDmDYo4kqoM01wwBmoAUqtla01svun5G9AP3ab9T8JJb/DPNNlCEvMa1LzqtSUkpkSclOUljcYAzIjWhWglUe0oQIyNZFFgyvDquxrUteqzJ6QGn1K7fwF7ezLdXe+y7rwvZb5Dzs9v3Er/hnvwY11PlHgMZgo7geUjlo0G6pBYbxE0bVYpDn++SplEaWaWPpNjvcbBAZwIjVHhLiWrv+g0Xt1PMV0y5Rv2TM0ScESVevDnbr2plxiyQ6wMbglaJohKTOsyYybjLYPnpVdH3n/ZFRX4AV43Bpti05PKuJIlmlT9POb/T+PewADSNoOXCRqcOz0EpoLX1mjJSiF7dMz6G6Zt24dH793aKETPsoeo61ckJHA5yJPBgBWNKNdwqKAgCKhSdDALdx3f5JpVsR2b6DUSakrJR9JyoeiD85tPTCRvmANXNJ5HtUH3uRaed/08c/P5YwF7hHz04jn8Bxv7Tf5sdi5EY61IubglmhdW4vG6L5BXEhmaBoozHaN/9n02sNDi8w0TfUf3qRJvIZ0lzbSqYN6ITr6yeJprUiQgcVoM5LBFakurbLGlQ63zDj10FDwZ+YziQqigPDExFiO63UYP97c+7gHMHDXInihhfhTJGDuPk+sTvGzkm9VVotnKc7/yB1+2DhPqNCUMFGQMMNT2URfEwrNH/saSCyiv9m8qrLtqK07chqPwRkBpyNOvwXDduI6CZpvZ01JTGmpId0zEPrA5M7vBE+unXHPeVdtqdnItio0IEIqRB1jNGYpnBkKWc55Y57HQYrY4jnRvOk9/tbhO2yc+lvZxB4zbim1a2pdRCyVBpFBjBQ9NKikMSLRrMo0q0wbUdjDvaPBjiGPxOF/RDOj2RQBn7wurOawXkKadz+AERZDs4AJI1osRjQHDUVzSTkbNAyVKB3+zfbx212eLrIGCD2KaE9UWBRoExXqCgQkcRpIt6aIs9lWqcvZtiLmPMSoC4A25BHmZQ1JHVGm9zAtSAGKl2nDEktG7dq+NLbx+GT0Eevko8ZbPzQd/uvtclBUhmhatdj2F6RNFP/x6kQUYfDP+yBY4RPy/KDBfz+y+u13QPQDbHKPGXZUmg0KLcRclggbJMhm6FCS6SJy3ZrKuMH0fmZ2dzmDahBr07xSu/Br88XpM14Ara0f8Vq2BSJAlbv3cU9goHgVmrMFaNptxgsgBFTg0ct4VYrz+ocmAxdsEbktzfQxhSmiNgaVhgAtNdYHZPqg1BCSGMQsYVOCtu4xp8mDmclcyG6oNxMOMCAfjsoQYI1LzLCksIBSexQWv9IWUtqjcmBmjtJCMu0i63cxw6jSuvyAOfBWW/y35g9G9inofF0N6YBhw4y+QWDaSodYcFoq1Phkjf/wxLLqVoyNbTDDlkwHnhmhp59YFyWglzAU6spMsIGQ3Lypdu1QQ3QztLra6GGDMypX8i2u479cB19ttmq74qFRsOnnZcH3DP51MSMM8ZX8ebvZzUpe4EX7rW5VS5/zB18zTtMn2Jfme+zrCn1AbfTDenpssW5LrMMYUWiD0n5/nzXTZ1ntM6/2mVZ69JkeXaZrMKXQCq/lEkv6wEdtyxLLgswyLzPNKizzSusCisK2KLMtS20eqd0ns3tUjoUe2/IlXajvRrSjP3XVuP7Wke2fHV83rze3aTURDrCAbE0sKYNnqyIzrdWq1WqpVMJf0SyQ7HP0/uEBoeVLYoCgmC/SHOXBY/6QbkY6lJQ7tynPR8C3LDL9tNTi7bFlVJqEUpeUGKBqsH5E1gBgk5k9tGpwKMO+utxl2ftuU2yqXILLJY0uUmdm6586zitw97gHMNCfegtKBzIuAkuDls8Vzo6I+OWbcGQje4WPjLnlYI3OFYV5DZRfpvPTvFZruNMe63IkO6wJtTmmMkQV2pBaF+02JPqMyT59vEcT6bwelF/zSXQRBnsyhhnlawGJxS+xemU2D9PPMsMsHAL8BlCROfxyZ1CFDPzGrGzQ04dL6dJMu8oG1lDU12Pvsyb/MnYWqLcOefGMBnHBf5pFWo15ftTr9XK53H46+fmpf3zgI8rTaS5Ns1GC5/bl+UdnVi/rlpUusMeE2O8JxHIBwb/Pku4eiHcPgo/ho1VGX6D1VkjUpGiLNkXrRrSJV49n/jiYoC2DRF8m7tBG4h8c5xW4e9wTmEatcUo2iAaiNHg2Vzs6OaZNiCtNZH+/M7/30KCHaeYRHq6OHasGxeC5JUBdk844FA1F4kwihsuH03LonSMmRQgx+aVGr9ToVujCHTc2Op7dU13fkfVvkpS1GabDRWhyDJFpkFSaRgQHSFO8mDHDBjIS3QoNI4IUGUJMk2SDO0y3z6w7fTrfT437HYfU14lkplAqVik5/fsDqBSLxefs5p84KFGCFsJJCLIJd9Hg5l3+HsOi2u6h7jJXFKSRepptoV5T6sKN2MX+OPX7Da3SwLM1oDDB6JdoNPqZ1S5HjumXL034326589XdWgbXhgjvEzDIXJAu0Dod8tX0FMpKjqYbktXbEkdv1kVZf5SZKM/qs6xdNG+I7XRAwxDG25kKTSGj4T89PMCCsIMZZrrDbDPMNSdxBC/YshdNlW5TQWnKMvMhs+zQVCYQNiIIYp4qbZCI6AXAMky7ojRsSY1rYv4KHLqb6cAsNpj9kJk3mXXjQX3kQ+bgtRB0hyz8rAyPVGiD0W4/XrTtpt28f3Q06SkyNLcHZArKR55ns8n/ZGnjQfNtVFti9quG4LKoXd2mxEVNvG8gTmMzw2naoYA2EfQi/EhMUemN3S5rlh435Ji8rJn98Fj6ToOIOLBp1+QfHOf3v3vcM8ZQKBXds7DDGo0lVsAFSJ0CBf7rowF1f4RBf60Rhdkvu+a7Ytno1cW7dVG1NiLThGhjSp2f6b30tCNSNzcbWmBDM2xokrlGmdPFbBOEH7EAgYRdJEBOeAwxbgiGBjpnhK+LyfQJhTah0MW6bPEOS1RlTMmR98CYHCGZ06O0+xT6WK/jWGEtS6/vvta0/gehfDBPg/toM5xYpVIBGO3QgreAqt3Af3Q0GzV8VGm2xBa+CE5lWmc5U+LvcU516yekAwtSME/aDDWutiV7LUmVTmyvSfsFRmnfEz1NE5Aa492WQ7V5QzmOdOe23OB/5NnlLx3To7wQ+tpI/IPj/P53j3sDA5JCnbEU6XO8dkhurUV9JJ8N7n+XxSt1rAp1DvU5U4ob3h59rNOYVBriMm2EARgNgAlSb5jRd2V64+J4vMu5rLZMdZonHnBNPnZr9jV3PBdNUw+Y5x+xL3/bkO/1o8Hvmoh+z+3Eu6eS759dff905nvHk+8Yin6XJfAGrfvbbyw+fn3udeblV2gWHnza3fe0T6kLKp3hznF/73jogZEV1p9guiM2XGeGza4nZ351LDKXJ81vHwj+sJX26+ceIf+PjmaDnqxQBeup1SqNunB9TRpk+mQg9YRzQX1jntwsmmxJK5xJpQtWggwB/hYO3C81ReQGeLakQp/sta912GIyp1s5Bpcb7Oz3/4L7VHNETPEciq8/zu9/97gHMFAwGAhARlQ5RT7XWOeNY6B0e5t/ryvVM7QiuSmWhA1EFIZ0nzmqMMJyoTvICkVssCZU9sxlx8or7Ctvtq++05L6YXPs5+zJj49v/Pfl7NPJhnGrOdfg7iYPtWgbyl3R2wLBtCMaZLrX5MkKX8zxm8ct235Nt9v8szvr/3Ek9ZMm//fovK82Rx50ZTpG19nNdarGUJR2YrT4mAZeLq4azn73yNbwVg6QoC3gZvk8TJ0OvG6/+EcHYlKVnikEjWw2S1Xq3SnzSpbz2Qr/D/OrVwywfsC/SusOh+JsFI1FWpbo0i/36JaI05tWlJqtTk1aZV6QW2eQWSuGaNJWlzXyWnPst+Z2gfE5FF9/nN//7nEPYOC1QDxFOlAvQGjVfZDl1Xzzv4cOey1BdmudjQVkt5NEq55eujwU67V7Rf7ll5i8XUbfo+bQm23x77enPmJP/Rd36cvR1ugej1bI4JBoIa6ekfmhpu0wVqOuSKQPuRo/E6wKyAAfMVxOAUNkJXDTq5zfKfD+vcZnUoVfWth5uyv+sA4RbklpuN1jHH9waOnyMJLZDDPss+vxnx5yD28ftp17CZcFIk3QriK8HBLmvx/KEFooXtdPs/g6tf20gtoQdz4q5nH3JyOHb7a4aRYc0hdcfwgxP05rrGyRPu3SRY3oVbOsS3U7CoRD3QQzjlOXszYms8c6XHH5DffbTcGYaAjcJaJcg6IE7XhGlRC3xx9KEnnzHsCgFce8sUe9trxwXKgd0Ly7p7L8FdYJNjLHJjxseInZ5pgVrGyxy+l+5ZD/LY7AD46lfnlx/49C+S+mG849HiqRNCFZqoKQBNqMK0NSuGyzTutLaPi1gtyoTgtMhOukzwS/RF3bX8YV8LfaEE/IFp+jbbDmeL5266D4t7Hd31ta+ZFh3xuNiw8bfTR1HTmsPiwxzb5paPHZY9IGuuw2LWyunB7jfkXaRQVyP4cGd8E16X6CyuE1vk6pNc0X4PndIhT0VyaWX+2c7bmN2AbjyNCTUCkW+hDzO3VByjdxUyvtrUmZmc2NLFutC9E6QhAi8AWd59durfvFcgPI5Kh0WGnkqAK4obg9WoSo0eKVe1oMDDlbpE4pyighG/ch/+mFDTVi+PgSm/QrR4KXHN6L9tlHHdNvckz/oH36L5PHho3ybIEW9RzgF21dwF1xT3hrCBXZb6PcrBerDZRCs5ZrVXPNWqFeK9UQpOvVcr1eajQK9UYRPgXBmFSbADpfQYirVSGnPM+fEq+t5nklXyoV4G0CZT6wUfj/Ftc/6Ay8Ub/8mNbdZwtI5yGp+Z+6mZrY5jR6BVMttWpnxxVeLpCFQgp/r6jtNhMm4mZQBeochF2h8iW+c1gZLvF3W8cuDs/TnoL6TMfQgehj9kD0Kj0YiliqCAoDZ05znWilXLfW14FAa4pQv58l/P3jW5+JlNoL4XO8nC0f0A0q5xPexH0go3sBQ36+hdwI/v8YtYRrcazzdxpDKh1iCc1JfF1/8Edv+H7LHvgb39pwrgQwstRhBQzbWl5utfL1xmmtns1mdwqFY/FkFgFVlVdPG7lDyKnQohH3bJN8W75BW7OVUI6yW/niQRNZFHHAM14/bua2SidbkBksL59vZE9qZ7kmcpZco5lrgUvVCvRcHr7N+UKJP5XJ/cZE4m3mhQ7XjETj+jH7/OQJP8XHsAKEzSbME0aKSooxQMiDjFHUWmguTqOa1IC20UIr6vz4tL7O+X+L7T3ytLPPHgC16bh9SENn1gCSBDWNnonFvdQVK9Isi69D7+nRkjHRnsIwI0sU+eb7DQvuIgnziDcOKiek/HkxpVZoA9QW2NwLmBZ+sMmbqM/pUbUMv+GjGLj3Bt3S45bAj9zZ/3KcB45pIhmcJnS2gCtXjulZbLV93oDzgM3AZI+R/1R5rkozh2tEvttaCRHQcnxaGJCnWYKVAs1Fr5cIWNpYn75E4Qf1zPNqjgoi3d1HMuOOeIO/Qq85rYGpAhq8I14F25g/bTy5nXvv5MIPLYX/eiuPNuCHBAztygSPWD9fESGEIYBp0W6QqBjOoJLi+6IPlzaTrFXoMXNQ84U6/4jN/bIb03Kzn41mxAZEEakhoRbL4VVasRye0jhah9VhcHfrvJ3akFgMRQ8avnQz8Xj/rf8xtwPR7NEkzVajgHbh9rBd3JXyEljDPS2m1WqAy0NvaMucUoG0d6pY+5zbN8M54hjNYjmB7tNQM2CDRuYa+XLzsEqdIqeI7jV+Wm6dFGvHNZqGRLPC6Oa4GjT9jO+d0vyNHcHHQFeAJASKxuM6W1l+dEY3Pddiob1UajlcGXUBhEAFYqT/25KF16vzUq2Rr5eKcJK8BHOzlxtWUDuhN3RvmFi5nM8ekazFTwkCMmKIBedQhHyolvSnRrpJupIt5/AWSrFd5I4D/vanxi7ZlqjfzCk2AjACkpXugZXuwbRSH5caQ0BFal5WGZc7KfzAxyQkBnC5lNwZftC69H79PC4CB4aaN0mId6mOyLQg5HvGGBpk34RDxiu0A3yJgGhmmtljqnCTrkZokJxOz/s7UahbQ3Q5QcPrx43KTrkMoQOADcRqmsHFR48buvWzr6SO/3Rp7Y/cW59c3v7U8s6fLO782cLuf53f/ezszlejFX26Nb7LvQhXdZpEuNviB2KFY3sZPxlZtVhpdw+SvtNfGEOx0qySycHCDprVLJAG5GhqHg6yAVqBxtcqRYRc+gU5NtEyACJW7KMIL3a34A2iMfzkcT1Xg0IJm9xq8j9b2H54YISIjxPBAyxgVSm2XOkdSHVqo4j51GNmWZKbluh59vqwUpeU69YlhhWmc3c7/Q8b539reR9tofYg4a0gL4Dm5IRmUK3uAQyqDotbLyAatRUW7K5yxs+Qt53kt3nxhB4nChJFTooXoIv4AYLpXTeBH8GM1lvcV+PPps4+Ezz42HTqfU7P683zr3S4X3Er+m2zq91WT7fF12Px95oDfabARWPgAUPgQb3/zeObb3Imv8Pof7Pe815H5Kfn9z6ebvzFDneVuL9KtoVbiWEx3AE2VKCtQ1u1g+Ozk8N8syQiBz6tVYuHoAmQuZh6R4+5Fs6JvBNd4Wv8IT6jGbRixBFxRRz4p4nXdbicLM8hoWlkaRYaIsJMjr/POvng8IKYOnu+SVHXYKZnMNlJu6v6YS7MSps9kukYw3J9Sq7bkOvW2LVlOX4yGnzdSHh4nTZuRd2q5b2WGC0n2dFNnx8wyB4qYExHyPwRBmu7p9unrWyFnq4mwgE98Q7XFkO5LSTYtNYRdoYfRpvcfsA/7dn96M3YD41E3joSf+VQvMcepQFmc5i22UOh+fNiriwKDabFKBswRZmmnSd6ZCZfrz30yFjyVVOrb51a/0Fb9D9Nbz2zUpkr8NUG32+BauVOaEOSHO7coKe/ifAkfBK9oH6vavNwn6yXphEVy+VsowmCSH6srW/C3gAV9A6JAdwVQUfY4BtAlMbcqmLbblxBOIk6Dx7yT4c33mShLerb23oh7Ku16U5NokMXvrt71BLt7GVDbhdhxpRMt6HQrrP+gBQ5+FhMYfP98shKEkCjBrSW6lgsVxXAVO8FDBTymOdPaNYatKnRajVrtXqxBjdCU7BQkFU38vgQSRiaU8nX+V6NB3LcuMY/ObP3wyb3q/tvP2Be6LkJe/fS0xGccWKTljVm3JTptqW6DbFwm/oIvr7gDNACsfHTczDMywrTgtI032WYf8QcenjQ/Uj/3FtMy/92NvO3G6XlCtWkDE9dy4l6nZaqJyel02y5WoH8C2KyBm2PCfdFtlWF8tQpt2/r5t0COBFK4e9AkkhOQIMcG+GGpsM5A3546xrt9FQhdKAZvzDq7hy4o7i5hhT7wvi+0piWDEZUppiE9lvzMLvYCA8NR65jpt2jZPo1uY6GokFoZWPpR+ye3/Vt4g5QiVphF7FTDNeQwt8DGDIQNLeVzzZgyPQwNTor8qGdUpHUD/AUa5Us5WF7vDl5XPrrYPW3bxc/ZFx5c3/wMWO4j8b/RTfJSJyNJGgSs1PsNWVcVehWwWEU+hi4pswYldIWSMjahMWYI2KmQIB+aHFLLItSy7zMMiuzzMnMS3KbHyFUbQ9fsYTe6oj90sTKZ2ZXZ/arqWzpuIYYQjxYzFKkqpIl1ArV0mGutHNa3T2tH+Qbp4Va8RwYsol2IS/Nm8hvERobkDvO0f8IYGAt1Wq5cXpMM0Jx/Ua+RMxwt8b/Lnr4RtOSyuTtciU6hzI0hmsUcqe1TmLrSKeHOZFaIKdpbx25orakmQ4CSYltWZffNReZO6TZGs1ivkHrimmXonsDgwPeqYxQnkOl8Q5mAduDT6PVcrV67aRBLgucaqHC/0f68MNT8VdZEhcNq539ceX1iKo/1qFLdRozalNKZoiJAfMArcG0e+jpek6Y+bLK4O3W+rt0AWRhKj2SZNrzSExybKPiIZ9gXZBY56TWGYl1mlnHmWWcmWaYiUbdJZakzBTr1QXeNb76H73HWtHlk4U/ozk81JtQpyeeQYxwV8Vq7YiWezXAFc9HLsjXARsUiixwYDTVBvQchJWAwXkAQ899rlUqJyf8JMuLWV49qhTp9w2eqvCPzaw+NDD96HBUZvDIKK8EXRauGIr1jzdbNSa77CtsMCC3ZZgryZzzXa47n/Ku7bRrUkVAqCO/hv+8FzDtHyCaUMKM1/Va4bh2uMNPjkC7UW1kc4ucf3G99LM3w28wzT3kDLDBZTgr2ciW3LHONDF2PQxsrjg2wVU6dCE4X4nZTVv3OeaZa5bZ59UGpGD+Lm0AWZiagAmLdcOw/ZCYgSbgoaUzSxRLbbPMcYtZbzLTbToznGAjq8yxysTu1g9rYj9gSv+XhbNb+3y7TvDsZysn4oHa1BLAQ13jsBVajYjKEzZCvlQogaEgXxF7KsOb4QtCWKLhlUa9lM3WDsU26+WjFk0Xx0fgu89uNn7A7n5MOy29MUlL0cbWJEPr7R0mKI5ag1+3PbEppqaNQfwqEDlaugbCPfVO1/yNXagCqT3Mu9JE5t94HsBAcyg3F4lAqVHMl0pF8hLQQNBffZn/snftdfqp3v5bMt0co42K5phljqYr2D1SGmoNMDhcHT0PhoaPjPBaYbkxqBCzNVR6FJrbqDBA4+Ca4zRMaaI99sQUJxr2EIyg7dmCtM0MnMOYj930sKFFWhXVPym9sdA5EOoZSF8aWH9Us/FG4+aPjx38UaRpLPKA6PEEhTtDcDkTA181sLJysXoG50s2gQZCxGLm1xlvnlKAKYsOO8qD6VM0FRAhMagU8iUAc3pGuTBNSIIIEJXiLf7p4P63P2ntuT5G637H11STh0yXlBrScn1COAm4NTE7EC/MIdpJSuejaUAGj8Ia7LZ5uw23PzyXjELSgj2BQaKi93Rl8HhitS8adgRG3ER9USdEl1iVfzFdfv948KJxWqGfp4m80HG9W2pfkpqn4WpktiX1aFg1KqZb0Lye8/0MEEtgFsBDrQvBROSGsFiv3Y4uCYKE5tAgScZfMXxJu4c9t6V4lPp0EauGQuIx1wsq/VKP1ndBG5M/Hb5o2r06nO3Urki+OPfgNc+/chc+l+N2TvAgjyH5UiSnjK5BCyVgHyKHxHkRPNGoLEkcBoKCs6Cu7Q9xQAxlGE2+fgJ6hmSGgMm3yoe0/cXtM/4jhluv0N2iSQqjafn4AdOtKLV/vwW+MH3wNAjBzwxesRe+V6JbvmpPXHHEmX7uEePMl3eoZ5N0hXpzC/cABiTyiJdOOGykWMsV4P3qYj6ce4d/cirzHoe7w7kgmYzLEc+v0fQD5cQx7FdpDXY64l3OZKct1WFNq60ZtXVFZqB1C6RBNPAM7+ShfWLFKlkBakD4Lnzahgdg0CC/xAgfhbbFYFVI08BEL5nSPdq4ajDeYVzrcR32jGaVrgNm3ZAASE2QXV9kN+bVOnev2ddn9l7VTv0bf+Jz69tLRdo8ndpNe9uAEwMYMY0YZ9pAiLXFIvPGG6Sw8Hutdh5GlA+/BRa0f0G+2gTPoy4UXLEBLyIea/oX8YMnnAtKONt2r7Nxu3OAHhrRTmvkRuSbXqmZnr3CrF6JIyDvn6UZpo7kRVNEZQx19c/9yGTMWKDbcdppM8ugM7ABGK/odocx3eUqKDR5oLXHCwftR1hUaB9YVGJkl//urfjbzXMXTbPMOAPJKu2rva49uWuP2TeZMSE3xuRGSDMu08Ykg1HJYIwNRuWGBC0oIdOGXfvEQ1zB9NvAIJCgwOThlL8mpxEWJjNEVfoILRfShvoGwz1PBS5fTz+g3+k1H0pNB8ywTTuYwvtR13pAbQ/2uoJdDkq8mWGRDd7uM45/p3Xi18d9A7GDdI5EDCZ50qL+NDIFgkoAQyaAd22PAKsi1PAKBnEODA024GQNOWtOTAwgX4dL5OmCk5x/cGT5IbTI4GZPuxXW3Y7BrZ7+DTjYTm2s3REAbklx0RkApWTX7lw1hx+1pbr6/b2WtMrgU2nH/jBbXoHgc5QyMXDJCj/O870DvnMKNyx6Hag6p7QbDu5dacLn1uFjoRz42fUy/95Zr9oywhxTzL6gMnjAiC5ogj26oNIcklkiCrEAXgK2ro1KgI05pbStqJ3rCseKHKTAnpTS7GxhNyaEn4DKmlBakzh/Pto/BEqNkJ4QvbP0BbhBicanGvR1Dwb6+sMX+tO9/WtqzZpUv0aDHzSbS8wqQoy1+OQmr9LopY3nYIW0x2WQrmbwXXh29i39Cx8bTf9dorxYJvVCxl1C8yBZFCFjEX/qeQi9Ua/UQTpbNEIktqatV0XHL7KMWrNUrZ01GiK7JljzJ2AKNMbxmZXsG4x3+gxLvcNrTJeS6jfk2k2VdkWpS8hoU1xwojmQHZgOvaVNBMIXBqKX+mNqHdIaH5uckxgsN2GJuOgRh8WA9R8V+M4h3z7j+bNStbAvMlDAI4wGATO3cwjLR6j/0mHph5bD3VOLzDXNRkEEw536yOXB8GWITOtVGZdlJg/T+iTakJS2/4wqzDGlJaZAgR0g/htEARcwtX2XX2IJS00piWmFJi5TuTuEbokqJ7aUY+tyZ0pmjSnMkQ5zpMcav2DLdGiTd1cK4psxMQUH8UbsXI3Uob2agLwljI/yOJo4QSltvEMXeFjjebs1/NHp9T/27E82ubfBMw2+3+Q52ieqUUEORGPJZChoOmynWW3C7bXgvZAt0Ckq1VojX6tl69XjRvW43tg5qx9x7uf806mTt9oWLukXaAUToiPNmN2U69YUupTYNQgeYh6qTNHFBN8Ajxe/0J+8dCOh0kVpM5vJeTYy+dkkPW4DWsPE0iqwrnytmUfSmS/z42yDRsTJqcGmjpFeVTdy6ydN/VHl3dMLbMDCzLPQa7l1TWXelJvXFcaVTl0MZFcOKzYusYE5NjDPBhZkuuVOs/+yK/rozfRjt9dkg7MSzQzT3WH6O8wIdjDNzFP0RMTBMOtPs4EVNrAq71/ruLHW0792YWBV8WSw81qs15Dpc270jG2qxtbYCJJT5AcQPRWJKSAzBUByUKS03avwhI6ImM8uNrUyJWi/B3zftEwVw73sbubyKoa9fc7FV9pmPzQV+vPU8UiBSD9iJzmsXLNVq9Ub5VYDeRscGzkLMbgnVt1QDyBZTaNZqTRKuVp+v1bdFAnD5zfKP3Er8grLIu0YpQ+wAfgDALOl0K6rtBkk0TQFkPoC3IQBNMkSBWeD9aMo9AmquWXmwtjSjw8te3BPSjApBApSAjCEiUBfYC0FXihXN+pnG4gzlQZ/Kr37fUMTCsswGxxj/Z6Hb+b7DMedxhNmO2D2bSgIRXWjB0nfA7O7F6a2O8cyMluYJoYDpOsz7Np0h8XXafV12329Q4ELY+HLE9EHJuNXp1Yuj28/MLp/dWjvQfvOw5atRwybj+g2HtauPzCQuQAHrUnJtAmmjdFujQYUJGte0QHlhuohK1Lpg2odPfqFCBvswxkXvT6wuTjoBoJTpzkoM8L1Iwdy0wMxpmLsVggpd89k8EHX4rfrJ79Pd/s3XN4vefbu7PHVOn9uEAkJAhwHXJaQBlkVdVGLk/gUWK7wBvjeFyJ7n1je/T7z4kPP3Ow2u2WuGHWdjYhtQPSbSu2GWrOq0iXlVEORcrpQCBiaSdOf6e1fketopwPWP/vgkPf12tEn9ytI2xlHvgVIYKQi5uE1MAINO8CtG+BvNOhnzPI3zdxhg4PMchtO6YFra4/rCr2anNyUY/Ysc+3TPESaCQZnAm4WoqmUNPrd3r0QL6iXQj2+3T26edG1dsWaecSUerk2/sqB2Kv7/d+hmfsO7dRr9TOPG+cesy49ZPdecgb7hoCElzZmNiBCrDDtGj3R6toau4Fmo2FLpHoWn4ye+BIFbSMfaE0Kr5Ugc7HQEnW1XiStJpDDTLc9rTaFZJpF2cB0h/7ORdv8JdvcZfs8ygOOpatO38PD4UdG469z+X/hTvjjd7yfdMc/F99+cqegy3Fng49x7qhzU4lfO2n89cbJHwfS/25y4SOW4R/QDL/hyZHXDy49olvuMnokLigHXGhcNnnETOsIM4iFnYOrHZq0EpkNbR0dYUMIe0jIUO1U1+Bq98A6rEquT7NnFi6blh613frNSGaDuv1hv/Vzxi5mVMFoqsetgzMaxTgC39Cf8PeMhJnGyZxToFJdttTD+k31l2Mq7RYzbTHbFnOts5EV2ixqmJaNd46kOhxRuckv1bkVOnePyfeQPfK4K/7GoeQ7RjIfHN/8hdmTj3urfxrl/yvD/3aT/91++W92D/5bZuP3gomPzvk/NL74DufsG6zzL9fPPWTwXNIHe3Wxbl26U7fepd9WWNZpvf2QhxyCFe4COamYN4soRdkPAk8ctktzuk0euXlRZnZ3DK2qHPC6SXpA4KCnT7P8oNH9iMX7oMXTa1qWwZK0C0i/iCu64Crjr3AG32xd/k6r+wmb9x12/7sdwe91hr7PGf7R6fUPTq1+4HbmvePxJ4aDb7Atv8o4+3L9/MVrS5cM0S5bQuZKkrNF0oaEH5TElJHpM2pNpmsw3aFJqRBpDMiXYdO4UZA2CwItQq4zuKnQbip0K7Ibvh7D4iOjsz/nDcMgGAwEfLnSogH3IsFT48XDZhEGXSo3G9bt4nvmT9lAkj0VuGRe7TRFiIy7EEtuMcsdZpkl/gcZDcfYzRU2vqEajT1xe/GDExMfuT39q3PLf+iL/e/k1sDmqWu3tC6oNpwA2F3bRaDgNe60y+ttB3Io3sJLIF137vEvZVr/afnoh0aSr7X4r1j9vcPRjskMPScW2SXSBeoWRMawxgz0lAw0EiK4MBC7MBjo1C9LrHNsaIqN3GFjcO5I6zwgeB2O1KWRjcvOtQuWzAXzSo8hrRyMSW6EWH8IHFJmTqusq53mTLcx02PM9BlXLplWHzCtXTVSeZlj9yHb1gXjCn7CrgXYV93sK4vsycVuxzYz0PoTWhs0nGGTW2x8XQxq0NaAHVpaeK7WJsQKeuE8qP8iKMY9QfHXgArIGz2q2BxRO7xX7ZO/HV+HTTDQMxSYzSGSLsR7eNHqIY0+NLnvjP88JH7NzcZzDxgOLj2LbDFFLn54mi2B/4zJdKO9mvEr2tsPG2cfsS494vS9wTL9Sb//6Xhg/PQwIYYOIXry0WUEUvhJkTIhilYQuMQq9Eah1Dws8KNqC0k3EmqkUucetU3Q05yPN/kXDuu/Flh998idx/Rjvbo5pcEnQyyljgCxBYJhTa5b7xxc6xnI9A3Eu7VBhdHNbPNs+A4bnmH6aYYYYw1JzFEJ+M9ARNafUA5kVAOZDs1qj2Gjz7LZa1ntNCblcMKDKAk2iFwV/nOVXKh2HUWi22CDq2wQDCXNBgHDKrNssaED6eixbOiY2XbYyD4b3SHGPwSPGmJfmZCaAkqDH1SwQ0d9TvRcJwQSUwxBkbbagmLhy+ZVWhFgAO9PsaFo983AIzecf7V+lm1yhsa3HdhJpXRQ2qvwg+P8KoR4UOe/7Eg/bojIEKlcSO7CMjANKMJwlN1OsMlE91jmddboByyBXxkJ/Zln5cbe6W3OM+1cTNBKskXxLyiFYBU4WuQ0KWEQc1QATw222u6iF2y0JcYP2z8QJ/AL1A2V3KzV4vn8Qr75p1ObPze6+d22yINmv4pynTC77mNfWnxg+LALNMSaoQbDqbqgs8uIqB2GYJfYOLl7MN7Tn+jpT/XcyPTcoPH5u66/3duIpMdHtJu6GuESRaFNSVKSu+X8JIRI/XjtAi+6SS7dvE6vKTVGlXxIJ5WmZbVhSW1YRqonQ4ZADJ52CnzMtXHVmqZvmsLU10kTB9fZxCq76b8wtvwTjqWb+/y4wBn8iYgy4IvF0/JWnu+c8UK6xP/Kc/yd9q0Hp3K0ps1JT+tSjMXZRJqNJZgjqNAuvtOR+PcTG18J5BeRmoqnDxUhYppEJ3JroI3rtmnFOSbtA5wcJFDwTthHAzjQ3cVXxJcITGDTIJOqlambkAb4c7xy3Cjsn+UKew0+ecA/4zn+MZvn8esTfTcme03evmHRVDg3J2q4wW7tScd2JEiMroV6NJm+wUzvQLpnINUzmOwaiHcMxtUaaG5UTg9yhLwCYuzEJ/ie77y3UXQ4/sPSPi8WI5JZoBApX6OUxbQqkrCIxIzwBlQWVcZ5tXFeZVyQm5ZET4xYTGsK914PXOqnnYLot0MZdnOVBqc1t9jo3BXD2H+9s5o+Jl1kkIVQzXqrdtKqw5/l4OKfPCu/xelhFvxmjxnCbDLFPCvs5lLnU853fHXsz6dWJ3Z4osp3kXW1McCV2v4HGXLbTNqWAmC+tpwjAGToERkV0UeLL9LJ5351tzRKpUat1GyVARGNOdIyy0KBuquISJ6UeOSQa5P5311cfWLC0zWCiDLPhiDcuPAPWzLTodyR6xwqKzWHHYP7Kt22DP4HzgSSpd6gRXqyqQMZH2j0MgQnpSfHCSfT7i76J4tdFMfXFFqyTOwD8UNmjClouy8frERtXFAZ55SmObl5QWIRy2tpFIq6nRTPeC4PxC4Zk2q4Ypgp7YQyxwwj3a7x99om5zd5OUsqjTwGIqFO7UY122gWs7w+lMt9cMmvcszJJnaYdV026GdfucmuD735lvev1stxoetkICTKFk1eKIkHG+Bi1fb+pFQgWzKR58SNn6DgBc6Il4AEIoZ10fee+8Jz+IEoVhrNWr3eQprXogVevHFKG2PWS81SkwZN6Dv4E6zyL+ye/XJq8xWjdy6MLHfZAmpzosO0qTRCpQ6YZldiPJSY9sTqmVVaCeUI09PMh9y0K7prkR61ZV0iz2P0dOh9ar0P6ZFYkfw1xfb1xf41BZI1gxkmgIrcEKYJsQSMW2VcgtHIzIv0bK02Ku3+IUu405zq1SUuaKJdWrE9qHGSWccvO8bec2v2f8S3SxBFjmZugy7ToCSCcqFWOmryaJ3/iX/tknmYWSbUmrmLfzf5pq9O/PpIzJrm6wXxXSERKP1Z+eisAcUVXTfCYiBS4CV8GESJQq/FW5IgvoLfES7n/kq8R8GLdlxpoyIudV7aIAk4nws9CDqV2nG2sJcr0256uBKsdLfO7RvlT3k23+lYvDA4KdMt0lDbQJQ9I2wIWdFQQowYpplzhXZFtSEewPuJmXnmAFi1wrSgMs3A+SBiKw0RhSFCm6fTmDeV9kay/2QRPeJ4EUZSJSwGP6fFjrTDJHX1iz1AqHM2Qt0wlrhiCDwiKHl2qUfv7bUudOtGX2Z0fa9j7K9S23E0UwjhtNpitJqSph7UjurcU+BPbjY/OBy6qJu4bJp8q+bWx0b8o2WehjwgJkp/eeMkXyvAtk7rPF/kuWN+dlQ7KxXK1WKrWHvOq9Xh5EC5UEDvigIkYVF3gYGs2xicix41ErInkO4C9lwRVzz/Jo0i5auN0zJNcUOFEH7KNLMF94BWFfkXMvs/MxN4k336Zfqpl2sXrkI0sI/RIBtBZoc0C3kG7AaBGlFhnTZOon0to2BQMpMbbkdhWlbpwypdXImijyv0cbmeehDEmMXXF3GSHtVInXLng2DIagGP1IjQBbTEpgYU+eA/oQFiLAN8ASmOkfak7TAs9QyOv3LQ9a9vLXwhsZkUu2ZmszRIhIayAtrULEAo2w1uL/P3TWQuPzv7A2Nrn/AemXdKyDxgBND3Am/lWtU8TagjMbR4oVjYK1ey4vEjJCF8hy4D/kRzstoWItBvixN3Ax7/94Jv4Hv4Nn4JCGFzKDRC2KqU68VardCiPXkrxBrwfXy7UW/VaXI4QiOvn7SaZ9n8QZ7jDU26tB6XPh1c+cVby+8d86rhi1zwYAnRKYDcm0YTpGYIN3YucQMyDJFkiIK34iRJX4yoikJrB/5RoYiFdATcN0DBBmZB62NwXvR60PM0YJcrVMwrlAJDD/ACHOzmGhuNye3Lr3Yt/uJSSn9QpzF/oX9HlfIJTX7j7ARCaJYglbUSX+b8R8ej3z8cGczzgNjUO19C44EhMo7qMS/s8ePDFrhcjkaTaJoWIkwTcgS1AzyEYRZaD95FPxEBvi464vAtIXsBEAr+tA1DeCkqeI2K4VIC5laBN89owKh42jjLVbPlWrbZOKMNxnBZGE2pWT4rNop4SzrT5Lli4wB/6zScWMOlzsSUT+fhyafjm6+9MXlV572kR17t6zD5leagzBySmeGdogKYpMyQopnghlXKVY0rNDRnRNigIoZNxbDQ/60AGEdEPIMoQv3c5KxwErC1x/rSxERgmqDUxm1RVh4YX7087Os1T77Gcfu3UruTYoSeZsbAZZ2BhvLk4RYv11kVwiGWRHJBQr4lmoT8HEYA/cX3xR+SLsQsulufczokUpGYnIv4XMYt+v55wevzcg7Jc8dzJ54r+AEu0r4a7EL0Ez0HafsTFDHt6ry0f1SH6SMZOmeX4ixqDucJdYHFT1Xg36ofHY+9y7L0GofvweGYDG7nhrtjbE9h36LnlWpSMn1aTp0ICeon1folWr/MEFSYwkpzRGGOKC1RFKkBnC0kN4XbZ1TWmNoWVzjSbMBP3YM0TIeUPgDuK3EElfbQgxObl4fWO4wiVx3cYLo9ZjqRa5Nvfsr4q07HF1bS460GcnDUEGqEnLvdvnaT8M+9py99Ux/ACtoGVZs+4/8zsPWT1sU39E+92hF93XxWYUkqXZvqkV2ZfZ3p4qw/KBkMqUwxtSWmtkbbRWmmeSMSnY9pvQpTCAVn6FEmlggKfcEa7xja6Bje6rq503VzSz26rnClpPBpBh8bdEs0XrU+1GtOXrKuXLGtX7VvvsngeXJlfXovlW6cwetCdWhDomadVlG3MSGFo5p/iwMDU4UzLTTrZzVyFckyt2/zP1o6+qGR1BX9smDGojPUllDbV69YNh6ybV4a2egcXlHYExJasR6WWqJ4rXKm5LZ4u8issXbBRypT+JIhcFXjf+B6oO/pYMdXItKvxtizCdq1DJakRy64cMky9V32yX874/3fq3sj+XKCN7dBtXgLGpOnKEKu/xyVdvnnAUy9ynPlVrbVQCglXwEn7j/hmnX+H+a2PzS99h1jsauO0EV75JItftkY7dZFGD1FXsQJkGl7ijkz0qFV2fAadc2hGPGFCCXd+hAVrZ/93e2Or8xcvuF/mT71SvPmK63bL7duPGpJP+5KvNq69A7n7K/7YoP5fJi8FhhWbp9X91Ba5cNGKVsvlxGGRUX/eQFTp9UauTNarZgvtPKlSgn8jhS1wA8PefKAj23x/xmu/OvJldeYF5TaCaadYs/OU1cmmJVjjQrNaI2yfgQP8fYfFPuacvxQPrRJO3iYPJ2m2Vda77zHNvWz5onPjrtHI1v0VIIm9T3liqWzOk3hgPtCAcGhuawURBFDoT8Ipv+cgGlQIlU65tn95mG2dVoDGwelyNeoNwkiEzR/o8idR/wzmezP+9PvXUy85mb6ZSOIB6kLxkiXxt8x4FXdcKP06IK9+lCfIYzzl8yxy5b4A9bEFVvqkjFx2RB+0OR97ZDnhxcin1jZvHF2tlSt4No02fskx7PIzOvUs15rnhUK4JGApD3TkyAALpVaFTnhc6gIx/YtDgw1u9ps1lvVVjPXrBw1cketsxL1YFSrtWK1VKqX6kAKnAgwrZf54ikf2G797XrzLyJnf7y4/Z+nVz5xO/37d1b/cHb9V8xLH7Ms/zu79zdcgf84Ev74zdjvTCQ+cSv1xZXmwC6/WeRBXEFwX5Qt3kSycUR5XV0MZsB0GzQrp9ysVir5SqlYLtFeA0AAJlOulrO5rzWXfxbAEDMDx6f8BwBAVSs5frpTAgogBEjIkI3BqEo0Soj4UyMW1x61Q9nmPF3hwZO6e6/oO6wEjmvh02a8QCfXGmKRG0qDdn6klVJCyihtmCmiUJxvHpA7rdHqaxqOEvwf3wJOiPri+41CuXgsHmvyzweYNi6QAP0DgdHy14p4fFy2Rj3UJ3l+ivBD3aFtwxFKLHLw51Ug3fOcmLosqOMO7ymxgsxhCiI1uStxXB3Il+ks7tE++Q8KzqPgD+f/B57qMgEcEqlvAAAAAElFTkSuQmCC;" parent="1" vertex="1">
                    <mxGeometry x="834" y="149.5" width="80" height="80" as="geometry"/>
                </mxCell>
                <mxCell id="16" value="" style="ellipse;whiteSpace=wrap;html=1;aspect=fixed;fontSize=14;strokeWidth=0;fillColor=#dae8fc;gradientColor=#7ea6e0;strokeColor=#6c8ebf;" parent="1" vertex="1">
                    <mxGeometry x="210" y="241.5" width="45" height="45" as="geometry"/>
                </mxCell>
                <mxCell id="17" value="" style="ellipse;whiteSpace=wrap;html=1;aspect=fixed;fontSize=14;strokeWidth=0;fillColor=#e6d0de;gradientColor=#d5739d;strokeColor=#996185;" parent="1" vertex="1">
                    <mxGeometry x="308" y="302.5" width="45" height="45" as="geometry"/>
                </mxCell>
                <mxCell id="18" value="" style="ellipse;whiteSpace=wrap;html=1;aspect=fixed;fontSize=14;strokeWidth=0;fillColor=#ffcd28;gradientColor=#ffa500;strokeColor=#d79b00;" parent="1" vertex="1">
                    <mxGeometry x="264" y="226.5" width="31" height="31" as="geometry"/>
                </mxCell>
                <mxCell id="19" value="" style="ellipse;whiteSpace=wrap;html=1;aspect=fixed;fontSize=14;strokeWidth=0;fillColor=#ffcd28;gradientColor=#ffa500;strokeColor=#d79b00;" parent="1" vertex="1">
                    <mxGeometry x="308" y="416.5" width="25" height="25" as="geometry"/>
                </mxCell>
                <mxCell id="20" value="" style="ellipse;whiteSpace=wrap;html=1;aspect=fixed;fontSize=14;strokeWidth=0;fillColor=#d5e8d4;gradientColor=#97d077;strokeColor=#82b366;" parent="1" vertex="1">
                    <mxGeometry x="205" y="450.5" width="45" height="45" as="geometry"/>
                </mxCell>
                <mxCell id="21" value="" style="ellipse;whiteSpace=wrap;html=1;aspect=fixed;fontSize=14;strokeWidth=0;fillColor=#ffcd28;gradientColor=#ffa500;strokeColor=#d79b00;" parent="1" vertex="1">
                    <mxGeometry x="180" y="386.5" width="45" height="45" as="geometry"/>
                </mxCell>
                <mxCell id="22" value="" style="ellipse;whiteSpace=wrap;html=1;aspect=fixed;fontSize=14;strokeWidth=0;fillColor=#d5e8d4;gradientColor=#97d077;strokeColor=#82b366;" parent="1" vertex="1">
                    <mxGeometry x="310" y="361.5" width="38" height="38" as="geometry"/>
                </mxCell>
                <mxCell id="23" value="" style="ellipse;whiteSpace=wrap;html=1;aspect=fixed;fontSize=14;strokeWidth=0;fillColor=#f5f5f5;gradientColor=#b3b3b3;strokeColor=#666666;" parent="1" vertex="1">
                    <mxGeometry x="264" y="341.5" width="30" height="30" as="geometry"/>
                </mxCell>
                <mxCell id="24" value="" style="ellipse;whiteSpace=wrap;html=1;aspect=fixed;fontSize=14;strokeWidth=0;fillColor=#f8cecc;gradientColor=#ea6b66;strokeColor=#b85450;" parent="1" vertex="1">
                    <mxGeometry x="192" y="306.5" width="55" height="55" as="geometry"/>
                </mxCell>
                <mxCell id="25" value="" style="ellipse;whiteSpace=wrap;html=1;aspect=fixed;fontSize=14;strokeWidth=0;fillColor=#f8cecc;gradientColor=#ea6b66;strokeColor=#b85450;" parent="1" vertex="1">
                    <mxGeometry x="240" y="396.5" width="45" height="45" as="geometry"/>
                </mxCell>
                <mxCell id="28" value="" style="ellipse;whiteSpace=wrap;html=1;aspect=fixed;fontSize=14;strokeWidth=0;fillColor=#dae8fc;gradientColor=#7ea6e0;strokeColor=#6c8ebf;" parent="1" vertex="1">
                    <mxGeometry x="271" y="453.5" width="52" height="52" as="geometry"/>
                </mxCell>
                <mxCell id="29" value="" style="ellipse;whiteSpace=wrap;html=1;aspect=fixed;fontSize=14;strokeWidth=0;fillColor=#fff2cc;gradientColor=#ffd966;strokeColor=#d6b656;" parent="1" vertex="1">
                    <mxGeometry x="260.5" y="280.5" width="45" height="45" as="geometry"/>
                </mxCell>
                <mxCell id="31" value="" style="ellipse;whiteSpace=wrap;html=1;aspect=fixed;fontSize=14;strokeWidth=0;fillColor=#f5f5f5;gradientColor=#b3b3b3;strokeColor=#666666;" parent="1" vertex="1">
                    <mxGeometry x="305.5" y="236.5" width="30" height="30" as="geometry"/>
                </mxCell>
                <mxCell id="32" value="" style="ellipse;whiteSpace=wrap;html=1;fontSize=14;strokeWidth=0;fillColor=#ffcd28;gradientColor=#ffa500;strokeColor=#d79b00;" parent="1" vertex="1">
                    <mxGeometry x="1101" y="271.5" width="35" height="35" as="geometry"/>
                </mxCell>
                <mxCell id="33" value="" style="ellipse;whiteSpace=wrap;html=1;fontSize=14;strokeWidth=0;fillColor=#ffcd28;gradientColor=#ffa500;strokeColor=#d79b00;" parent="1" vertex="1">
                    <mxGeometry x="1151" y="271.5" width="35" height="35" as="geometry"/>
                </mxCell>
                <mxCell id="34" value="" style="ellipse;whiteSpace=wrap;html=1;fontSize=14;strokeWidth=0;fillColor=#f8cecc;gradientColor=#ea6b66;strokeColor=#b85450;" parent="1" vertex="1">
                    <mxGeometry x="1101" y="319.5" width="35" height="35" as="geometry"/>
                </mxCell>
                <mxCell id="35" value="" style="ellipse;whiteSpace=wrap;html=1;fontSize=14;strokeWidth=0;fillColor=#f8cecc;gradientColor=#ea6b66;strokeColor=#b85450;" parent="1" vertex="1">
                    <mxGeometry x="1151" y="319.5" width="35" height="35" as="geometry"/>
                </mxCell>
                <mxCell id="36" value="" style="ellipse;whiteSpace=wrap;html=1;fontSize=14;strokeWidth=0;fillColor=#d5e8d4;gradientColor=#97d077;strokeColor=#82b366;" parent="1" vertex="1">
                    <mxGeometry x="1101" y="370.5" width="35" height="35" as="geometry"/>
                </mxCell>
                <mxCell id="37" value="" style="ellipse;whiteSpace=wrap;html=1;fontSize=14;strokeWidth=0;fillColor=#d5e8d4;gradientColor=#97d077;strokeColor=#82b366;" parent="1" vertex="1">
                    <mxGeometry x="1152" y="370.5" width="35" height="35" as="geometry"/>
                </mxCell>
                <mxCell id="38" value="" style="ellipse;whiteSpace=wrap;html=1;fontSize=14;strokeWidth=0;fillColor=#dae8fc;gradientColor=#7ea6e0;strokeColor=#6c8ebf;" parent="1" vertex="1">
                    <mxGeometry x="1101" y="418.5" width="35" height="35" as="geometry"/>
                </mxCell>
                <mxCell id="39" value="" style="ellipse;whiteSpace=wrap;html=1;fontSize=14;strokeWidth=0;fillColor=#dae8fc;gradientColor=#7ea6e0;strokeColor=#6c8ebf;" parent="1" vertex="1">
                    <mxGeometry x="1151" y="418.5" width="35" height="35" as="geometry"/>
                </mxCell>
                <mxCell id="42" value="&lt;b&gt;Source Data&lt;/b&gt;" style="rounded=0;whiteSpace=wrap;html=1;fontSize=14;strokeWidth=0;fillColor=none;fontColor=#333333;strokeColor=none;" parent="1" vertex="1">
                    <mxGeometry x="229.63" y="167.5" width="88.75" height="31" as="geometry"/>
                </mxCell>
                <mxCell id="43" value="" style="shape=flexArrow;endArrow=classic;html=1;fontSize=14;fillColor=#dae8fc;gradientColor=#7ea6e0;strokeColor=#6c8ebf;strokeWidth=4;" parent="1" edge="1">
                    <mxGeometry width="50" height="50" relative="1" as="geometry">
                        <mxPoint x="406" y="352.5" as="sourcePoint"/>
                        <mxPoint x="485" y="352.5" as="targetPoint"/>
                    </mxGeometry>
                </mxCell>
                <mxCell id="44" value="" style="shape=flexArrow;endArrow=classic;html=1;fontSize=14;fillColor=#dae8fc;gradientColor=#7ea6e0;strokeColor=#6c8ebf;strokeWidth=4;" parent="1" edge="1">
                    <mxGeometry width="50" height="50" relative="1" as="geometry">
                        <mxPoint x="991" y="356" as="sourcePoint"/>
                        <mxPoint x="1070" y="356" as="targetPoint"/>
                    </mxGeometry>
                </mxCell>
                <mxCell id="45" value="&lt;b&gt;Datasets&lt;/b&gt;" style="rounded=0;whiteSpace=wrap;html=1;fontSize=14;strokeWidth=0;fillColor=none;fontColor=#333333;strokeColor=none;" parent="1" vertex="1">
                    <mxGeometry x="1106.25" y="193.5" width="71.5" height="31" as="geometry"/>
                </mxCell>
                <mxCell id="47" value="&lt;b&gt;Develop&lt;/b&gt;" style="rounded=0;whiteSpace=wrap;html=1;fontSize=14;strokeWidth=0;fillColor=#cce5ff;strokeColor=#36393d;gradientColor=#ffffff;" parent="1" vertex="1">
                    <mxGeometry x="504" y="104" width="157" height="31" as="geometry"/>
                </mxCell>
                <mxCell id="48" value="&lt;b&gt;Test &amp;amp; Document&lt;/b&gt;" style="rounded=0;whiteSpace=wrap;html=1;fontSize=14;strokeWidth=0;fillColor=#ffcccc;strokeColor=#36393d;gradientColor=#ffffff;" parent="1" vertex="1">
                    <mxGeometry x="661" y="104" width="156" height="31" as="geometry"/>
                </mxCell>
                <mxCell id="49" value="&lt;b&gt;Deploy&lt;/b&gt;" style="rounded=0;whiteSpace=wrap;html=1;fontSize=14;strokeWidth=0;fillColor=#cdeb8b;strokeColor=#36393d;gradientColor=#ffffff;" parent="1" vertex="1">
                    <mxGeometry x="818" y="104" width="157" height="31" as="geometry"/>
                </mxCell>
            </root>
        </mxGraphModel>
    </diagram>
</mxfile>